<svg viewBox="0 0 878 150" id="logo-aep" fill="white" class="logo-single-svg"><title>Andean Explorer</title><path d="M25.742 1.586h11.893l25.126 59.047H49.277l-5.36-13.15H19.125l-5.36 13.15H.615L25.742 1.586zm13.567 34.507L31.52 17.081l-7.789 19.012h15.578zM71.802 2.005h11.893l27.471 36.098V2.005h12.731v58.628h-10.972L84.532 23.362v37.271h-12.73V2.005zM137.964 2.005h22.865c18.426 0 31.157 12.647 31.157 29.146v.168c0 16.5-12.731 29.314-31.157 29.314h-22.865V2.005zm12.898 11.642v35.345h9.966c10.553 0 17.672-7.12 17.672-17.505v-.168c0-10.386-7.12-17.672-17.672-17.672h-9.966zM203.455 2.005h44.223v11.474H216.27v11.893h27.639v11.475H216.27v12.311h31.827v11.475h-44.642V2.005zM279.668 1.586h11.893l25.126 59.047h-13.484l-5.36-13.15h-24.791l-5.36 13.15h-13.15l25.126-59.047zm13.568 34.507l-7.789-19.012-7.789 19.012h15.578zM325.728 2.005h11.893l27.472 36.098V2.005h12.729v58.628h-10.971l-28.393-37.271v37.271h-12.731V2.005zM417.013 2.005h44.222v11.474h-31.408v11.893h27.639v11.475h-27.639v12.311h31.826v11.475h-44.641V2.005zM523.964 2.005l-19.598 28.644 20.435 29.984h-15.075l-13.15-20.101-13.233 20.101h-14.658l20.437-29.817-19.598-28.811H484.6l12.229 19.012 12.479-19.012h14.656zM534.429 2.005h23.954c13.987 0 22.447 8.292 22.447 20.268v.168c0 13.568-10.554 20.604-23.703 20.604h-9.8v17.588h-12.898V2.005zm23.116 29.565c6.45 0 10.218-3.853 10.218-8.878v-.168c0-5.779-4.021-8.878-10.469-8.878h-9.968V31.57h10.219zM590.375 2.005h12.898v46.902h29.231v11.726h-42.128V2.005zM636.268 31.487v-.168C636.268 14.652 649.418 1 667.509 1c18.09 0 31.072 13.484 31.072 30.151v.168c0 16.667-13.15 30.319-31.241 30.319s-31.072-13.485-31.072-30.151zm48.828 0v-.168c0-10.051-7.371-18.426-17.756-18.426s-17.589 8.208-17.589 18.259v.168c0 10.051 7.371 18.426 17.757 18.426 10.386-.001 17.588-8.209 17.588-18.259zM710.051 2.005h26.801c7.454 0 13.233 2.094 17.085 5.946 3.267 3.267 5.027 7.874 5.027 13.401v.168c0 9.464-5.11 15.411-12.564 18.175l14.322 20.939h-15.077l-12.562-18.761h-10.135v18.761H710.05V2.005zm25.964 28.477c6.281 0 9.883-3.35 9.883-8.292v-.168c0-5.528-3.852-8.376-10.135-8.376h-12.814v16.835h13.066zM770.601 2.005h44.222v11.474h-31.408v11.893h27.639v11.475h-27.639v12.311h31.826v11.475H770.6V2.005zM826.713 2.005h26.801c7.454 0 13.233 2.094 17.087 5.946 3.265 3.267 5.025 7.874 5.025 13.401v.168c0 9.464-5.11 15.411-12.564 18.175l14.322 20.939h-15.076l-12.562-18.761h-10.135v18.761h-12.898V2.005zm25.964 28.477c6.281 0 9.883-3.35 9.883-8.292v-.168c0-5.528-3.852-8.376-10.135-8.376h-12.814v16.835h13.066z"></path><g><path d="M255.3 87.642h2.231l9.621 21.261h-2.565l-2.472-5.579h-11.491l-2.504 5.579h-2.442l9.622-21.261zm5.881 13.541l-4.796-10.766-4.825 10.766h9.621zM293.617 87.793h8.988c2.413 0 4.312.694 5.519 1.87.873.905 1.356 2.02 1.356 3.378v.061c0 2.745-1.688 4.161-3.347 4.886 2.503.754 4.524 2.202 4.524 5.097v.059c0 3.62-3.047 5.761-7.662 5.761h-9.379V87.793zm13.451 5.579c0-2.081-1.659-3.438-4.673-3.438h-6.425v7.268h6.244c2.866 0 4.855-1.297 4.855-3.769v-.061zm-4.433 5.941h-6.666v7.449h7.088c3.198 0 5.187-1.418 5.187-3.77v-.061c0-2.291-1.93-3.618-5.609-3.618zM323.224 87.793h15.261v2.171h-12.878v7.209h11.52v2.171h-11.52v7.39h13.029v2.171h-15.412V87.793zM350.056 87.793h2.383v18.909h11.882v2.202h-14.265V87.793zM373.423 87.793h2.413l7.691 11.52 7.69-11.52h2.413v21.111h-2.382v-17.1l-7.691 11.309h-.119l-7.691-11.28v17.07h-2.323v-21.11zM404.688 98.409v-.061c0-5.822 4.372-10.917 10.796-10.917 6.425 0 10.737 5.036 10.737 10.856v.061c0 5.82-4.372 10.917-10.797 10.917-6.424 0-10.736-5.037-10.736-10.856zm19.06 0v-.061c0-4.796-3.499-8.717-8.324-8.717-4.825 0-8.262 3.86-8.262 8.656v.061c0 4.794 3.497 8.715 8.323 8.715 4.824 0 8.263-3.86 8.263-8.654zM437.882 87.793h2.233l13.3 16.918V87.793h2.321v21.111h-1.899l-13.632-17.311v17.311h-2.323V87.793zM468.333 87.793h7.33c6.635 0 11.218 4.554 11.218 10.495v.061c0 5.941-4.583 10.555-11.218 10.555h-7.33V87.793zm2.383 2.201v16.707h4.946c5.337 0 8.746-3.618 8.746-8.293v-.061c0-4.675-3.409-8.354-8.746-8.354h-4.946zM519.709 89.994h-7.117v-2.202h16.617v2.202h-7.117v18.909h-2.383V89.994zM540.179 87.793h9.078c2.594 0 4.675.784 6.001 2.11 1.026 1.026 1.629 2.504 1.629 4.163v.061c0 3.497-2.413 5.548-5.73 6.152l6.484 8.625h-2.926l-6.122-8.203h-6.031v8.203h-2.383V87.793zm8.867 10.766c3.167 0 5.429-1.629 5.429-4.343v-.061c0-2.594-1.991-4.161-5.4-4.161h-6.513v8.565h6.484zM576.422 87.642h2.231l9.621 21.261h-2.565l-2.473-5.579h-11.489l-2.503 5.579H566.8l9.622-21.261zm5.88 13.541l-4.796-10.766-4.825 10.766h9.621zM599.273 87.793h2.383v21.111h-2.383V87.793zM614.467 87.793h2.233l13.3 16.918V87.793h2.321v21.111h-1.899L616.79 91.592v17.311h-2.323v-21.11z"></path></g><g><path d="M400.386 132.317h6.147c3.707 0 6.147 1.971 6.147 5.21v.046c0 3.543-2.956 5.373-6.451 5.373h-3.99v5.795h-1.853v-16.424zm5.913 8.939c2.722 0 4.505-1.454 4.505-3.613v-.046c0-2.347-1.76-3.568-4.412-3.568h-4.153v7.227h4.06zM421.209 132.317h11.872v1.69h-10.019v5.607h8.964v1.69h-8.964v5.748h10.137v1.69h-11.99v-16.425zM442.079 132.317h7.063c2.017 0 3.636.61 4.668 1.642.798.798 1.266 1.948 1.266 3.239v.047c0 2.72-1.876 4.317-4.457 4.786l5.045 6.71h-2.275l-4.763-6.381h-4.693v6.381h-1.853v-16.424zm6.898 8.377c2.463 0 4.223-1.266 4.223-3.378v-.047c0-2.018-1.549-3.239-4.201-3.239h-5.067v6.664h5.045zM463.934 141.867v-9.549h1.853v9.433c0 3.541 1.878 5.537 5.022 5.537 3.026 0 4.95-1.83 4.95-5.421v-9.549h1.855v9.409c0 4.786-2.746 7.274-6.852 7.274-4.058-.001-6.828-2.489-6.828-7.134z"></path></g></svg>
