<svg width="100%" height="100%" viewBox="0 0 180 123.93" fill="white"><defs><style>.exexcls-1,.exexcls-{fill:#000}.exexcls-1{fill-rule:evenodd}</style></defs><g id="Capa_2" data-name="Capa 2"><g id="g5406"><path id="path5408" d="m77.3 37.13-3.72 3.71.35.35 3.51-3.92a.92.92 0 0 0-.14-.14m.82.73-3.49 3.93.51.42 3.22-4.15a1.59 1.59 0 0 1-.24-.2m26.7-3 4.11 3.14a23.35 23.35 0 0 0 4.47-10.35l-5.18-.74a18.51 18.51 0 0 1-3.4 7.9m-3.41 3.48 3.14 4.15.54-.42-3.43-3.94a2.52 2.52 0 0 0-.25.21m.94-.8 3.42 3.93a6.26 6.26 0 0 0 .53-.5l-3.67-3.68c-.09.08-.19.18-.28.25M76.4 36.21l-4 3.45.51.53 3.73-3.71-.26-.27m26.89.4L107 40.3c.11-.13.24-.23.35-.36l-3.9-3.48-.13.15m.75-.82 3.89 3.45c.14-.16.3-.33.44-.51l-4.12-3.19-.21.25m4.44-11 5.2.38v-.76h-5.23Zm-.15 1.21 5.17.72c0-.23.06-.44.09-.67l-5.21-.38a1.88 1.88 0 0 0 0 .33m-3.85-13.75 4.2-3.15c-.14-.19-.29-.37-.43-.55l-4 3.45a2.19 2.19 0 0 1 .2.25M88.42 5.36 88.13.07l-.69.06.65 5.26h.33M102 9.66l3.5-3.94c-.19-.14-.35-.3-.53-.44l-3.22 4.17a1.32 1.32 0 0 0 .25.21m2.24-4.95A23.46 23.46 0 0 0 93.74.29L93 5.52a18.27 18.27 0 0 1 8 3.36ZM91.23 0h-.75v5.29h.39Zm-1.69 5.29V0H89l.29 5.29a1.65 1.65 0 0 1 .21 0M92.83.16l-.68-.07-.4 5.28h.34Zm15.6 22.21 5.24-.28v-.7l-5.2.66v.32m-32.86 12.9-4.21 3.18.43.52 4-3.45a2.71 2.71 0 0 1-.19-.25m32.7-14.14 5.2-.65a23.54 23.54 0 0 0-4.25-10.62L105.08 13a18.39 18.39 0 0 1 3.23 8.1m-5.51-10.68 3.73-3.72c-.12-.13-.26-.24-.39-.37l-3.49 3.94a.71.71 0 0 1 .15.15m.91.92 4-3.43c-.17-.2-.35-.37-.53-.57l-3.72 3.72.27.28m4.79 12.15h5.22V23l-5.22.32a.31.31 0 0 0 0 .19m-36.93.79H66.3v.5l5.29-.29a.58.58 0 0 1 0-.18m0-1.3-5.29-.43v.74h5.29a2.42 2.42 0 0 1 0-.38m.06 2.39-5.3.31c0 .21 0 .44.07.67l5.24-.66v-.32m0-3.61L66.42 21c0 .22 0 .45-.06.69l5.29.38v-.32m.12 4.84-5.26.65a23.58 23.58 0 0 0 4.32 10.47l4.2-3.18a18.16 18.16 0 0 1-3.26-7.94m4-14.64-4-3.53c-.16.18-.29.35-.43.53l4.19 3.27a3.16 3.16 0 0 1 .2-.27m-.76 1L70.86 9.7a23.52 23.52 0 0 0-4.31 10.41l5.25.74a18.43 18.43 0 0 1 3.26-7.91m3.35-3.53-3.19-4.24c-.18.14-.35.29-.53.42l3.48 4 .24-.2m-.94.81L74 6.21c-.18.16-.36.34-.53.51l3.74 3.76.27-.26m9.71-4.72L86.52.24a23.68 23.68 0 0 0-10.58 4.37l3.19 4.23a18.51 18.51 0 0 1 8.06-3.34m-10.63 5.61-3.75-3.74-.36.38 4 3.51s.08-.08.13-.15" class="excls-1"/></g><g id="g5410"><path id="path5412" d="M74.65 32.45a17.54 17.54 0 0 0 14.75 8.91v-8.85h-3.51v.31h2.42v.79h-3.14v1.34h.72v.35h-.72v.11h.73v.37h-.76v.11h.8v.34h-1.63v-1.96h-.23v2h-2.71v-2h-.26v1.9h-1.54v-.29h.76v-.13h-.75v-.37h.75v-.14h-.73v-.3h.73v-1.39h-3.18v-.79h2.44v-.3Z" class="excls-1"/></g><g id="g5414"><path id="path5416" d="M79.59 32.46h-2.44v-.87h2.44v-.25h-2.43v-.88h2.44v-.32h-2.43v-.84h2.23v-.59h-.58V28h-.72v-.68h-.74v-.62h3.15l.54 2.08h1v-.67h-.87v-1.36h.91v-.49h1.76v2.49h.68l.82-2h2.82v.62h-.73v.67h-.79v.69h-.55v.59h2.28v.79h-2.46v.33h2.45v.85h-2.46v.31h2.44v.83h-2.4 3.51v-8.18l-17.08-.06a17.58 17.58 0 0 0 2.26 8.19Z" class="excls-1"/></g><g id="g5418"><path id="path5420" d="M77.89 16.12a4.39 4.39 0 0 1 .61 1.15 1.14 1.14 0 0 1 .8-.36 1.07 1.07 0 0 1 .64.25A19.86 19.86 0 0 1 81.23 13a9.72 9.72 0 0 1 1.4-2.27c.55-.63 1.09-1.13 1.63-1.15 1 0 1.78 1.08 2.41 2.3a13.69 13.69 0 0 1 1.2 3.42 57.8 57.8 0 0 1 .46 6.59v.21H74.47v-.5a9.83 9.83 0 0 1 1-4.66c.54-.93 1-1.36 1.41-1.42a1.49 1.49 0 0 1 1 .66m-5.5 7.2 17.08.07.07-17.12a17.55 17.55 0 0 0-17.14 16.99m9.14-1.8h6.1a49.25 49.25 0 0 0-.43-5.87h.18-.18a12.6 12.6 0 0 0-1.1-3.16c-.55-1.13-1.32-2-2-2-.25 0-.78.37-1.27 1a8.43 8.43 0 0 0-1.15 2.07 19.69 19.69 0 0 0-1.21 4.14c.41.62.72 1.3 1 3.81m-5.65-4.28a9.43 9.43 0 0 0-.76 4.26h5.78v.08c-.17-2.21-.52-3.15-.9-3.7a.74.74 0 0 0-.59-.37.82.82 0 0 0-.62.35c.11.42.19.89.28 1.47a.19.19 0 0 1-.15.22.25.25 0 0 1-.28-.13 9.24 9.24 0 0 0-.36-1.68 3.66 3.66 0 0 0-.57-1.11c-.37-.48-1-1-1.82.59m26.05 4.45h-.87v-3h-.37v3h-.84v-3h-4.49v3h-.82v-2.95h-.41v3h-.85v-3h-.57v-3.27h.57v-3.08H92v-.68h1.37v-.23H92v-.72h1.42V9.2h.77v1.53h.38V9.21h.84v6.24h5.75v-2.18h.84ZM90.47 6.27l-.06 17.13 17.06.05a17.56 17.56 0 0 0-17-17.18" class="excls-1"/></g><g id="g5422"><path id="path5424" d="M90.56 24.38h6.55v2.18h-6.55Z" class="excls-"/></g><g id="g5426"><path id="path5428" d="M90.54 27.29h2.67v4.45h-2.68Z" class="excls-"/></g><g id="g5430"><path id="path5432" d="M97.11 27.31h-3v7.58h7.12v-6.5H97.1Z" class="excls-"/></g><g id="g5434"><path id="path5436" d="M102.05 28.41h4.53a13.76 13.76 0 0 1-1.14 3.1 25.27 25.27 0 0 1-2.34 3.33H102Z" class="excls-"/></g><g id="g5438"><path id="path5440" d="m95.63 35.77.14 4.28a13.9 13.9 0 0 0 3.78-1.8c2.45-1.65 2.7-2.45 2.7-2.45Z" class="excls-"/></g><g id="g5442"><path id="path5444" d="M93.24 32.6h-2.7v8.61A12.52 12.52 0 0 0 92.4 41a25.76 25.76 0 0 0 2.5-.65l-.12-4.6h-1.55Z" class="excls-"/></g><g id="g5446"><path id="path5448" d="M107.24 25.88c.05-.48.09-1.44.09-1.44h-9.39v3.12h8.92s.29-1.18.39-1.67" class="excls-"/></g><g id="g5450"><path id="path5452" d="m80.05 41.22-.45.68.25.18a.4.4 0 0 0 .62-.1c.14-.22.12-.42-.17-.61Zm18.74.25.55-.41 1.34 1.86 1-.71.26.37-1.55 1.12Zm-.33 3.22-1.17-2.48.64-.31 1.16 2.49Zm-1.83.7-.31-.52-.88.24v.61l-.69.18.14-2.9.83-.23 1.6 2.42Zm-3.69.79a.58.58 0 0 1-.12-.29l-.07-.53c0-.2-.17-.32-.44-.28h-.37l.12 1.16-.68.07-.29-2.74 1.27-.13c.57-.06.93.15 1 .61a.64.64 0 0 1-.51.73c.47 0 .57.21.65.79 0 .27.05.44.19.47ZM90 45.55c0 .71-.56.88-1.12.86s-1.1-.19-1.07-.93l.08-1.9h.68l-.07 1.92c0 .26.07.47.4.48s.41-.19.41-.47l.07-1.9h.69Zm-3.22-1.39a.62.62 0 0 1-.7.53c.44.15.48.38.37.93-.06.29-.07.44 0 .52l-.69-.14a.44.44 0 0 1 0-.3l.11-.52c0-.22-.07-.36-.34-.42l-.36-.08-.24 1.14-.68-.14.53-2.68 1.25.27c.56.12.84.42.75.88m-3-1-1.14-.47-.25.61 1.07.43-.18.42-1.06-.44-.22.7 1.19.49-.18.42-1.83-.74 1-2.57 1.78.73Zm-4.12-.72-.31-.21-.6.91-.58-.38 1.53-2.25 1 .67a.8.8 0 0 1 .3 1.21c-.31.46-.82.44-1.36.07m21-3.6A18.55 18.55 0 0 1 90 42.23a18.3 18.3 0 0 1-10.87-3.61l-3.23 4.16a23.73 23.73 0 0 0 28 .23Zm-8.52 5h-.34l.09.78h.3c.32 0 .49-.18.46-.48s-.21-.35-.51-.32m-6.46-.28-.32-.07-.17.78.28.05c.35.07.54 0 .6-.29s-.07-.4-.39-.47m9.73-.25v1.27l.65-.17-.65-1.1Z" class="excls-"/></g><path d="M45.53 71a.44.44 0 0 1-.33-.13.45.45 0 0 1-.14-.33V58a.48.48 0 0 1 .14-.35.44.44 0 0 1 .33-.13h5.17a6.86 6.86 0 0 1 2.63.47 3.76 3.76 0 0 1 1.73 1.43 4.9 4.9 0 0 1 0 4.77 3.76 3.76 0 0 1-1.73 1.4 6.87 6.87 0 0 1-2.63.41h-2.88v4.52a.48.48 0 0 1-.12.33.45.45 0 0 1-.34.13Zm2.26-7.12h2.81a2.53 2.53 0 0 0 1.72-.53 2 2 0 0 0 .6-1.58 2.17 2.17 0 0 0-.56-1.55 2.34 2.34 0 0 0-1.76-.59h-2.81ZM58.25 71a.44.44 0 0 1-.46-.46V58a.48.48 0 0 1 .13-.35.44.44 0 0 1 .33-.13h8.49a.46.46 0 0 1 .35.13.48.48 0 0 1 .14.35v1.28a.45.45 0 0 1-.14.32.47.47 0 0 1-.35.14h-6.35v3.42h5.93a.51.51 0 0 1 .35.12.45.45 0 0 1 .13.34v1.2a.42.42 0 0 1-.13.33.48.48 0 0 1-.35.13h-5.93v3.53h6.51a.48.48 0 0 1 .35.14.46.46 0 0 1 .13.35v1.27a.44.44 0 0 1-.13.33.48.48 0 0 1-.35.13ZM70.26 71a.44.44 0 0 1-.46-.46V58a.48.48 0 0 1 .13-.35.44.44 0 0 1 .33-.13h5A5.75 5.75 0 0 1 79 58.57a3.8 3.8 0 0 1 1.35 3.15 3.86 3.86 0 0 1-.71 2.37 3.91 3.91 0 0 1-1.88 1.37l2.82 4.93a.42.42 0 0 1 .06.21.37.37 0 0 1-.13.29.41.41 0 0 1-.28.11h-1.8a.69.69 0 0 1-.51-.17 2.06 2.06 0 0 1-.27-.35l-2.49-4.57h-2.68v4.63a.44.44 0 0 1-.13.33.42.42 0 0 1-.35.13Zm2.22-7.28h2.72a2.5 2.5 0 0 0 1.8-.53 1.93 1.93 0 0 0 .58-1.49 2 2 0 0 0-.58-1.52 2.45 2.45 0 0 0-1.77-.55h-2.75ZM88.18 71.2a6.91 6.91 0 0 1-2.92-.57 4.18 4.18 0 0 1-1.91-1.76 6.11 6.11 0 0 1-.68-3V58a.48.48 0 0 1 .14-.35.44.44 0 0 1 .33-.13h1.75a.44.44 0 0 1 .34.13.52.52 0 0 1 .13.35v7.86a3.21 3.21 0 0 0 .75 2.34 2.77 2.77 0 0 0 2.07.77 2.72 2.72 0 0 0 2-.77 3.21 3.21 0 0 0 .82-2.37V58a.45.45 0 0 1 .48-.48h1.72a.42.42 0 0 1 .33.13.48.48 0 0 1 .13.35v7.86a6.11 6.11 0 0 1-.67 3 4.08 4.08 0 0 1-1.89 1.76 6.88 6.88 0 0 1-2.92.58ZM97.29 71a.45.45 0 0 1-.31-.11.41.41 0 0 1-.12-.31V57.93a.45.45 0 0 1 .14-.33.45.45 0 0 1 .31-.11h4.5a5 5 0 0 1 3.23 1 3.54 3.54 0 0 1 1.21 2.94 3.76 3.76 0 0 1-.77 2.47 3.81 3.81 0 0 1-2.15 1.25l3.11 5.29a.49.49 0 0 1 .06.22.37.37 0 0 1-.12.27.37.37 0 0 1-.27.11h-.23a.59.59 0 0 1-.46-.16 1.54 1.54 0 0 1-.27-.36l-3.07-5.19h-4v5.29a.41.41 0 0 1-.12.31.44.44 0 0 1-.32.11Zm.79-6.87h3.61a3.83 3.83 0 0 0 2.5-.69 3 3 0 0 0 0-4.11 3.89 3.89 0 0 0-2.5-.68h-3.61ZM108.25 71a.38.38 0 0 1-.38-.38.6.6 0 0 1 0-.22l4.88-12.53a.79.79 0 0 1 .2-.29.64.64 0 0 1 .36-.09h.69a.64.64 0 0 1 .36.09.79.79 0 0 1 .2.29l4.88 12.53a.6.6 0 0 1 0 .22.38.38 0 0 1-.38.38h-.39a.37.37 0 0 1-.29-.1.7.7 0 0 1-.14-.19l-1.19-3.09h-6.84l-1.19 3.09a.5.5 0 0 1-.13.19.4.4 0 0 1-.3.1Zm2.48-4.53h5.9l-2.95-7.61ZM122.19 71a.42.42 0 0 1-.3-.11.41.41 0 0 1-.12-.31V57.91a.41.41 0 0 1 .12-.31.42.42 0 0 1 .3-.11h.37a.45.45 0 0 1 .31.11.41.41 0 0 1 .12.31v12.67a.41.41 0 0 1-.12.31.45.45 0 0 1-.31.11ZM127 71a.45.45 0 0 1-.31-.11.41.41 0 0 1-.11-.31V57.91a.41.41 0 0 1 .11-.31.45.45 0 0 1 .31-.11h.37a.38.38 0 0 1 .42.42v11.93h6.66a.42.42 0 0 1 .45.45v.29a.41.41 0 0 1-.12.31.49.49 0 0 1-.33.11ZM0 105.67v-1.42l3.08-.25V87.32L0 87.08v-1.42h14.35a6.42 6.42 0 0 1 .11.8q0 .54.06 1.2v3.01h-1.44l-.41-3.14H5.12v6.83h7.61v1.87H5.12v7.61h8.46l.45-3.47h1.48c0 1.46 0 2.64-.06 3.52s-.08 1.48-.12 1.78ZM17.17 105.67v-1.42l2.16-.24 6.48-8.88-5.74-7.81-2.13-.24v-1.42h7.63v1.42l-2.93.21c.73 1 1.36 1.83 1.89 2.53s1 1.3 1.37 1.81.69.92.94 1.27l.68.9c.18-.25.38-.55.61-.89l.87-1.24q.54-.73 1.29-1.8c.5-.71 1.13-1.57 1.88-2.58l-3-.21v-1.42h7.4v1.42l-2.13.24-5.74 7.84 6.55 8.84 2.13.24v1.42h-7.9v-1.42l3.13-.21-2.22-3-1.56-2.11c-.44-.58-.79-1.07-1-1.45s-.5-.71-.7-1c-.18.23-.4.54-.67.93s-.61.87-1 1.46l-1.54 2.13c-.6.83-1.33 1.82-2.18 3l3.2.24v1.42ZM38.65 105.67v-1.42l3.08-.24V87.32l-3.08-.24v-1.42h7.28c.89 0 1.77 0 2.65.08a10.68 10.68 0 0 1 2.27.34 4.84 4.84 0 0 1 2.67 1.7 5.22 5.22 0 0 1 .91 3.22 5.83 5.83 0 0 1-1.08 3.69 5.59 5.59 0 0 1-2.92 1.9 10.86 10.86 0 0 1-2.2.39c-.78.06-1.59.09-2.42.09h-2V104l3.64.24v1.42Zm7.19-10.39c.63 0 1.3 0 2-.09a8.56 8.56 0 0 0 1.8-.32 4.16 4.16 0 0 0 1.87-1.29 3.89 3.89 0 0 0 .74-2.53 3.43 3.43 0 0 0-.52-1.91 3.26 3.26 0 0 0-1.59-1.2 8 8 0 0 0-1.67-.35 17.52 17.52 0 0 0-2.11-.12h-2.59v7.81ZM57.21 105.67v-1.42l3.08-.24V87.32l-3.08-.24v-1.42h14.35a6.42 6.42 0 0 1 .11.8v4.21h-1.38l-.41-3.14h-7.55v6.83h7.6v1.87h-7.6v7.61h8.46l.45-3.47h1.48c0 1.46 0 2.64-.06 3.52s-.08 1.48-.12 1.78ZM75.32 104.25l3.08-.25V87.32l-3.08-.24v-1.42h6.78a36.89 36.89 0 0 1 3.76.18 13.47 13.47 0 0 1 2.78.53 9.58 9.58 0 0 1 2.22 1.1 6.58 6.58 0 0 1 1.73 1.72 7.91 7.91 0 0 1 1.12 2.47 12.51 12.51 0 0 1 .4 3.39 16.67 16.67 0 0 1-.32 3.41 9.48 9.48 0 0 1-1 2.84 7.44 7.44 0 0 1-1.85 2.18 8.61 8.61 0 0 1-2.76 1.45 14.26 14.26 0 0 1-3.36.62q-1.77.12-3.39.12h-6.11Zm6.93-.41a19 19 0 0 0 2.75-.2 16.68 16.68 0 0 0 2.16-.43 5.83 5.83 0 0 0 3.68-2.9 11.22 11.22 0 0 0 1.08-5.18 8.94 8.94 0 0 0-.8-4 5.93 5.93 0 0 0-2.45-2.61 8.24 8.24 0 0 0-2.49-.77 21.57 21.57 0 0 0-3.46-.26h-2.28v16.31ZM97 105.67v-1.42l3.08-.24V87.32L97 87.08v-1.42h8.23v1.42l-3.08.24V104l3.08.24v1.42ZM112.05 105.67v-1.42l3.14-.24V87.53h-5.6l-.53 3.55h-1.39v-3.45c0-.45 0-.78.05-1.1s0-.61.09-.89h16.78a12.53 12.53 0 0 1 .14 2v3.4h-1.33l-.53-3.55h-5.67V104l3.14.24v1.42ZM127.08 105.67v-1.42l3.08-.24V87.32l-3.08-.24v-1.42h8.23v1.42l-3.08.24V104l3.08.24v1.42ZM156.29 95.08a15.93 15.93 0 0 1-.62 4.66 9.6 9.6 0 0 1-1.8 3.47 7.62 7.62 0 0 1-2.89 2.16 9.38 9.38 0 0 1-3.83.74 9.5 9.5 0 0 1-3.8-.71 7.72 7.72 0 0 1-2.83-2 8.91 8.91 0 0 1-1.75-3.18 14.09 14.09 0 0 1-.59-4.21c0-3.51.81-6.18 2.41-8a8.69 8.69 0 0 1 6.88-2.75q4.32 0 6.57 2.5t2.25 7.32Zm-2.19.47a15.39 15.39 0 0 0-.34-3.35 7.47 7.47 0 0 0-1.12-2.67 5.26 5.26 0 0 0-2.09-1.78 7.44 7.44 0 0 0-3.25-.64 6.25 6.25 0 0 0-5.15 2.22 9.56 9.56 0 0 0-1.81 6.22 12.74 12.74 0 0 0 .52 3.88 7.43 7.43 0 0 0 1.44 2.69 5.58 5.58 0 0 0 2.19 1.57 7.64 7.64 0 0 0 2.81.5 6.08 6.08 0 0 0 4.95-2.23c1.24-1.49 1.85-3.63 1.85-6.41ZM159.16 105.67v-1.42l3.08-.24V87.32l-3.08-.24v-1.42h5.57l3.51 5.34c1 1.49 1.81 2.76 2.5 3.83s1.26 2 1.71 2.66.84 1.33 1.16 1.85.58 1 .81 1.41l.7 1.27c0-.79 0-1.61-.05-2.47s0-1.85 0-3v-9.23l-3-.21v-1.45H180v1.42l-2.93.24v18.35h-2.19c-1.26-2-2.37-3.75-3.31-5.27l-2.49-4c-.71-1.13-1.32-2.1-1.84-2.91l-1.33-2.12-1-1.55c-.27-.44-.52-.85-.75-1.25V104l3.08.24v1.42ZM45.85 123.76v-.55l1.13-.08.18-6.5-1.16-.08V116h2.39l1 2.23.65 1.48c.16.4.3.72.4 1s.18.48.26.69l.28-.74c.11-.26.24-.6.41-1l.63-1.47c.24-.58.56-1.3.94-2.16h2.34v.55l-1.17.08.21 6.5 1.12.08v.55h-3.17v-.55l1.21-.08c0-.72 0-1.34-.06-1.88s0-1 0-1.41v-3.02l-.27.69c-.1.26-.24.6-.41 1s-.39 1-.66 1.58l-1 2.41h-.61l-.78-1.78-.71-1.39c-.16-.38-.3-.7-.42-1l-.29-.68-.21-.51c-.06-.14-.11-.28-.16-.41v6.32l1.22.08v.55ZM55.84 123.76v-.55l.86-.1 2.69-7.11h.91l2.7 7.11.85.1v.55h-3v-.55l1.28-.1-.75-2H58.3l-.76 2 1.3.1v.55Zm5.28-3.32c-.23-.62-.42-1.13-.57-1.52l-.35-1c-.08-.25-.16-.46-.21-.62l-.15-.45q-.06.21-.15.45c0 .16-.13.37-.22.62l-.37 1-.57 1.51ZM69.42 123.58a3.86 3.86 0 0 1-1.69.35 3.34 3.34 0 0 1-1.32-.26 2.93 2.93 0 0 1-1.06-.75 3.69 3.69 0 0 1-.71-1.21 4.71 4.71 0 0 1-.25-1.6 6 6 0 0 1 .25-1.82 3.55 3.55 0 0 1 .74-1.34 3.18 3.18 0 0 1 1.19-.84 4.14 4.14 0 0 1 1.59-.28 9 9 0 0 1 1.26.08c.36.06.66.12.92.18a1.2 1.2 0 0 1 0 .23V118.04h-.6l-.16-1.32a5.06 5.06 0 0 0-.65-.12 7 7 0 0 0-.87 0 3.1 3.1 0 0 0-1.1.19 2.58 2.58 0 0 0-.92.62 3.14 3.14 0 0 0-.63 1.08 4.54 4.54 0 0 0-.25 1.61 4.05 4.05 0 0 0 .2 1.31 3 3 0 0 0 .57 1 2.52 2.52 0 0 0 .84.61 2.61 2.61 0 0 0 1.06.21 3.23 3.23 0 0 0 1.29-.25 4.07 4.07 0 0 0 1.16-.76l.38.53a5 5 0 0 1-1.24.83ZM71.52 123.76v-.55l1.2-.1v-6.47l-1.2-.09V116h3.14v.55l-1.15.09v2.73h4.1v-2.73l-1.16-.09V116h3.14v.55l-1.2.09v6.47l1.2.1v.55h-3.14v-.55l1.16-.1v-3h-4.1v3l1.15.1v.55ZM87.12 120.58a8.8 8.8 0 0 1-.07 1.28 2.57 2.57 0 0 1-.29.86 2 2 0 0 1-.92.86 3.44 3.44 0 0 1-1.61.33 4 4 0 0 1-1.62-.31 1.85 1.85 0 0 1-1-1 3 3 0 0 1-.21-.91v-5.12l-1.07-.08V116h3.07v.56l-1.22.07v3.82a10.24 10.24 0 0 0 0 1 2.42 2.42 0 0 0 .13.69 1.5 1.5 0 0 0 .65.72 2.51 2.51 0 0 0 1.28.27 1.88 1.88 0 0 0 1.85-.87 4.42 4.42 0 0 0 .25-1.79v-3.88l-1.17-.08V116h3v.57l-1.1.06ZM91.56 123.76v-.55l1.19-.1v-6.47l-1.19-.09V116h3.82a4.2 4.2 0 0 1 .88.13 1.92 1.92 0 0 1 1 .66 2.07 2.07 0 0 1 .35 1.26 2.22 2.22 0 0 1-.42 1.42 2.18 2.18 0 0 1-1.13.75 4.68 4.68 0 0 1-.86.14H93.48v2.68l1.41.1v.55Zm2.79-4a7 7 0 0 0 .77 0 3.28 3.28 0 0 0 .7-.12 1.59 1.59 0 0 0 .72-.5 1.51 1.51 0 0 0 .29-1 1.34 1.34 0 0 0-.2-.74 1.26 1.26 0 0 0-.62-.47 3.8 3.8 0 0 0-.65-.14 6.93 6.93 0 0 0-.82 0h-1v3ZM98.76 123.76v-.55l1.19-.1v-6.47l-1.19-.09V116H102v.55l-1.2.09v6.47l1.2.1v.55ZM108.09 123.58a3.86 3.86 0 0 1-1.69.35 3.34 3.34 0 0 1-1.32-.26 2.93 2.93 0 0 1-1.06-.75 3.5 3.5 0 0 1-.7-1.21 4.71 4.71 0 0 1-.26-1.6 6 6 0 0 1 .25-1.82 3.69 3.69 0 0 1 .74-1.34 3.26 3.26 0 0 1 1.19-.84 4.21 4.21 0 0 1 1.59-.28 9.15 9.15 0 0 1 1.27.08l.92.18V118h-.59l-.16-1.32a5.4 5.4 0 0 0-.65-.12 7.23 7.23 0 0 0-.88 0 3.14 3.14 0 0 0-1.1.19 2.58 2.58 0 0 0-.92.62 3.14 3.14 0 0 0-.63 1.08 4.79 4.79 0 0 0-.24 1.61 3.8 3.8 0 0 0 .2 1.31 2.81 2.81 0 0 0 .56 1 2.52 2.52 0 0 0 .84.61 2.64 2.64 0 0 0 1.06.21 3.27 3.27 0 0 0 1.3-.25 4.36 4.36 0 0 0 1.16-.76l.37.53a5 5 0 0 1-1.25.87ZM115.34 123.58a3.83 3.83 0 0 1-1.69.35 3.41 3.41 0 0 1-1.32-.26 2.9 2.9 0 0 1-1-.75 3.52 3.52 0 0 1-.71-1.21 4.71 4.71 0 0 1-.26-1.6 6.3 6.3 0 0 1 .25-1.82 3.69 3.69 0 0 1 .74-1.34 3.35 3.35 0 0 1 1.19-.84 4.23 4.23 0 0 1 1.6-.28 9 9 0 0 1 1.26.08l.92.18v.23a3.26 3.26 0 0 1 0 .37v1.35h-.6l-.16-1.32a5.06 5.06 0 0 0-.65-.12 7.1 7.1 0 0 0-.88 0 3 3 0 0 0-1.09.19 2.5 2.5 0 0 0-.92.62 3 3 0 0 0-.64 1.08 4.79 4.79 0 0 0-.24 1.61 4.05 4.05 0 0 0 .2 1.31 2.81 2.81 0 0 0 .56 1 2.56 2.56 0 0 0 .85.61 2.59 2.59 0 0 0 1 .21 3.27 3.27 0 0 0 1.3-.25 4.21 4.21 0 0 0 1.16-.76l.38.53a5.06 5.06 0 0 1-1.25.83ZM117.45 123.76v-.55l1.19-.1v-6.47l-1.19-.09V116h3.13v.55l-1.14.09v2.73h4.09v-2.73l-1.16-.09V116h3.15v.55l-1.21.09v6.47l1.21.1v.55h-3.15v-.55l1.16-.1v-3h-4.09v3l1.14.1v.55ZM133.05 120.58a8.59 8.59 0 0 1-.08 1.28 2.56 2.56 0 0 1-.28.86 2.14 2.14 0 0 1-.92.86 3.48 3.48 0 0 1-1.62.33 4 4 0 0 1-1.61-.31 1.85 1.85 0 0 1-1-1 2.49 2.49 0 0 1-.21-.91v-5.12l-1.07-.08V116h3.06v.56l-1.21.07v4.82a2.39 2.39 0 0 0 .14.69 1.48 1.48 0 0 0 .64.72 2.58 2.58 0 0 0 1.29.27 1.86 1.86 0 0 0 1.84-.87 4.38 4.38 0 0 0 .26-1.79v-3.88l-1.17-.08V116h3v.57l-1.1.06Z" class="excls-"/></g></svg>
