<svg xmlns="http://www.w3.org/2000/svg" viewBox="0 0 718 150" fill="white" id="logo-hbi" class="logo-single-svg"><title>Hiram Bingham</title><path d="M.652 2.005h12.897v23.196H37.33V2.005h12.897v58.619H37.33V37.093H13.548v23.531H.652V2.005zM64.877 2.005h12.897v58.619H64.877V2.005zM92.426 2.005h26.797c7.453 0 13.231 2.093 17.083 5.945 3.266 3.266 5.024 7.872 5.024 13.399v.168c0 9.463-5.108 15.409-12.561 18.172l14.32 20.936h-15.073l-12.561-18.758h-10.133v18.758H92.426V2.005zm25.96 28.472c6.281 0 9.882-3.349 9.882-8.29v-.168c0-5.527-3.852-8.374-10.133-8.374h-12.812v16.832h13.063zM173.065 1.586h11.891l25.123 59.037h-13.482l-5.359-13.148H166.45l-5.359 13.148h-13.148l25.122-59.037zm13.566 34.502l-7.787-19.009-7.788 19.009h15.575zM219.118 2.005h13.902l15.408 24.787 15.409-24.787h13.902v58.619h-12.813v-38.27l-16.497 25.039h-.334l-16.33-24.787v38.018H219.12V2.005zM316.92 2.005h27.216c6.699 0 11.975 1.842 15.324 5.192 2.681 2.68 4.02 5.946 4.02 9.965v.168c0 6.616-3.518 10.3-7.705 12.645 6.784 2.596 10.971 6.532 10.971 14.404v.168c0 10.719-8.709 16.078-21.94 16.078H316.92V2.005zm33.748 17.334c0-3.852-3.014-6.03-8.459-6.03h-12.727v12.394h11.89c5.695 0 9.296-1.842 9.296-6.197v-.167zm-6.28 17.084h-14.906v12.896h15.324c5.695 0 9.128-2.01 9.128-6.364v-.168c0-3.936-2.931-6.364-9.546-6.364zM376.288 2.005h12.897v58.619h-12.897V2.005zM403.837 2.005h11.892l27.468 36.093V2.005h12.727v58.619h-10.969l-28.389-37.265v37.265h-12.729V2.005zM465.719 31.482v-.168C465.719 14.65 478.698 1 496.451 1c10.552 0 16.916 2.847 23.029 8.039l-8.123 9.797c-4.522-3.768-8.54-5.946-15.324-5.946-9.378 0-16.832 8.291-16.832 18.256v.168c0 10.719 7.369 18.59 17.755 18.59 4.689 0 8.876-1.173 12.142-3.517v-8.374h-12.981V26.876h25.458v25.458c-6.028 5.108-14.319 9.295-25.038 9.295-18.258 0-30.818-12.813-30.818-30.147zM532.288 2.005h12.896v23.196h23.783V2.005h12.896v58.619h-12.896V37.093h-23.783v23.531h-12.896V2.005zM614.351 1.586h11.892l25.123 59.037h-13.483l-5.359-13.148h-24.787l-5.359 13.148H589.23l25.121-59.037zm13.566 34.502l-7.788-19.009-7.788 19.009h15.576zM658.73 2.005h13.902l15.408 24.787 15.409-24.787h13.9v58.619h-12.812v-38.27L688.04 47.393h-.335l-16.329-24.787v38.018H658.73V2.005z"></path><g><path d="M175.329 87.629h2.231l9.62 21.258h-2.564l-2.471-5.579h-11.489l-2.504 5.579h-2.442l9.619-21.258zm5.879 13.538l-4.795-10.765-4.825 10.765h9.62zM213.64 87.779h8.987c2.412 0 4.311.693 5.518 1.869.873.904 1.356 2.02 1.356 3.377v.061c0 2.744-1.688 4.161-3.346 4.885 2.502.754 4.524 2.201 4.524 5.096v.059c0 3.619-3.047 5.76-7.661 5.76h-9.378V87.779zm13.448 5.579c0-2.08-1.658-3.438-4.673-3.438h-6.424v7.266h6.243c2.865 0 4.854-1.297 4.854-3.768v-.06zm-4.432 5.94h-6.665v7.448h7.087c3.197 0 5.186-1.418 5.186-3.77v-.061c0-2.291-1.93-3.617-5.608-3.617zM243.242 87.779h15.259v2.17h-12.876v7.208h11.519v2.17h-11.519v7.389h13.027v2.17h-15.409V87.779zM270.07 87.779h2.383v18.906h11.88v2.201H270.07V87.779zM293.433 87.779h2.412l7.69 11.519 7.688-11.519h2.412v21.107h-2.381V91.789l-7.69 11.308h-.119l-7.69-11.278v17.068h-2.322V87.779zM324.693 98.393v-.061c0-5.821 4.372-10.915 10.794-10.915 6.424 0 10.735 5.036 10.735 10.855v.061c0 5.819-4.372 10.915-10.796 10.915-6.421 0-10.733-5.036-10.733-10.855zm19.057 0v-.061c0-4.795-3.498-8.715-8.323-8.715s-8.261 3.86-8.261 8.655v.061c0 4.794 3.497 8.714 8.321 8.714 4.825 0 8.263-3.86 8.263-8.654zM357.882 87.779h2.232l13.298 16.916V87.779h2.321v21.107h-1.899l-13.63-17.308v17.308h-2.322V87.779zM388.328 87.779h7.329c6.633 0 11.216 4.553 11.216 10.493v.061c0 5.94-4.583 10.554-11.216 10.554h-7.329V87.779zm2.383 2.202v16.705h4.946c5.337 0 8.745-3.618 8.745-8.292v-.061c0-4.674-3.408-8.352-8.745-8.352h-4.946zM439.697 89.981h-7.116V87.78h16.615v2.201h-7.116v18.906h-2.383V89.981zM460.163 87.779h9.077c2.594 0 4.674.783 6.001 2.11 1.025 1.025 1.629 2.504 1.629 4.162v.061c0 3.497-2.412 5.548-5.729 6.151l6.483 8.624h-2.926l-6.122-8.202h-6.03v8.202h-2.383V87.779zm8.866 10.765c3.166 0 5.428-1.629 5.428-4.342v-.061c0-2.594-1.99-4.161-5.399-4.161h-6.512v8.563h6.483zM496.4 87.629h2.231l9.62 21.258h-2.564l-2.473-5.579h-11.488l-2.502 5.579h-2.443l9.619-21.258zm5.88 13.538l-4.795-10.765-4.825 10.765h9.62zM519.248 87.779h2.383v21.107h-2.383V87.779zM534.44 87.779h2.232l13.298 16.916V87.779h2.321v21.107h-1.899l-13.63-17.308v17.308h-2.322V87.779z"></path></g><g><path d="M237.628 132.297h1.878l5.981 8.962 5.983-8.962h1.876v16.422h-1.853v-13.301l-5.981 8.797h-.095l-5.981-8.774v13.278h-1.807v-16.422zM269.214 132.181h1.737l7.482 16.538h-1.994l-1.923-4.341h-8.938l-1.948 4.341h-1.9l7.484-16.538zm4.574 10.532l-3.73-8.375-3.753 8.375h7.483zM285.129 140.554v-.046c0-4.645 3.472-8.493 8.305-8.493 2.98 0 4.763 1.057 6.405 2.604l-1.267 1.361c-1.384-1.313-2.932-2.252-5.16-2.252-3.637 0-6.357 2.957-6.357 6.733v.047c0 3.799 2.744 6.779 6.357 6.779 2.252 0 3.729-.868 5.301-2.37l1.22 1.197c-1.712 1.735-3.588 2.885-6.568 2.885-4.74.001-8.236-3.73-8.236-8.445zM308.411 132.297h1.853v7.296h9.478v-7.296h1.853v16.422h-1.853v-7.389h-9.478v7.389h-1.853v-16.422zM331.13 141.845v-9.548h1.853v9.432c0 3.541 1.878 5.536 5.021 5.536 3.026 0 4.951-1.83 4.951-5.42v-9.548h1.853v9.407c0 4.785-2.746 7.273-6.851 7.273-4.058 0-6.827-2.487-6.827-7.132zM366.535 132.297h6.146c3.706 0 6.146 1.971 6.146 5.209v.046c0 3.542-2.955 5.373-6.45 5.373h-3.989v5.794h-1.853v-16.422zm5.912 8.938c2.721 0 4.504-1.454 4.504-3.613v-.046c0-2.347-1.76-3.567-4.411-3.567h-4.152v7.226h4.059zM387.518 132.297h1.855v16.422h-1.855v-16.422zM398.608 140.554v-.046c0-4.645 3.472-8.493 8.305-8.493 2.98 0 4.762 1.057 6.405 2.604l-1.267 1.361c-1.384-1.313-2.932-2.252-5.16-2.252-3.637 0-6.357 2.957-6.357 6.733v.047c0 3.799 2.744 6.779 6.357 6.779 2.252 0 3.729-.868 5.301-2.37l1.22 1.197c-1.712 1.735-3.588 2.885-6.568 2.885-4.739.001-8.236-3.73-8.236-8.445zM420.693 140.554v-.046c0-4.645 3.472-8.493 8.305-8.493 2.98 0 4.763 1.057 6.405 2.604l-1.267 1.361c-1.384-1.313-2.932-2.252-5.16-2.252-3.637 0-6.357 2.957-6.357 6.733v.047c0 3.799 2.744 6.779 6.357 6.779 2.252 0 3.729-.868 5.301-2.37l1.22 1.197c-1.712 1.735-3.588 2.885-6.568 2.885-4.739.001-8.236-3.73-8.236-8.445zM443.976 132.297h1.853v7.296h9.478v-7.296h1.853v16.422h-1.853v-7.389h-9.478v7.389h-1.853v-16.422zM466.694 141.845v-9.548h1.853v9.432c0 3.541 1.878 5.536 5.021 5.536 3.026 0 4.951-1.83 4.951-5.42v-9.548h1.853v9.407c0 4.785-2.746 7.273-6.851 7.273-4.058 0-6.827-2.487-6.827-7.132z"></path></g></svg>
