<svg width="100%" height="100%" viewBox="0 0 400 107" fill="white"  xmlns="http://www.w3.org/2000/svg">
<g clip-path="url(#clip0_50_6459)">
<path d="M134.223 61.8696L136.393 61.4867L136.283 60.2285H127.586L122.644 78.6636L122.772 76.986L117.21 60.2285H107.874L107.765 61.4867L109.862 61.8696L108.567 82.584L106.488 82.9487L106.579 84.2616H112.633L112.67 82.9487L110.463 82.584L111.758 62.2525L112.378 64.4042L118.724 84.371H122.261L128.388 62.6537L128.133 64.7507L129.263 82.584L127.203 82.9487L127.294 84.2616H137.542L137.633 82.9487L135.481 82.584L134.223 61.8696Z"  />
<path d="M147.645 80.8334L147.244 81.1069C147.033 81.2371 146.814 81.3529 146.587 81.4534C146.34 81.5617 146.073 81.6176 145.803 81.6175C145.579 81.6066 145.36 81.5411 145.166 81.4268C144.972 81.3124 144.809 81.1526 144.691 80.961C144.304 80.3876 144.124 79.6994 144.18 79.0099C144.179 78.4649 144.265 77.9231 144.436 77.4053C144.589 76.9326 144.858 76.5062 145.22 76.1654L147.645 75.2354V80.8334ZM154.082 81.9275C153.938 81.5328 153.84 81.1228 153.79 80.7057C153.72 80.2167 153.689 79.7227 153.699 79.2287V72.2085C153.727 71.3486 153.578 70.4922 153.261 69.6921C152.999 69.0499 152.548 68.5028 151.967 68.1239C151.284 67.7017 150.519 67.4283 149.724 67.3216C148.649 67.1634 147.564 67.0903 146.478 67.1028L138.819 70.0568V73.5578H144.144L144.673 69.1816C144.89 69.0786 145.116 68.9933 145.347 68.9263C145.59 68.8965 145.835 68.8965 146.077 68.9263C146.299 68.9052 146.523 68.9353 146.732 69.0143C146.94 69.0933 147.128 69.2192 147.28 69.3821C147.58 69.9403 147.707 70.575 147.645 71.2056V74.0866L140.005 76.3477C139.419 76.7869 138.949 77.3629 138.637 78.0253C138.332 78.6947 138.176 79.4229 138.181 80.1587C138.163 80.8333 138.307 81.5024 138.601 82.1098C138.889 82.6529 139.279 83.1357 139.749 83.5321C140.265 83.9258 140.845 84.228 141.463 84.4256C142.156 84.6317 142.875 84.7361 143.597 84.7356L147.864 81.8728L148.885 84.6626L155.796 83.2404L155.595 81.9457L154.082 81.9275Z"  />
<path d="M169.109 80.3228C168.521 80.5165 167.905 80.609 167.286 80.5963C166.534 80.6046 165.791 80.436 165.116 80.104C164.464 79.767 163.892 79.2945 163.438 78.7182C162.947 78.097 162.57 77.393 162.326 76.6394C162.064 75.7955 161.934 74.9157 161.943 74.0319C161.927 73.2411 162.007 72.4514 162.18 71.6797C162.305 71.1225 162.514 70.5876 162.8 70.0933C163.001 69.7255 163.289 69.4125 163.639 69.1815C163.907 68.9948 164.224 68.8931 164.551 68.8898C164.783 68.8972 165.01 68.9665 165.207 69.0904L166.101 73.6308H170.933V68.981C170.183 68.4117 169.345 67.9683 168.453 67.6681C167.46 67.3352 166.419 67.1689 165.371 67.1757C164.16 67.4645 162.981 67.8738 161.852 68.3974C160.782 68.8942 159.802 69.5659 158.953 70.385C158.132 71.1664 157.464 72.094 156.983 73.1202C156.484 74.2695 156.241 75.5142 156.272 76.7671C156.26 77.9049 156.477 79.0336 156.91 80.0858C157.326 81.0589 157.948 81.93 158.734 82.6386C159.509 83.3635 160.42 83.9275 161.414 84.2979C162.5 84.6953 163.649 84.893 164.806 84.8814C165.517 84.6079 166.155 84.3162 166.739 84.0426C167.322 83.7691 167.851 83.4409 168.362 83.1127C168.879 82.781 169.378 82.4219 169.857 82.0369C170.331 81.6722 170.823 81.2345 171.334 80.7604L170.677 79.6846C170.205 79.9893 169.697 80.2343 169.164 80.414"  />
<path d="M189.91 72.2452C189.938 71.3917 189.846 70.5385 189.636 69.7106C189.493 69.1595 189.204 68.657 188.8 68.256C188.396 67.8549 187.891 67.5701 187.339 67.4313C186.589 67.2352 185.815 67.1492 185.041 67.176L179.407 70.677V59.7363H177.857L171.748 60.6481L171.876 61.9974H173.571V82.6571L171.912 83.04L172.022 84.3347H180.464L180.574 83.04L179.407 82.6571V72.2817L180.081 71.844C180.482 71.5887 180.865 71.3699 181.248 71.1693C181.622 70.9808 182.033 70.8809 182.452 70.8776C183.4 70.8776 183.874 71.4246 183.874 72.5369V82.6571L182.707 83.04L182.798 84.3347H191.532L191.624 83.04L189.91 82.6571V72.2452Z"  />
<path d="M209.97 82.1647C209.842 81.8076 209.738 81.442 209.66 81.0706C209.593 80.5568 209.563 80.0388 209.569 79.5207V67.5042H207.745L202.111 68.6894L202.22 70.0205L203.77 69.8746V80.013L203.187 80.3595C202.892 80.5403 202.588 80.7046 202.275 80.8518C201.999 80.9732 201.701 81.0353 201.4 81.0341C200.269 81.0341 199.704 80.4142 199.704 79.2107V67.5589H197.881L192.027 68.7623V70.0752L193.559 69.8929V79.6848C193.537 80.5491 193.623 81.4127 193.814 82.2558C193.964 82.847 194.296 83.3763 194.763 83.7693C195.888 84.5769 197.268 84.9465 198.646 84.8087L203.862 81.4353L204.682 84.6628L211.283 83.4776L211.174 82.1829L209.97 82.1647Z"  />
<path d="M224.795 70.7864C224.524 71.223 224.149 71.5851 223.703 71.8399C223.258 72.0946 222.755 72.234 222.242 72.2452H220.692V61.7786L222.242 61.5051C222.755 61.5108 223.259 61.6416 223.71 61.8863C224.162 62.131 224.546 62.4821 224.831 62.9091C225.584 64.0327 225.955 65.3691 225.889 66.7201C225.976 68.1585 225.592 69.5862 224.795 70.7864ZM232.088 63.6385C231.702 62.92 231.16 62.297 230.502 61.815C229.809 61.2952 229.023 60.9116 228.186 60.6845C227.273 60.4248 226.328 60.2959 225.378 60.3016H212.377L212.268 61.578L214.365 61.9609V82.6571L212.268 83.04L212.377 84.3529H223.609V83.04L220.692 82.6571V72.8469L221.786 73.941H223.099C224.339 73.5945 225.524 73.2298 226.746 72.8287C227.814 72.4703 228.836 71.9868 229.791 71.3881C230.616 70.8569 231.324 70.1618 231.87 69.3459C232.422 68.4749 232.701 67.4591 232.672 66.4284C232.691 65.4897 232.492 64.5594 232.088 63.7114"  />
<path d="M272.586 80.3229C271.998 80.5166 271.381 80.6091 270.763 80.5964C270.005 80.6062 269.255 80.4376 268.574 80.1041C267.928 79.7592 267.358 79.2879 266.897 78.7183C266.404 78.1004 266.033 77.3952 265.803 76.6395C265.525 75.7986 265.39 74.9174 265.402 74.032C265.395 73.2417 265.475 72.453 265.639 71.6798C265.764 71.1226 265.973 70.5877 266.259 70.0934C266.46 69.7256 266.748 69.4126 267.097 69.1816C267.367 68.9979 267.683 68.8965 268.009 68.8899C268.243 68.8916 268.471 68.9613 268.666 69.0904L269.559 73.6308H274.409V68.981C273.653 68.4117 272.809 67.9684 271.911 67.6682C270.919 67.3323 269.877 67.1659 268.83 67.1758C267.62 67.4675 266.441 67.8767 265.31 68.3975C264.245 68.9033 263.267 69.5741 262.411 70.3851C261.592 71.1635 260.929 72.092 260.46 73.1203C259.954 74.2682 259.705 75.5129 259.731 76.7672C259.74 77.4101 259.808 78.0508 259.931 78.6818C258.933 79.4275 257.842 80.0404 256.685 80.5053C256.058 80.685 255.405 80.765 254.753 80.7423C254.001 80.7526 253.257 80.5839 252.583 80.25C251.931 79.913 251.359 79.4405 250.905 78.8641C250.414 78.2429 250.037 77.539 249.793 76.7854C249.53 75.9414 249.401 75.0617 249.41 74.1779C249.394 73.3871 249.474 72.5973 249.647 71.8256C249.772 71.2685 249.981 70.7336 250.267 70.2392C250.462 69.8673 250.751 69.553 251.106 69.3275C251.373 69.1408 251.691 69.0391 252.017 69.0357C252.245 69.0409 252.466 69.1105 252.656 69.2363L253.549 73.7767H258.4V68.981C257.645 68.4081 256.801 67.9644 255.901 67.6682C254.915 67.3337 253.88 67.1672 252.838 67.1758C251.627 67.4646 250.448 67.8739 249.319 68.3975C248.249 68.8943 247.269 69.566 246.419 70.3851C245.599 71.1665 244.931 72.0941 244.45 73.1203C243.95 74.2696 243.708 75.5143 243.739 76.7672C243.718 77.9058 243.935 79.0362 244.377 80.0858C244.793 81.059 245.415 81.9301 246.201 82.6387C246.976 83.3636 247.887 83.9276 248.881 84.298C249.967 84.6954 251.116 84.8931 252.273 84.8815C252.984 84.608 253.622 84.3162 254.187 84.0427C254.751 83.7624 255.299 83.452 255.828 83.1128C256.339 82.7846 256.904 82.4199 257.397 82.037C258.801 80.9794 260.314 79.7759 260.314 79.7759C260.342 79.8819 260.379 79.9855 260.424 80.0858C260.844 81.0565 261.465 81.9267 262.247 82.6387C263.028 83.3559 263.937 83.9189 264.927 84.298C266.02 84.6937 267.175 84.8913 268.337 84.8815C269.03 84.608 269.687 84.3162 270.252 84.0427C270.817 83.7692 271.364 83.441 271.893 83.1128C272.404 82.781 272.897 82.4218 273.37 82.037C273.889 81.6432 274.382 81.2169 274.847 80.7605L274.209 79.6847C273.734 79.9853 273.226 80.2301 272.695 80.4141"  />
<path d="M293.519 72.2452C293.547 71.3917 293.455 70.5385 293.245 69.7106C293.102 69.1595 292.813 68.657 292.409 68.256C292.005 67.8549 291.5 67.5701 290.948 67.4313C290.199 67.2329 289.425 67.1468 288.65 67.176L283.016 70.677V59.7363H281.466L275.357 60.6481L275.503 61.9974H277.181V82.6571L275.54 83.04V84.3347H284.001V83.04L282.834 82.6571V72.2817L283.526 71.844C283.897 71.5989 284.281 71.3737 284.675 71.1693C285.055 70.9811 285.473 70.8814 285.897 70.8776C286.827 70.8776 287.301 71.4246 287.301 72.5369V82.6571L286.134 83.04V84.3347H294.868L294.978 83.04L293.154 82.6571L293.519 72.2452Z"  />
<path d="M314.764 82.1647H313.488C313.359 81.8076 313.256 81.442 313.178 81.0706C313.141 80.5546 313.141 80.0367 313.178 79.5207V67.5042H311.354L305.72 68.6894L305.829 70.0205L307.379 69.8746V80.013L306.777 80.3595C306.491 80.5437 306.193 80.7082 305.884 80.8518C305.608 80.9732 305.31 81.0353 305.009 81.0341C303.878 81.0341 303.313 80.4142 303.313 79.2107V67.5589H301.489L295.654 68.7623V70.0752L297.204 69.9293V79.7213C297.183 80.5855 297.268 81.4492 297.459 82.2923C297.61 82.8835 297.941 83.4128 298.408 83.8058C299.533 84.6134 300.914 84.983 302.292 84.8451L307.507 81.4718L308.327 84.6993L314.928 83.514L314.764 82.1647Z"  />
<path d="M238.368 58.8155L234.861 62.3226L238.368 65.8297L241.876 62.3226L238.368 58.8155Z"  />
<path d="M241.134 67.4677H239.584L233.494 68.58L233.64 69.9475L235.281 69.8017V82.584L233.64 82.9487L233.713 84.2616H242.703L242.775 82.9487L241.134 82.584V67.4677Z"  />
<path d="M156.377 93.616H144.105V96.3694H148.609V107H151.873V96.3694H156.377V93.616Z"  />
<path d="M177.659 96.3327H180.285C181.962 96.3327 182.309 97.2627 182.309 98.0468C182.309 98.8308 181.962 99.779 180.285 99.779H177.659V96.3327ZM183.129 107H186.776L183.64 102.077V101.821L184.005 101.657C184.451 101.38 184.841 101.021 185.153 100.6C185.689 99.8315 185.958 98.9092 185.919 97.9738C185.974 97.367 185.889 96.7557 185.671 96.1868C185.453 95.6179 185.107 95.1065 184.661 94.6916C183.41 93.8727 181.92 93.5 180.431 93.634H174.541V107H177.805V102.478H180.376L183.129 107Z"  />
<path d="M245.294 96.2053V93.616H235.611V96.2053H238.821V104.429H235.611V107H245.294V104.429H242.085V96.2053H245.294Z"  />
<path d="M268.246 98.4297L271.656 107H277.236V93.634H273.972V102.095L274.701 104.174H273.899L273.06 102.204L269.65 93.634H264.07V107H267.334V98.5391L266.605 96.4421H267.407L268.246 98.4297Z"  />
<path d="M209.04 102.478L210.7 96.3327H211.557L213.198 102.478H209.04ZM214.42 107H217.702L214.055 93.634H208.147L204.5 107H207.782L208.366 104.848H213.836L214.42 107Z"  />
<path d="M20.7326 3.50107L21.3344 0.656494H0.601738L0 3.50107H8.78903L8.77079 3.55578L4.21217 25.0725H7.38497L11.9801 3.50107H20.7326Z"  />
<path d="M42.9051 0.656494L40.6987 10.959H26.257L26.2752 10.9043L28.4634 0.656494H25.3088L20.0938 25.0725H23.2848L25.6553 13.8036H40.097L40.0788 13.8218L37.7083 25.0725H40.8811L46.0779 0.656494H42.9051Z"  />
<path d="M52.4957 0.656494L47.2988 25.0725H65.6063L66.2262 22.2279H51.0916L51.1098 22.1732L52.8603 13.9312H65.8798L66.4633 11.1049H53.4256L53.4439 11.0319L55.0667 3.50107H70.2013L70.8031 0.656494H52.4957Z"  />
<path d="M80.4124 0.656494L97.2246 44.8751H97.3522L114.146 0.656494H117.319L99.5221 47.9021H95.0729L77.2578 0.656494H80.4124Z"  />
<path d="M165.918 24.3065C166.099 18.6704 164.145 13.1739 160.448 8.91655C158.552 6.99907 156.294 5.47678 153.806 4.43783C151.318 3.39887 148.648 2.8639 145.951 2.8639C143.255 2.8639 140.585 3.39887 138.097 4.43783C135.608 5.47678 133.351 6.99907 131.455 8.91655C127.96 13.2847 126.056 18.7123 126.056 24.3065C126.056 29.9006 127.96 35.3282 131.455 39.6964C133.351 41.6139 135.608 43.1362 138.097 44.1751C140.585 45.2141 143.255 45.749 145.951 45.749C148.648 45.749 151.318 45.2141 153.806 44.1751C156.294 43.1362 158.552 41.6139 160.448 39.6964C164.145 35.4391 166.099 29.9425 165.918 24.3065ZM123.085 24.3065C122.864 17.9142 125.117 11.6829 129.376 6.91076C133.797 2.49797 139.787 0.0195313 146.033 0.0195312C152.279 0.0195312 158.27 2.49797 162.691 6.91076C166.938 11.6875 169.178 17.9188 168.945 24.3065C169.178 30.6941 166.938 36.9254 162.691 41.7022C158.254 46.084 152.269 48.5412 146.033 48.5412C139.797 48.5412 133.813 46.084 129.376 41.7022C125.117 36.93 122.864 30.6988 123.085 24.3065Z"  />
<path d="M195.094 29.6858V47.9021H191.994V29.6858L173.322 0.656494H176.805L193.49 26.513H193.617L210.284 0.656494H213.803L195.094 29.6858Z"  />
<path d="M246.15 32.986L233.842 3.17263H233.678L221.387 32.986H246.15ZM235.975 0.601562L255.486 47.8289H252.313L247.317 35.7394H220.257L215.261 47.8289H212.088L231.599 0.601562H235.975Z"  />
<path d="M305.428 47.9019H302.383V37.0706H302.255C301.999 37.8755 301.624 38.6376 301.143 39.3317C300.085 41.1243 298.699 42.7017 297.058 43.9815C294.695 45.9556 291.873 47.3038 288.853 47.9019C286.895 48.3357 284.895 48.5437 282.89 48.5219C279.819 48.6393 276.759 48.0849 273.925 46.8976C271.09 45.7102 268.549 43.9185 266.479 41.6475C262.425 36.7567 260.207 30.6039 260.207 24.2517C260.207 17.8996 262.425 11.7468 266.479 6.85604C268.586 4.57052 271.164 2.77033 274.035 1.58018C276.907 0.390026 280.003 -0.16164 283.109 -0.036595C286.493 -0.107618 289.856 0.512863 292.992 1.78685C295.501 2.80185 297.755 4.35846 299.593 6.34548C302.12 9.21152 303.988 12.5978 305.063 16.265L305.409 18.0885H302.437C302.392 17.7862 302.325 17.4877 302.237 17.195C302.146 16.8303 301.872 16.1374 301.507 15.0433C300.711 12.7058 299.431 10.5623 297.751 8.75243C295.562 6.23547 292.674 4.42649 289.454 3.5556C287.397 2.97061 285.266 2.68203 283.127 2.69858C280.414 2.57632 277.707 3.05567 275.201 4.10228C272.695 5.1489 270.451 6.73687 268.63 8.75243C265.148 13.119 263.251 18.5388 263.251 24.1241C263.251 29.7094 265.148 35.1292 268.63 39.4958C270.409 41.5069 272.613 43.0968 275.083 44.1503C277.552 45.2037 280.225 45.6942 282.908 45.5861C287.211 45.7632 291.446 44.4777 294.925 41.9392C296.208 40.8644 297.359 39.6401 298.353 38.2923C300.47 35.2304 301.815 31.7021 302.273 28.008L302.401 26.9869H282.762V24.3064H305.428V47.9019Z"  />
<path d="M319.215 47.9021V0.656494H352.238V3.50107H322.242V22.3373H348.445V25.1637H322.242V45.0575H352.238V47.9021H319.215Z"  />
<path d="M391.893 6.56446C389.543 4.44312 386.448 3.34129 383.286 3.50107H367.021V25.6378H383.286C386.436 25.8035 389.525 24.7301 391.893 22.6473C393.943 20.4718 395.085 17.5953 395.085 14.6059C395.085 11.6165 393.943 8.73998 391.893 6.56446ZM396.871 47.9021L383.961 28.4641H367.021V47.9021H363.994V0.601788H383.286C387.273 0.415078 391.173 1.81103 394.136 4.48573C395.487 5.78305 396.547 7.35319 397.245 9.09179C397.943 10.8304 398.263 12.6976 398.184 14.5694C398.224 16.846 397.731 19.1003 396.743 21.1521C395.975 22.8388 394.781 24.2967 393.279 25.3825C391.5 26.7528 389.406 27.6555 387.188 28.0082L400.263 47.9021H396.871Z"  />
</g>
<defs>
<clipPath id="clip0_50_6459">
<rect width="400" height="107"  />
</clipPath>
</defs>
</svg>
