<svg width="100%" height="100%" viewBox="0 0 401 116" fill="white" xmlns="http://www.w3.org/2000/svg">
<g clip-path="url(#clip0_50_6538)">
<path d="M315.229 65.588V65.0145H318.143V65.588H316.997V68.7416H316.375V65.588H315.229Z"/>
<path d="M319.672 65.0145L320.533 67.1648L321.393 65.0145H322.348V68.7416H321.775V65.7313L320.915 67.786H320.198L319.338 65.7313V68.7416H318.717V65.0145H319.672Z"/>
<path d="M118.6 66.8783L120.941 66.4482L120.845 65.0625H111.384L105.985 85.1316L106.128 83.3158L100.06 65.0625H89.8817L89.7861 66.4482L92.0797 66.8783L90.694 89.3844L88.4004 89.8144L88.496 91.2479H95.0901L95.1379 89.8144L92.7487 89.3844L94.1344 67.2605L94.8034 69.6497L101.732 91.3435H105.555L112.244 67.7384L111.958 69.9842L113.2 89.3844L110.954 89.8144L111.05 91.2479H122.183L122.327 89.8144L119.938 89.3844L118.6 66.8783Z" />
<path d="M140.197 88.7635C140.035 88.3316 139.923 87.8827 139.862 87.4256C139.836 86.9003 139.836 86.374 139.862 85.8487V78.2034C139.902 77.2716 139.739 76.3423 139.384 75.4797C139.104 74.7809 138.622 74.1819 137.999 73.7595C137.251 73.3068 136.424 72.9988 135.562 72.8516C134.385 72.7671 133.203 72.7671 132.026 72.8516L123.664 76.1009V79.8758H129.398L129.923 75.0974L130.688 74.8107H131.5C131.741 74.7972 131.981 74.8373 132.204 74.9282C132.428 75.0191 132.628 75.1585 132.79 75.3363C133.147 75.9413 133.298 76.6454 133.22 77.3432V80.497L124.858 82.9817C124.221 83.4547 123.712 84.0786 123.377 84.7975C123.045 85.5324 122.882 86.3325 122.899 87.1389C122.86 87.8397 122.997 88.5391 123.297 89.1734C123.598 89.8077 124.052 90.3567 124.619 90.7704C125.174 91.2158 125.806 91.5559 126.483 91.7739C127.229 91.9856 128.001 92.0981 128.777 92.1084L133.555 89.0024L134.702 92.0128L142.204 90.4837V89.0502L140.197 88.7635ZM133.22 87.5689L132.743 87.8556C132.526 88.0208 132.284 88.1499 132.026 88.2379C131.744 88.3152 131.447 88.3152 131.166 88.2379C130.923 88.2255 130.687 88.1537 130.479 88.0287C130.271 87.9037 130.096 87.7294 129.971 87.5212C129.536 86.9107 129.333 86.1654 129.398 85.4187C129.391 84.8173 129.488 84.2193 129.684 83.6507C129.856 83.1403 130.151 82.6806 130.545 82.3128L133.22 81.3093V87.5689Z" />
<path d="M156.539 86.9473C155.906 87.1495 155.244 87.2463 154.58 87.234C153.755 87.2357 152.939 87.0563 152.191 86.7084C151.494 86.3383 150.877 85.835 150.375 85.2271C149.847 84.5375 149.443 83.7613 149.18 82.9334C148.887 82.0228 148.742 81.0709 148.75 80.1142C148.745 79.2483 148.825 78.3841 148.989 77.5339C149.141 76.9355 149.366 76.3578 149.658 75.8137C149.887 75.4037 150.215 75.0584 150.614 74.8102C150.9 74.6225 151.228 74.5078 151.569 74.4758C151.828 74.4758 152.079 74.5595 152.286 74.7146L153.29 79.493H158.546V74.4758C157.736 73.8307 156.812 73.3443 155.822 73.0422C154.75 72.6531 153.618 72.4589 152.477 72.4689C151.161 72.7848 149.881 73.2331 148.655 73.8068C147.498 74.3548 146.434 75.0803 145.501 75.9571C144.595 76.8109 143.865 77.8335 143.351 78.9674C142.818 80.1869 142.557 81.5076 142.586 82.8379C142.578 84.0798 142.805 85.312 143.255 86.4694C143.706 87.5209 144.373 88.4653 145.214 89.2409C146.044 90.037 147.039 90.6406 148.129 91.0089C149.303 91.4593 150.551 91.6862 151.808 91.6778L153.911 90.7699L155.679 89.7188C156.25 89.3802 156.793 88.9967 157.304 88.5719L158.928 87.1862L158.211 86.0394C157.682 86.3917 157.123 86.6956 156.539 86.9473Z" />
<path d="M179.237 78.1553C179.266 77.2228 179.169 76.2908 178.951 75.3839C178.779 74.7821 178.449 74.2374 177.995 73.807C177.578 73.37 177.049 73.056 176.466 72.8991C175.64 72.6837 174.787 72.5871 173.934 72.6124L167.817 76.4351V64.6326H166.145L159.455 65.636V67.1173H161.319V89.4322L159.503 89.8145V91.248H168.677V89.8145L167.435 89.4322V78.1075L168.152 77.6296L169.442 76.9129C169.833 76.686 170.28 76.5704 170.732 76.5785C171.783 76.5785 172.309 77.1996 172.309 78.3942V89.4322L171.019 89.8145V91.248H180.575V89.8145L178.712 89.4322L179.237 78.1553Z" />
<path d="M201.074 88.9544C200.91 88.5687 200.782 88.1688 200.691 87.7598C200.657 87.2029 200.657 86.6443 200.691 86.0874V72.9947H198.685L192.568 74.2848V75.7184H194.241V86.7564L193.619 87.1386L192.616 87.6643C192.301 87.7359 191.975 87.7359 191.66 87.6643C190.466 87.6643 189.845 86.9953 189.845 85.6096V72.9469H187.838L181.482 74.2371V75.6706H183.155V86.3263C183.127 87.2746 183.223 88.2224 183.442 89.1455C183.611 89.7731 183.96 90.3376 184.445 90.7702C185.679 91.6511 187.188 92.0582 188.698 91.917L194.384 88.2376L195.292 91.7737L202.459 90.4357V89.0499L201.074 88.9544Z" />
<path d="M225.061 68.7899C224.663 67.9757 224.072 67.2705 223.341 66.7352C222.585 66.1616 221.725 65.7398 220.808 65.4928C219.816 65.1997 218.785 65.0548 217.75 65.0628H203.463V66.4485L205.757 66.8785V89.4324L203.463 89.8147V91.2482H215.695V89.8147L212.542 89.4324V78.6333L213.689 79.8279H215.122C216.508 79.4457 217.798 79.0634 219.04 78.5856C220.208 78.2004 221.33 77.6876 222.385 77.0565C223.281 76.4711 224.046 75.7064 224.631 74.8106C225.228 73.8698 225.528 72.7707 225.491 71.6569C225.572 70.6808 225.425 69.6992 225.061 68.7899ZM217.177 76.5787C216.879 77.0485 216.471 77.438 215.988 77.713C215.505 77.9879 214.961 78.1399 214.405 78.1555H212.733V66.7352L214.405 66.4485C214.963 66.4593 215.511 66.6038 216.001 66.8699C216.492 67.1359 216.911 67.5158 217.225 67.9776C218.039 69.2061 218.441 70.6623 218.371 72.1348C218.476 73.7075 218.056 75.2705 217.177 76.5787Z" />
<path d="M269.213 86.9478C268.563 87.1501 267.886 87.2469 267.206 87.2345C266.396 87.2355 265.596 87.0559 264.864 86.7088C264.153 86.3398 263.521 85.8368 263.001 85.2276C262.49 84.5268 262.088 83.7537 261.806 82.9339C261.513 82.0232 261.368 81.0714 261.376 80.1147C261.361 79.2458 261.457 78.3786 261.663 77.5344C261.794 76.9293 262.02 76.3488 262.332 75.8142C262.543 75.4074 262.856 75.0619 263.24 74.8107C263.54 74.6155 263.886 74.5004 264.243 74.4762C264.499 74.4904 264.747 74.5728 264.96 74.7151L265.916 79.4935H271.172V74.4762C270.373 73.8409 269.467 73.3553 268.496 73.0427C267.424 72.6536 266.291 72.4594 265.151 72.4693C263.82 72.7853 262.523 73.2335 261.28 73.8073C260.124 74.3553 259.06 75.0808 258.127 75.9575C257.252 76.8273 256.54 77.8469 256.024 78.9679C255.475 80.1837 255.198 81.5045 255.212 82.8384C255.139 83.5373 255.139 84.2419 255.212 84.9409C254.117 85.7223 252.929 86.3643 251.676 86.8522C250.991 87.0368 250.282 87.1174 249.574 87.0911C248.748 87.0929 247.933 86.9134 247.184 86.5655C246.488 86.1954 245.871 85.6921 245.369 85.0842C244.841 84.3946 244.436 83.6185 244.174 82.7905C243.881 81.8799 243.735 80.928 243.744 79.9713C243.66 79.1133 243.66 78.2491 243.744 77.391C243.896 76.7926 244.121 76.2149 244.413 75.6708C244.628 75.2509 244.96 74.9023 245.369 74.6673C245.655 74.4797 245.983 74.3649 246.324 74.3329C246.582 74.3392 246.831 74.4224 247.041 74.5718L248.044 79.3501H253.301V74.3329C252.491 73.6878 251.567 73.2014 250.577 72.8994C249.505 72.5102 248.372 72.316 247.232 72.3259C245.916 72.6419 244.635 73.0902 243.409 73.6639C242.253 74.2119 241.188 74.9374 240.256 75.8142C239.35 76.668 238.619 77.6906 238.105 78.8245C237.573 80.0439 237.312 81.3647 237.341 82.695C237.309 83.9389 237.536 85.1758 238.01 86.3266C238.414 87.4209 239.05 88.4147 239.875 89.2396C240.7 90.0645 241.694 90.7008 242.788 91.1049C243.98 91.5507 245.243 91.7773 246.515 91.7739L248.618 90.866L250.386 89.8147C250.988 89.4771 251.563 89.0937 252.106 88.668C253.635 87.5212 255.26 86.1832 255.26 86.1832C255.26 86.1832 255.26 86.1832 255.26 86.5655C255.693 87.6147 256.344 88.5596 257.171 89.3369C258.008 90.1235 259.001 90.7258 260.086 91.1049C261.276 91.5559 262.54 91.7827 263.813 91.7739L265.868 90.866C266.489 90.5315 267.11 90.197 267.684 89.8147C268.247 89.4648 268.79 89.0819 269.308 88.668C269.857 88.2334 270.383 87.7708 270.885 87.2822L270.168 86.1355C269.867 86.4258 269.548 86.6971 269.213 86.9478Z" />
<path d="M292.005 78.1553C292.033 77.2228 291.937 76.2908 291.718 75.3839C291.547 74.7821 291.217 74.2374 290.763 73.807C290.328 73.3684 289.783 73.0547 289.186 72.8991C288.376 72.6837 287.539 72.5871 286.701 72.6124L280.585 76.4351V64.6326H278.865L272.223 65.636V67.1173H274.086V89.4322L272.27 89.8145V91.248H281.493V89.8145L280.25 89.4322V78.1075L280.967 77.6296C281.376 77.3546 281.808 77.1148 282.257 76.9129C282.647 76.6813 283.094 76.5653 283.547 76.5785C284.599 76.5785 285.076 77.1996 285.076 78.3942V89.4322L283.834 89.8145V91.248H293.391V89.8145L291.527 89.4322L292.005 78.1553Z" />
<path d="M315.132 88.9544H313.747C313.747 88.5244 313.747 88.1421 313.412 87.7598C313.354 87.2039 313.354 86.6433 313.412 86.0874V72.9947H311.357L305.241 74.2848V75.7184H306.961V86.7564L306.292 87.1386L305.337 87.6643C305.021 87.7273 304.696 87.7273 304.381 87.6643C303.139 87.6643 302.517 86.9953 302.517 85.6096V72.9469H300.558L294.203 74.2371V75.6706H295.923V86.3263C295.829 87.2637 295.829 88.2082 295.923 89.1455C296.111 89.7765 296.476 90.3403 296.975 90.7702C298.19 91.6518 299.685 92.0596 301.18 91.917L307.152 88.1899L308.06 91.7259L315.228 90.388L315.132 88.9544Z"/>
<path d="M231.944 63.5599L228.127 67.3793L231.946 71.196L235.763 67.3766L231.944 63.5599Z" />
<path d="M234.952 72.9469H233.28L226.686 74.1893L226.829 75.6706L228.597 75.4794V89.3845L226.829 89.8145L226.877 91.248H236.672L236.768 89.8145L234.952 89.3845V72.9469Z" />
<path d="M142.731 101.426H129.352V104.389H134.273V116H137.809V104.389H142.731V101.426Z" />
<path d="M171.734 116H175.652L172.212 110.648V110.362H172.594C173.09 110.061 173.527 109.672 173.884 109.215C174.453 108.37 174.738 107.366 174.696 106.348C174.748 105.685 174.651 105.019 174.411 104.398C174.171 103.778 173.795 103.22 173.311 102.764C171.903 101.831 170.21 101.424 168.532 101.617H162.32V115.952H165.856V111.174H168.676L171.734 116ZM165.856 104.389H168.723C170.539 104.389 170.921 105.392 170.921 106.252C170.921 107.112 170.539 108.116 168.723 108.116H165.856V104.389Z" />
<path d="M239.491 104.246V101.426H228.979V104.246H232.467V113.181H228.979V116H239.491V113.181H236.003V104.246H239.491Z" />
<path d="M264.483 106.635L268.21 116H274.278V101.426H270.742V110.649L271.507 112.942H270.647L269.739 110.792L266.012 101.426H259.943V116H263.527V106.778L262.715 104.484H263.575L264.483 106.635Z" />
<path d="M205.9 116H209.484L205.565 101.665H199.019L195.148 116H198.684L199.306 113.658H205.183L205.9 116ZM200.022 111.222L201.838 104.532H202.794L204.562 111.222H200.022Z" />
<path d="M88.7814 35.6278V51.7787H85.4844V0.220148H103.117C108.295 -0.113322 113.409 1.50638 117.452 4.75958C120.695 8.33 122.492 12.9808 122.492 17.8046C122.492 22.6283 120.695 27.279 117.452 30.8495C113.454 34.2052 108.328 35.9137 103.117 35.6278H88.7814ZM119.506 17.9957C119.642 15.9402 119.313 13.8805 118.544 11.9696C117.775 10.0587 116.585 8.34562 115.062 6.95765C111.708 4.29964 107.482 2.98775 103.212 3.2783H88.7814V32.3307H103.117C107.387 32.6213 111.612 31.3094 114.967 28.6514C116.436 27.2802 117.584 25.6008 118.327 23.7338C119.071 21.8667 119.392 19.8581 119.267 17.8523L119.506 17.9957Z" />
<path d="M171.542 51.6356L157.493 30.5152H139.049V51.6356H135.752V0.220387H156.777C161.09 -0.00180988 165.317 1.49287 168.532 4.37761C170.013 5.78662 171.176 7.49628 171.943 9.39184C172.709 11.2874 173.061 13.3249 172.975 15.3678C172.997 17.8453 172.458 20.2955 171.399 22.5353C170.588 24.4356 169.285 26.0851 167.624 27.3137C165.679 28.8002 163.397 29.7849 160.982 30.1807L175.317 51.8267L171.542 51.6356ZM166.142 6.6712C164.857 5.49802 163.348 4.59692 161.706 4.02209C160.063 3.44727 158.322 3.21063 156.586 3.32637H139.049V27.2182H156.777C158.505 27.3359 160.24 27.1093 161.881 26.5515C163.521 25.9938 165.035 25.1159 166.333 23.9688C168.572 21.6076 169.819 18.478 169.819 15.2244C169.819 11.9709 168.572 8.84124 166.333 6.48003L166.142 6.6712Z" />
<path d="M183.633 3.32631V0.220337H215.409V3.32631H201.074V48.5774H215.409V51.6355H183.633V48.5774H197.968V3.32631H183.633Z"/>
<path d="M225.873 0.220337L244.127 48.3385L262.428 0.220337H265.868L246.755 51.6355H241.69L222.576 0.220337H225.873Z"/>
<path d="M293.152 0.220337L314.368 51.6355H310.928L305.481 38.495H276.046L270.599 51.6355H267.158L288.374 0.220337H293.152ZM304.238 35.628L290.811 3.13514L277.432 35.628H304.238Z"/>
<path d="M312.553 3.32631V0.220337H355.558V3.32631H335.68V51.6355H332.478V3.32631H312.553Z"/>
<path d="M365.066 51.6355V0.220337H401V3.32631H368.363V23.8254H397.034V26.9314H368.363V48.5774H401V51.6355H365.066Z"/>
<path d="M22.5539 3.32627L23.2228 0.220337H0.66897L0 3.32627H9.55672V3.37405L4.58723 26.788H8.07543L13.0449 3.32627H22.5539Z"/>
<path d="M46.7322 0.220337L44.2953 11.4495H28.5745L28.6223 11.3539L31.0114 0.220337H27.5232L21.8848 26.788H25.3252L27.9533 14.5076H43.6263V14.5554L41.046 26.788H44.5342L50.1727 0.220337H46.7322Z"/>
<path d="M57.1502 0.220337L51.5117 26.788H71.4375L72.1065 23.7299H55.6211V23.6821V23.6343L57.5325 14.651H71.7242L72.3454 11.5928H58.2014V11.5451L59.9694 3.32627H76.407L77.0759 0.220337H57.1502Z"/>
</g>
<defs>
<clipPath id="clip0_50_6538">
<rect width="401" height="116"/>
</clipPath>
</defs>
</svg>
