<svg width="100%" height="100%" viewBox="0 0 350 203" fill="white"  xmlns="http://www.w3.org/2000/svg">
<g clip-path="url(#clip0_50_4352)">
<path d="M302.755 146.929V146.266H306.07V146.929H304.744V150.41H304.081V146.929H302.755Z"  />
<path d="M307.728 146.266L308.667 148.697L309.606 146.266H310.712V150.41H310.049V147.261L309.109 149.581H308.336L307.341 147.261V150.631H306.678V146.487L307.728 146.266Z"  />
<path d="M82.1106 148.366L84.7077 147.868L84.5972 146.321H73.9878L67.9095 168.866L68.0753 166.822L61.2786 146.321H49.8956L49.7851 147.868L52.3269 148.366L50.7245 173.674L48.1826 174.116L48.2931 175.718H55.6976L55.7529 174.116L53.0453 173.674L54.6477 148.808L55.4213 151.46L63.1574 175.829H67.4674L74.9272 149.305L74.6509 151.847L76.0323 173.674L73.4905 174.116L73.601 175.718H86.1444L86.2549 174.116L83.6026 173.674L82.1106 148.366Z"  />
<path d="M106.261 172.955C106.1 172.448 105.971 171.931 105.875 171.408C105.844 170.819 105.844 170.229 105.875 169.64V161.02C105.888 159.981 105.7 158.949 105.322 157.981C104.981 157.198 104.425 156.527 103.72 156.047C102.891 155.552 101.969 155.232 101.012 155.107C99.6887 154.981 98.3565 154.981 97.0334 155.107L87.695 158.699V162.954H94.16L94.8231 157.428C95.0782 157.27 95.3586 157.158 95.6519 157.096H96.5361C96.8143 157.081 97.0925 157.127 97.3506 157.232C97.6086 157.337 97.8401 157.499 98.0281 157.704C98.3961 158.399 98.5499 159.188 98.4701 159.97V163.506L89.1316 166.269C88.3911 166.774 87.8149 167.485 87.4739 168.314C87.078 169.122 86.8701 170.01 86.866 170.911C86.8377 171.738 87.0284 172.557 87.4186 173.287C87.7596 173.945 88.2294 174.527 88.8001 175C89.4181 175.506 90.1325 175.882 90.8999 176.105C91.7393 176.372 92.6162 176.503 93.497 176.492L98.6912 173.011L99.962 176.436L108.417 174.668L108.14 173.121L106.261 172.955ZM98.4148 171.574L97.9175 171.905L97.0887 172.347C96.7809 172.429 96.4571 172.429 96.1494 172.347C95.871 172.324 95.6016 172.238 95.362 172.094C95.1225 171.95 94.9194 171.753 94.768 171.519C94.3166 170.812 94.1035 169.979 94.16 169.143C94.158 168.466 94.27 167.793 94.4916 167.153C94.6692 166.583 94.9931 166.068 95.431 165.661L98.4148 164.556V171.574Z"  />
<path d="M124.659 170.855C123.95 171.11 123.202 171.241 122.449 171.242C121.523 171.247 120.611 171.019 119.797 170.579C118.992 170.199 118.29 169.631 117.752 168.921C117.131 168.172 116.662 167.308 116.371 166.38C116.077 165.337 115.928 164.258 115.929 163.175C115.895 162.209 115.987 161.243 116.205 160.301C116.365 159.622 116.626 158.97 116.978 158.367C117.205 157.916 117.549 157.535 117.973 157.262C118.307 157.058 118.687 156.944 119.078 156.931C119.349 156.855 119.636 156.855 119.907 156.931L121.012 162.456H126.925V156.931C126.005 156.235 124.979 155.694 123.886 155.328C122.679 154.903 121.407 154.697 120.128 154.72C118.634 155.034 117.186 155.535 115.818 156.212C114.508 156.813 113.312 157.636 112.282 158.643C111.256 159.574 110.429 160.701 109.85 161.959C109.262 163.339 108.962 164.824 108.966 166.324C108.956 167.707 109.219 169.077 109.74 170.358C110.262 171.543 111.013 172.614 111.95 173.508C112.886 174.391 113.997 175.069 115.21 175.497C116.533 176 117.94 176.243 119.355 176.215L121.675 175.221L123.665 174.06C124.325 173.669 124.953 173.225 125.543 172.734C126.161 172.252 126.752 171.736 127.312 171.187L126.538 169.861C125.957 170.272 125.326 170.606 124.659 170.855Z"  />
<path d="M150.136 161.02C150.172 159.978 150.061 158.936 149.805 157.925C149.611 157.24 149.25 156.614 148.755 156.102C148.247 155.642 147.643 155.302 146.987 155.107C146.052 154.972 145.103 154.972 144.168 155.107L137.316 159.362V146.1H135.438L127.923 147.205V148.863H130.022V173.895L127.978 174.392V175.994H138.311V174.392L136.875 173.895V161.241L137.703 160.688L139.085 159.914C139.54 159.657 140.054 159.524 140.577 159.528C141.737 159.528 142.29 160.191 142.29 161.572V173.895L140.908 174.392V175.994H151.573V174.392L149.473 173.895L150.136 161.02Z"  />
<path d="M174.612 173.121C174.433 172.695 174.303 172.25 174.225 171.795C174.159 171.17 174.159 170.541 174.225 169.916V155.218H171.96L165.053 156.654V158.312H166.986V170.69L166.268 171.076C165.917 171.31 165.548 171.513 165.163 171.684C164.799 171.762 164.422 171.762 164.058 171.684C162.676 171.684 162.013 170.911 162.013 169.419V155.162H159.803L152.675 156.654V158.312H154.554V170.248C154.524 171.308 154.635 172.367 154.885 173.397C155.069 174.113 155.475 174.751 156.046 175.221C157.415 176.223 159.11 176.676 160.798 176.492L167.152 172.403L168.147 176.326L176.214 174.889V173.287L174.612 173.121Z"  />
<path d="M201.524 150.521C201.085 149.597 200.42 148.799 199.59 148.2C198.773 147.525 197.807 147.051 196.772 146.819C195.662 146.48 194.507 146.312 193.346 146.322H177.487V147.869L180.084 148.366V173.619L177.487 174.116V175.719H191.191V174.116L187.655 173.619V161.683L188.981 163.009H190.583C192.075 162.567 193.567 162.125 194.948 161.628C196.256 161.207 197.501 160.612 198.651 159.86C199.694 159.238 200.582 158.388 201.248 157.373C201.895 156.309 202.221 155.081 202.187 153.837C202.247 152.694 202.019 151.554 201.524 150.521ZM192.683 159.252C192.354 159.78 191.899 160.218 191.359 160.526C190.819 160.835 190.21 161.005 189.589 161.02H187.71V148.2L189.589 147.869C190.213 147.879 190.825 148.04 191.374 148.338C191.922 148.637 192.39 149.063 192.738 149.582C193.671 150.963 194.118 152.616 194.009 154.279C194.106 156.035 193.642 157.777 192.683 159.252Z"  />
<path d="M251.09 170.855C250.379 171.105 249.633 171.236 248.88 171.242C247.935 171.256 247.003 171.028 246.172 170.579C245.384 170.173 244.688 169.608 244.128 168.921C243.545 168.155 243.096 167.296 242.801 166.38C242.462 165.345 242.294 164.263 242.304 163.175C242.288 162.206 242.4 161.24 242.636 160.301C242.779 159.625 243.021 158.973 243.354 158.367C243.615 157.924 243.974 157.545 244.404 157.262C244.735 157.053 245.117 156.939 245.509 156.931C245.761 156.85 246.031 156.85 246.283 156.931L247.388 162.456H253.3V156.931C251.342 155.461 248.951 154.684 246.504 154.72C245.014 155.051 243.568 155.551 242.194 156.212C240.892 156.827 239.697 157.648 238.657 158.644C237.666 159.592 236.86 160.716 236.281 161.959C235.666 163.33 235.363 164.822 235.397 166.324C235.337 167.097 235.337 167.873 235.397 168.645C234.19 169.533 232.871 170.258 231.474 170.8C230.703 171.03 229.902 171.142 229.098 171.132C228.172 171.136 227.26 170.908 226.445 170.469C225.64 170.089 224.939 169.52 224.401 168.811C223.78 168.061 223.311 167.198 223.019 166.269C222.68 165.235 222.512 164.152 222.522 163.064C222.506 162.096 222.618 161.13 222.853 160.191C222.997 159.514 223.239 158.863 223.572 158.257C223.833 157.813 224.192 157.435 224.622 157.152C224.955 156.948 225.336 156.833 225.727 156.82C225.998 156.745 226.285 156.745 226.556 156.82L227.606 162.346H233.518V156.82C232.606 156.114 231.577 155.571 230.479 155.218C229.275 154.784 228.001 154.578 226.721 154.61C225.248 154.932 223.819 155.433 222.467 156.102C221.148 156.716 219.936 157.537 218.875 158.533C217.884 159.481 217.078 160.605 216.499 161.848C215.883 163.22 215.581 164.711 215.615 166.214C215.605 167.596 215.867 168.967 216.388 170.248C216.91 171.419 217.641 172.486 218.543 173.397C219.509 174.27 220.635 174.945 221.859 175.386C223.182 175.889 224.589 176.133 226.003 176.105L228.324 175.11L230.313 173.95C230.992 173.559 231.638 173.116 232.247 172.624C233.96 171.353 235.784 169.861 235.784 169.861V170.248C236.266 171.441 237.001 172.516 237.939 173.397C238.892 174.257 239.998 174.932 241.199 175.386C242.541 175.888 243.966 176.132 245.398 176.105L247.719 175.11L249.708 173.95C250.342 173.544 250.951 173.101 251.532 172.624C252.18 172.157 252.79 171.64 253.355 171.076L252.527 169.75C252.098 170.18 251.615 170.551 251.09 170.855Z"  />
<path d="M276.672 161.02C276.708 159.978 276.597 158.936 276.341 157.925C276.147 157.24 275.786 156.614 275.291 156.102C274.783 155.642 274.179 155.302 273.523 155.107C272.588 154.975 271.639 154.975 270.705 155.107L263.853 159.362V146.1H261.919L254.459 147.205V148.863H256.559V173.895L254.514 174.392V175.994H264.847V174.392L263.466 173.895V161.241L264.295 160.688L265.676 159.914C266.131 159.657 266.645 159.524 267.168 159.528C268.329 159.528 268.881 160.191 268.881 161.572V173.895L267.5 174.392V175.994H278.164V174.392L276.065 173.895L276.672 161.02Z"  />
<path d="M302.643 173.121H301.04C300.878 172.694 300.766 172.248 300.709 171.795C300.638 171.171 300.638 170.54 300.709 169.916V155.218H298.443L291.591 156.654V158.312H293.47V170.69L292.751 171.076C292.407 171.321 292.037 171.525 291.646 171.684C291.301 171.763 290.942 171.763 290.596 171.684C289.215 171.684 288.552 170.911 288.552 169.419V155.162H286.286L279.158 156.654V158.257H281.037V170.192C281.007 171.252 281.119 172.312 281.368 173.342C281.509 174.076 281.924 174.728 282.529 175.166C283.877 176.169 285.556 176.623 287.226 176.436L293.636 172.347L294.63 176.271L302.698 174.834L302.643 173.121Z"  />
<path d="M209.333 144.583L205.035 148.881L209.333 153.179L213.631 148.881L209.333 144.583Z"  />
<path d="M212.684 155.162H210.805L203.346 156.544L203.511 158.202L205.556 158.036V173.674L203.511 174.116L203.622 175.718H214.618L214.673 174.116L212.684 173.674V155.162Z"  />
<path d="M109.134 187.156H94.1592V190.472H99.6849V203.457H103.663V190.472H109.134V187.156Z"  />
<path d="M141.737 203.458H146.103L142.235 197.435V196.992H142.677C143.232 196.664 143.72 196.233 144.113 195.722C144.75 194.776 145.078 193.656 145.053 192.517C145.111 191.772 145.002 191.023 144.735 190.325C144.467 189.627 144.047 188.998 143.506 188.483C141.959 187.505 140.135 187.058 138.311 187.212H131.128V203.513H135.106V197.987H138.256L141.737 203.458ZM135.106 190.417H138.311C140.356 190.417 140.798 191.577 140.798 192.517C140.798 193.456 140.356 194.672 138.311 194.672H135.106V190.417Z"  />
<path d="M217.766 190.306V187.156H205.941V190.306H209.865V200.363H205.941V203.457H217.766V200.363H213.843V190.306H217.766Z"  />
<path d="M245.837 193.014L249.981 203.457H256.778V187.156H252.8V197.49L253.684 200.031H252.689L251.694 197.655L247.55 187.156H240.698V203.457H244.677V193.124L243.793 190.582H244.787L245.837 193.014Z"  />
<path d="M180.031 203.457H184.065L179.7 187.156H172.571L168.206 203.457H172.24L172.903 200.86H179.534L180.031 203.457ZM173.456 197.932L175.5 190.417H176.55L178.539 197.932H173.456Z"  />
<path d="M95.6475 58.5177V0.828979H135.764V4.25491H99.3498V30.3364H130.018V33.8176H99.3498V58.5177H95.6475Z"  />
<path d="M143.615 4.25491V0.828979H179.256V4.25491H163.287V55.0364H179.256V58.5177H143.615V55.0364H159.585V4.25491H143.615Z"  />
<path d="M233.023 58.5176L217.274 34.757H196.553V58.5176H192.851V0.828975H216.445C221.285 0.587879 226.027 2.25435 229.652 5.47057C231.307 7.05203 232.603 8.97084 233.451 11.0969C234.3 13.2229 234.681 15.5066 234.57 17.793C234.638 20.5853 234.032 23.3529 232.802 25.8605C231.875 27.9111 230.427 29.683 228.602 30.9995C226.42 32.6697 223.856 33.7709 221.142 34.2044L237.112 58.5176H233.023ZM226.944 8.01245C224.077 5.4243 220.304 4.07372 216.445 4.2549H196.553V31.2205H216.445C220.297 31.4228 224.072 30.0917 226.944 27.5183C229.467 24.8763 230.875 21.3634 230.875 17.7101C230.875 14.0567 229.467 10.5439 226.944 7.90191V8.01245Z"  />
<path d="M287.943 18.2903V16.6326C288.075 14.7077 287.701 12.7819 286.857 11.0466C286.014 9.31136 284.731 7.82713 283.136 6.74154C279.405 4.40121 275.046 3.2631 270.648 3.48129C266.304 3.31294 262.005 4.40699 258.27 6.631C256.742 7.53875 255.482 8.8351 254.618 10.3881C253.754 11.9411 253.317 13.6953 253.352 15.4721C253.345 17.8097 254.135 20.08 255.591 21.9083C257.048 23.7366 259.084 25.0137 261.364 25.529C266.826 26.9778 272.359 28.1398 277.942 29.0102C280.652 29.5702 283.313 30.3463 285.899 31.331C288.202 32.1897 290.213 33.6843 291.701 35.6411C293.242 37.8148 294.02 40.4382 293.911 43.1008C293.969 45.474 293.403 47.821 292.268 49.9062C291.134 51.9914 289.471 53.7416 287.446 54.9812C282.485 58.0697 276.708 59.591 270.869 59.3465C264.986 59.6317 259.17 58.0032 254.291 54.7049C252.208 53.2627 250.527 51.3138 249.405 49.042C248.284 46.7701 247.76 44.25 247.882 41.7194V38.404H251.584V41.7194C251.498 43.801 251.964 45.8683 252.935 47.7119C253.905 49.5556 255.345 51.1102 257.109 52.2183C261.222 54.7952 266.019 56.0666 270.869 55.8653C275.679 56.0443 280.444 54.8769 284.628 52.4946C286.324 51.5893 287.738 50.2332 288.713 48.5757C289.688 46.9182 290.187 45.0235 290.153 43.1008C290.126 40.8189 289.307 38.6174 287.835 36.8734C286.363 35.1294 284.331 33.9514 282.086 33.5413C277.279 32.2151 271.311 31.4415 265.509 30.2811C262.774 29.7961 260.104 28.9988 257.552 27.905C255.331 26.9056 253.417 25.3325 252.006 23.3477C250.595 21.3628 249.739 19.0379 249.525 16.6122C249.311 14.1865 249.748 11.7476 250.789 9.54656C251.831 7.34549 253.44 5.46169 255.452 4.08913C259.941 1.20947 265.208 -0.218159 270.537 0.000135954C275.919 -0.242084 281.239 1.22818 285.733 4.19966C287.649 5.63398 289.181 7.51934 290.193 9.6883C291.206 11.8573 291.666 14.2427 291.535 16.6326V18.2903H287.943Z"  />
<path d="M301.762 4.25491V0.828979H350.001V4.25491H327.898V58.5177H324.196V4.25491H301.762Z"  />
<path d="M36.4696 102.447C36.1974 94.6318 38.9485 87.0122 44.1505 81.1732C46.7326 78.3881 49.8871 76.1952 53.3974 74.7453C56.9076 73.2955 60.6902 72.623 64.4851 72.7741C68.2669 72.7301 72.0209 73.4246 75.5366 74.8186C78.4512 75.9491 81.1167 77.6384 83.383 79.7917C85.2052 81.7077 86.7829 83.8422 88.0799 86.1464C89.8544 89.087 90.9319 92.3949 91.2296 95.8164H87.5273C87.3574 93.0187 86.5037 90.3054 85.0408 87.9146C83.9856 85.9058 82.6662 84.0474 81.1176 82.3888C79.1568 80.5065 76.8483 79.0238 74.3209 78.0236C71.1315 76.7192 67.7093 76.0799 64.264 76.1448C60.9532 76 57.6513 76.5886 54.5945 77.8687C51.5377 79.1487 48.8015 81.0885 46.5818 83.5493C42.2897 88.881 39.9495 95.5198 39.9495 102.364C39.9495 109.209 42.2897 115.848 46.5818 121.18C48.8015 123.64 51.5377 125.58 54.5945 126.86C57.6513 128.14 60.9532 128.729 64.264 128.584C67.7093 128.649 71.1315 128.01 74.3209 126.705C76.859 125.726 79.1715 124.241 81.1176 122.34C82.6662 120.681 83.9856 118.823 85.0408 116.814C86.4976 114.421 87.3508 111.709 87.5273 108.912H91.2296C90.9402 112.353 89.8624 115.681 88.0799 118.638C86.7956 120.933 85.2166 123.051 83.383 124.937C81.1493 127.132 78.4749 128.827 75.5366 129.91C72.0209 131.304 68.2669 131.999 64.4851 131.955C60.6902 132.106 56.9076 131.433 53.3974 129.983C49.8871 128.534 46.7326 126.341 44.1505 123.556C38.9836 117.761 36.2347 110.207 36.4696 102.447Z"  />
<path d="M147.042 127.811V131.292H106.262V73.5479H109.964V127.811H147.042Z"  />
<path d="M179.917 73.5479L203.733 131.292H199.865L193.787 116.538H160.632L154.499 131.292H150.631L174.447 73.5479H179.917ZM192.35 113.057L177.32 76.6422L162.29 113.057H192.35Z"  />
<path d="M249.928 91.0641V89.4063C250.054 87.4763 249.671 85.5471 248.818 83.8114C247.965 82.0756 246.671 80.5943 245.066 79.5153C241.341 77.1556 236.982 75.9981 232.577 76.1998C228.226 76.0254 223.92 77.1404 220.2 79.4047C218.672 80.3125 217.412 81.6088 216.548 83.1619C215.684 84.7149 215.248 86.4692 215.282 88.246C215.285 90.581 216.078 92.8462 217.533 94.6724C218.988 96.4987 221.019 97.7783 223.294 98.3027C228.757 99.7439 234.29 100.906 239.871 101.784C242.553 102.36 245.193 103.117 247.773 104.049C249.979 104.973 251.89 106.483 253.299 108.415C254.841 110.589 255.618 113.212 255.509 115.875C255.563 118.241 255 120.58 253.876 122.663C252.752 124.745 251.106 126.5 249.099 127.755C244.129 130.818 238.355 132.319 232.522 132.065C226.644 132.387 220.822 130.776 215.945 127.479C213.85 126.035 212.16 124.078 211.038 121.795C209.916 119.512 209.398 116.978 209.535 114.438V111.178H213.237V114.438C213.142 116.529 213.603 118.607 214.574 120.462C215.545 122.316 216.99 123.879 218.763 124.992C222.87 127.582 227.671 128.854 232.522 128.639C237.331 128.804 242.093 127.637 246.281 125.268C247.974 124.358 249.384 123.001 250.359 121.345C251.333 119.688 251.834 117.796 251.807 115.875C251.78 113.593 250.961 111.391 249.489 109.647C248.017 107.903 245.984 106.725 243.74 106.315C238.987 104.989 232.688 104.215 227.162 103.055C224.44 102.518 221.776 101.723 219.205 100.679C216.868 99.7161 214.856 98.1056 213.403 96.0372C211.828 93.7521 211.033 91.0194 211.138 88.246C211.076 85.9965 211.591 83.7687 212.636 81.7757C213.681 79.7827 215.22 78.0912 217.105 76.8629C221.602 73.9996 226.864 72.5734 232.191 72.7739C237.574 72.524 242.896 73.9949 247.387 76.9734C249.32 78.3948 250.869 80.2763 251.891 82.4473C252.914 84.6183 253.379 87.0102 253.244 89.4063V91.0641H249.928Z"  />
<path d="M308.169 91.0639V89.4061C308.295 87.4761 307.912 85.5469 307.058 83.8112C306.205 82.0755 304.911 80.5941 303.306 79.5151C299.582 77.1554 295.222 75.9979 290.818 76.1996C286.466 76.0252 282.16 77.1402 278.44 79.4046C276.912 80.3123 275.652 81.6087 274.789 83.1617C273.925 84.7147 273.488 86.469 273.522 88.2458C273.525 90.5808 274.319 92.846 275.774 94.6723C277.229 96.4985 279.259 97.7781 281.535 98.3026C286.998 99.7437 292.531 100.906 298.112 101.784C300.794 102.36 303.434 103.117 306.014 104.049C308.32 104.928 310.332 106.442 311.816 108.415C313.357 110.588 314.135 113.212 314.026 115.874C314.079 118.24 313.516 120.58 312.393 122.662C311.269 124.745 309.623 126.5 307.616 127.755C302.646 130.818 296.871 132.319 291.039 132.065C285.161 132.387 279.339 130.776 274.462 127.478C272.367 126.035 270.677 124.078 269.555 121.795C268.432 119.511 267.915 116.978 268.052 114.438V111.178H272.03V114.438C271.935 116.529 272.396 118.607 273.367 120.461C274.338 122.316 275.783 123.879 277.556 124.992C281.663 127.582 286.464 128.854 291.315 128.639C296.172 128.79 300.975 127.585 305.185 125.158C306.877 124.248 308.288 122.89 309.262 121.234C310.236 119.577 310.737 117.685 310.71 115.764C310.684 113.482 309.864 111.28 308.392 109.536C306.92 107.792 304.888 106.615 302.643 106.204C297.891 104.878 291.868 104.105 286.066 102.944C283.344 102.408 280.679 101.612 278.109 100.568C275.772 99.6054 273.759 97.995 272.307 95.9265C270.731 93.6415 269.937 90.9086 270.041 88.1352C269.979 85.8858 270.495 83.658 271.54 81.665C272.585 79.672 274.123 77.9805 276.009 76.7522C280.505 73.889 285.767 72.4627 291.094 72.6632C296.477 72.4133 301.799 73.8842 306.29 76.8627C308.224 78.2841 309.772 80.1656 310.795 82.3366C311.818 84.5076 312.282 86.8995 312.147 89.2956V90.9533L308.169 91.0639Z"  />
<path d="M25.3079 4.25489L26.0815 0.773682H0.773603L0 4.25489H10.7199V4.36541L5.13893 30.6126H9.0622L14.6432 4.25489H25.3079Z"  />
<path d="M52.4411 0.773682L49.7335 13.3724H32.1064V13.3171L34.7587 0.773682H30.8907L24.5361 30.6126H28.4594L31.3328 16.8536H48.9599L46.0865 30.6126H49.9545L56.3091 0.773682H52.4411Z"  />
<path d="M64.1534 0.773682L57.7988 30.6126H80.1781L80.8964 27.1867H62.4404V27.1314V27.0762L64.5955 17.0193H80.5096L81.1727 13.5381H65.2586L65.3138 13.4829L67.3031 4.25489H85.759L86.4774 0.773682H64.1534Z"  />
</g>
<defs>
<clipPath id="clip0_50_4352">
<rect width="350" height="203"  />
</clipPath>
</defs>
</svg>
