<svg width="284" height="152" viewBox="0 0 284 152" fill="white" xmlns="http://www.w3.org/2000/svg">
<g clip-path="url(#clip0_3567_74544)">
<path d="M16.2438 1.40046H10.166L10.4651 0.0407715H24.198L23.9125 1.40046H17.8211L14.6529 16.3571H13.1164L16.2438 1.40046Z" fill="white"/>
<path d="M36.8426 16.3299H35.3061L36.9649 8.56603H26.6992L25.0404 16.3299H23.5039L26.9712 0.0135498H28.5213L26.9984 7.17913H37.264L38.7732 0.0135498H40.3233L36.8426 16.3299Z" fill="white"/>
<path d="M53.2808 16.3299H41.5059L44.9868 0.0135498H56.8296L56.5305 1.37324H46.292L45.0546 7.21992H53.9607L53.6616 8.57961H44.7419L43.3822 14.8614H53.6208L53.2808 16.3299Z" fill="white"/>
<path d="M75.8678 21.2112H67.0298V30.933H64.9902V0.0271694H75.8678C78.9675 -0.17419 82.0298 0.7964 84.4475 2.74655C85.493 3.75794 86.3057 4.98481 86.8293 6.34197C87.3529 7.69913 87.5749 9.15403 87.4796 10.6056C87.5718 12.0527 87.3484 13.5027 86.8248 14.8549C86.3013 16.2072 85.4902 17.4296 84.4475 18.4374C82.0351 20.4023 78.9739 21.3919 75.8678 21.2112ZM82.9789 17.1321C83.8511 16.2975 84.5297 15.2818 84.9667 14.1564C85.4037 13.0311 85.5884 11.8237 85.5079 10.6192C85.5923 9.41226 85.4095 8.20161 84.9723 7.0735C84.5352 5.94539 83.8545 4.92759 82.9789 4.09264C80.9652 2.4979 78.431 1.70804 75.8678 1.87633H67.0298V19.3484H75.8678C78.4246 19.5171 80.9532 18.7323 82.9653 17.1457L82.9789 17.1321Z" fill="white"/>
<path d="M119.106 30.933H116.917L108.459 18.2199H97.3777V30.933H95.4062V0.0272371H108.024C110.617 -0.0926691 113.154 0.805078 115.095 2.52907C115.991 3.37162 116.697 4.39567 117.166 5.53285C117.635 6.67004 117.856 7.89419 117.814 9.12356C117.843 10.6139 117.522 12.0904 116.876 13.4338C116.373 14.525 115.589 15.4633 114.605 16.1532C113.458 17.0781 112.081 17.6748 110.621 17.88L119.106 30.933ZM115.747 9.17796C115.786 8.20721 115.62 7.23922 115.259 6.33718C114.898 5.43515 114.351 4.61939 113.653 3.94316C112.115 2.5594 110.091 1.84082 108.024 1.94441H97.3777V16.4251H108.024C110.084 16.5339 112.105 15.831 113.653 14.4672C114.365 13.7786 114.92 12.9451 115.282 12.0231C115.643 11.1012 115.802 10.1123 115.747 9.12356V9.17796Z" fill="white"/>
<path d="M148.174 30.933H126.582V0.0272217H148.174V1.88999H128.567V14.2088H145.699V16.0716H128.567V29.0838H148.174V30.933Z" fill="white"/>
<path d="M171.995 21.9862H169.48L157.963 2.17552H157.854V30.9058H155.869V0H158.983L170.703 20.3002L182.451 0H185.551V30.9058H183.552V2.17552H183.457L171.995 21.9862Z" fill="white"/>
<path d="M201.421 1.88999H192.801V0.0272217H211.836V1.88999H203.27V29.0838H211.836V30.933H192.801V29.0838H201.367L201.421 1.88999Z" fill="white"/>
<path d="M240.39 28.6895C237.786 30.5719 234.627 31.5291 231.416 31.4089C228.201 31.529 225.038 30.5719 222.428 28.6895C221.247 27.7903 220.305 26.6142 219.687 25.2649C219.068 23.9156 218.791 22.4347 218.88 20.9529V0.0272217H220.865V20.8713C220.791 22.1092 221.026 23.3461 221.548 24.4709C222.07 25.5958 222.863 26.5735 223.856 27.3162C226.068 28.845 228.715 29.6176 231.402 29.5189C234.094 29.6245 236.748 28.8514 238.962 27.3162C239.955 26.5735 240.748 25.5958 241.27 24.4709C241.793 23.3461 242.027 22.1092 241.953 20.8713V0.0272217H243.939V20.9529C244.028 22.4347 243.75 23.9156 243.131 25.2649C242.513 26.6142 241.571 27.7903 240.39 28.6895Z" fill="white"/>
<path d="M269.241 21.9862H266.712L255.209 2.17552H255.1V30.9058H253.115V0H256.215L267.95 20.3002L279.697 0H282.797V30.9058H280.799V2.17552H280.703L269.241 21.9862Z" fill="white"/>
<path d="M46.579 56.4137H48.673V67.4408C48.6353 68.5109 48.5033 69.5756 48.2786 70.6225L48.1427 71.0712L52.956 77.2034L51.3243 78.5631L47.2452 73.3419C47.1595 73.5461 47.0548 73.7419 46.9325 73.9265C46.6319 74.408 46.2908 74.8629 45.9127 75.2862C45.3837 75.9205 44.7654 76.4747 44.0772 76.9315C43.1942 77.5255 42.2272 77.9839 41.2083 78.2912C39.9177 78.7088 38.567 78.911 37.2107 78.8894C35.6516 78.977 34.0917 78.7354 32.6322 78.1801C31.1727 77.6249 29.8465 76.7686 28.7398 75.6669C27.7055 74.5823 26.8984 73.3019 26.366 71.9009C25.8336 70.4999 25.5868 69.0066 25.6399 67.5088C25.6221 65.8713 25.9221 64.2459 26.5235 62.7227C26.9866 61.5031 27.716 60.4022 28.6583 59.5002C29.9443 58.224 31.5288 57.2893 33.2677 56.7808L34.1243 56.5497L27.081 47.4669V45.1011H48.8361V47.0998H29.8004V47.2222L46.6743 68.9773C46.6743 68.6781 46.7558 68.1886 46.7966 67.5088L46.579 56.4137ZM27.6928 67.4408C27.6549 68.6632 27.8588 69.881 28.2928 71.0243C28.7268 72.1676 29.3825 73.214 30.222 74.1033C31.107 75.0231 32.1793 75.742 33.3663 76.2112C34.5533 76.6804 35.8273 76.8889 37.102 76.8227C38.2927 76.8276 39.4766 76.644 40.6099 76.2788C41.5432 75.9984 42.412 75.5363 43.1661 74.9191C44.1469 74.1064 44.9518 73.1025 45.532 71.9686L45.7224 71.4383L35.4296 58.2221L34.5866 58.3717C33.947 58.5233 33.3267 58.7468 32.7374 59.0379C31.8765 59.4175 31.0787 59.9265 30.3716 60.5472C29.568 61.3083 28.9413 62.2367 28.5358 63.2666C27.9541 64.5799 27.6663 66.0046 27.6928 67.4408Z" fill="white"/>
<path d="M64.7305 76.374H86.1321V78.3727H62.5957V45.1011H64.7305V76.374Z" fill="white"/>
<path d="M93.6793 73.94C90.6797 70.5848 89.0917 66.2007 89.2467 61.7028C89.0973 57.2058 90.6846 52.8238 93.6793 49.4656C95.1674 47.8555 96.9872 46.5876 99.0132 45.7495C101.039 44.9114 103.223 44.5231 105.413 44.6115C107.606 44.5211 109.793 44.9085 111.821 45.7466C113.85 46.5847 115.672 47.8537 117.161 49.4656C120.147 52.8272 121.725 57.2092 121.567 61.7028C121.729 66.197 120.151 70.5806 117.161 73.94C115.672 75.5519 113.85 76.8209 111.821 77.659C109.793 78.4971 107.606 78.8845 105.413 78.7941C103.223 78.8825 101.039 78.4942 99.0132 77.6561C96.9872 76.818 95.1674 75.5502 93.6793 73.94ZM115.625 72.5803C118.228 69.5687 119.589 65.6803 119.432 61.7028C119.583 57.7261 118.223 53.8397 115.625 50.8253C114.344 49.4038 112.764 48.2837 110.998 47.5455C109.232 46.8073 107.325 46.4693 105.413 46.5558C103.5 46.4701 101.591 46.8084 99.8233 47.5465C98.0557 48.2846 96.473 49.4042 95.1885 50.8253C92.5964 53.8431 91.2371 57.7271 91.3815 61.7028C91.2317 65.6793 92.5917 69.5652 95.1885 72.5803C96.4699 74.0061 98.0517 75.1298 99.8198 75.8705C101.588 76.6111 103.498 76.9502 105.413 76.8634C107.331 76.9434 109.242 76.5956 111.008 75.8454C112.774 75.0952 114.351 73.9613 115.625 72.5259V72.5803Z" fill="white"/>
<path d="M153.057 75.9253C150.246 77.9267 146.85 78.936 143.403 78.7942C139.947 78.9379 136.542 77.9287 133.722 75.9253C132.449 74.9565 131.433 73.6897 130.765 72.2363C130.096 70.7829 129.795 69.1875 129.888 67.5904V45.1011H132.022V67.5632C131.944 68.8955 132.197 70.2264 132.759 71.4367C133.322 72.647 134.176 73.6987 135.245 74.4976C137.637 76.1491 140.498 76.9837 143.403 76.8771C146.308 76.9856 149.17 76.1509 151.561 74.4976C152.63 73.6987 153.484 72.647 154.047 71.4367C154.609 70.2264 154.862 68.8955 154.784 67.5632V45.1011H156.918V67.6584C156.997 69.2466 156.686 70.83 156.013 72.2707C155.34 73.7115 154.325 74.966 153.057 75.9253Z" fill="white"/>
<path d="M193.818 78.332H190.542L169.031 47.2902V78.332H166.896V45.1011H170.187L191.67 76.17V45.1011H193.818V78.332Z" fill="white"/>
<path d="M234.474 61.6893V78.3319H232.34V70.7176H232.231C232.032 71.2814 231.767 71.8199 231.442 72.3221C230.675 73.5706 229.7 74.6788 228.56 75.5989C226.877 76.9513 224.896 77.8835 222.781 78.3183C221.402 78.6222 219.992 78.7682 218.58 78.7534C216.414 78.8362 214.256 78.4446 212.257 77.6062C210.259 76.7677 208.467 75.5026 207.009 73.8993C204.019 70.5399 202.441 66.1563 202.603 61.6621C202.454 57.165 204.041 52.783 207.036 49.4249C208.524 47.8147 210.344 46.5469 212.37 45.7088C214.396 44.8707 216.579 44.4824 218.77 44.5708C221.159 44.549 223.527 45.0115 225.732 45.9305C227.495 46.6444 229.079 47.7403 230.368 49.1393C231.333 50.2875 232.184 51.526 232.911 52.8377C233.515 53.8659 233.973 54.9734 234.27 56.1282L234.502 57.4878H232.408C232.408 57.3247 232.408 57.1207 232.272 56.8624C232.25 56.7555 232.218 56.6508 232.177 56.5497L231.986 56.0058C231.891 55.7746 231.823 55.5571 231.755 55.3531C231.172 53.7182 230.276 52.2126 229.117 50.9205C227.545 49.1733 225.515 47.9015 223.257 47.2494C221.81 46.8446 220.313 46.6433 218.811 46.6511C216.897 46.5654 214.988 46.9037 213.221 47.6418C211.453 48.3798 209.87 49.4995 208.586 50.9205C205.988 53.935 204.628 57.8214 204.779 61.7981C204.623 65.7707 205.973 69.6558 208.559 72.6756C209.811 74.0941 211.364 75.2157 213.105 75.959C214.845 76.7022 216.729 77.0483 218.62 76.9722C220.256 76.9819 221.883 76.7435 223.447 76.2652C224.774 75.8863 226.012 75.2485 227.091 74.3888C228.001 73.6304 228.814 72.7627 229.512 71.8054C230.158 70.9203 230.688 69.9562 231.089 68.9365C231.423 68.1552 231.7 67.3509 231.918 66.5298C232.027 65.9995 232.149 65.3333 232.272 64.5719L232.367 63.8512H218.498V61.8525L234.474 61.6893Z" fill="white"/>
<path d="M267.473 78.332H244.209V45.1011H267.473V47.0998H246.344V60.384H264.863V62.3828H246.412V76.374H267.541L267.473 78.332Z" fill="white"/>
<path d="M55.5934 100.726L50.1818 120.931L50.3314 119.095L44.2399 100.726H34.015L33.9063 102.113L36.1905 102.534L34.7901 125.228L32.4922 125.649L32.6146 127.077H39.2227L39.2635 125.649L36.8568 125.228L38.2573 102.942L38.9507 105.308L45.8988 127.186H49.7603L56.4636 103.391L56.1916 105.689L57.4289 125.228L55.1719 125.649L55.2806 127.077H66.4845L66.5933 125.649L64.2274 125.228L62.8541 102.534L65.22 102.113L65.1112 100.726H55.5934Z" fill="white"/>
<path d="M84.5683 124.589C84.4132 124.149 84.3083 123.692 84.2556 123.229C84.1863 122.697 84.1544 122.161 84.1603 121.624V113.915C84.1866 112.986 84.0248 112.061 83.6844 111.196C83.4115 110.498 82.9384 109.898 82.3247 109.469C81.5865 109.002 80.7563 108.701 79.8908 108.585C78.7163 108.409 77.5296 108.327 76.3421 108.34L67.9529 111.576V115.411H73.7858L74.3434 110.638C74.5817 110.517 74.8325 110.421 75.0912 110.353C75.348 110.282 75.6137 110.25 75.8798 110.257C76.1302 110.226 76.3843 110.256 76.6209 110.344C76.8575 110.431 77.0696 110.574 77.2395 110.761C77.5796 111.388 77.7219 112.104 77.6475 112.814V115.982L69.2717 118.47C68.6343 118.951 68.1253 119.581 67.7897 120.306C67.4505 121.038 67.2785 121.837 67.2865 122.644C67.269 123.378 67.4276 124.105 67.7489 124.765C68.0494 125.374 68.4812 125.908 69.0133 126.329C69.5641 126.782 70.2031 127.115 70.8897 127.308C71.6425 127.541 72.4269 127.655 73.2149 127.648L77.8785 124.521L79.0072 127.58L86.5534 126.016L86.3358 124.657L84.5683 124.589ZM77.5386 123.378L77.09 123.678C76.8652 123.824 76.6287 123.951 76.3829 124.058C76.1089 124.181 75.8127 124.246 75.5127 124.249C75.2663 124.234 75.0269 124.161 74.8142 124.035C74.6015 123.91 74.4215 123.736 74.2889 123.528C73.8838 122.888 73.6933 122.135 73.745 121.38C73.7419 120.779 73.8385 120.182 74.0306 119.612C74.1995 119.098 74.4885 118.632 74.8737 118.252L77.593 117.233L77.5386 123.378Z" fill="white"/>
<path d="M101.022 122.739C100.382 122.952 99.7107 123.053 99.0368 123.039C98.207 123.052 97.3861 122.866 96.6437 122.495C95.9334 122.125 95.3083 121.611 94.8081 120.985C94.2717 120.309 93.866 119.539 93.6116 118.715C93.3112 117.793 93.1641 116.829 93.1764 115.859C93.1591 114.991 93.2459 114.124 93.4348 113.276C93.5723 112.661 93.8015 112.069 94.1147 111.522C94.3387 111.122 94.6557 110.781 95.0392 110.529C95.3304 110.325 95.6758 110.211 96.0317 110.203C96.2854 110.207 96.532 110.287 96.7388 110.434L97.7177 115.397H103.021V110.366C102.196 109.745 101.278 109.259 100.301 108.925C99.2163 108.553 98.076 108.369 96.9292 108.381C95.6038 108.703 94.3146 109.158 93.0813 109.741C91.9112 110.291 90.8369 111.026 89.8995 111.916C89.0048 112.774 88.2806 113.794 87.7649 114.921C87.2196 116.149 86.9505 117.481 86.9763 118.823C86.9593 120.068 87.1952 121.303 87.6698 122.454C88.1094 123.513 88.7672 124.467 89.6004 125.255C90.4496 126.047 91.4481 126.661 92.5374 127.063C93.7263 127.497 94.9837 127.714 96.2493 127.702C97.0244 127.403 97.7315 127.09 98.3569 126.778C98.9672 126.473 99.5616 126.137 100.138 125.772C100.709 125.404 101.253 125.01 101.783 124.602C102.314 124.194 102.844 123.718 103.388 123.242L102.681 122.073C102.158 122.396 101.602 122.66 101.022 122.862" fill="white"/>
<path d="M123.822 113.902C123.85 112.986 123.749 112.07 123.523 111.182C123.347 110.575 123.024 110.019 122.585 109.564C122.138 109.143 121.597 108.835 121.007 108.667C120.185 108.465 119.339 108.373 118.492 108.395L112.333 112.229V100.332H110.633L103.943 101.338L104.093 102.82H105.942V125.296L104.134 125.704L104.256 127.145H113.488L113.611 125.704L112.333 125.296V113.929L113.08 113.439C113.484 113.164 113.906 112.919 114.345 112.705C114.763 112.483 115.231 112.371 115.705 112.379C116.725 112.379 117.241 112.977 117.241 114.187V125.296L115.963 125.704L116.072 127.145H125.59L125.698 125.704L123.822 125.296V113.902Z" fill="white"/>
<path d="M145.741 124.752C145.597 124.362 145.483 123.962 145.401 123.555C145.313 122.998 145.277 122.433 145.293 121.869V108.694H143.253L137.094 110.053L137.202 111.508L138.902 111.345V122.454L138.263 122.835C137.948 123.044 137.616 123.226 137.271 123.378C136.966 123.512 136.637 123.581 136.305 123.582C135.081 123.582 134.47 122.903 134.47 121.516V108.748H132.471L126.094 110.108V111.549L127.78 111.386V122.127C127.752 123.074 127.848 124.02 128.065 124.942C128.231 125.588 128.592 126.168 129.099 126.601C130.333 127.472 131.838 127.872 133.341 127.729L139.052 124.045L139.963 127.58L147.169 126.22L147.06 124.86L145.741 124.752Z" fill="white"/>
<path d="M169.861 104.452C169.456 103.633 168.865 102.92 168.134 102.371C167.379 101.799 166.52 101.379 165.605 101.134C164.611 100.847 163.581 100.705 162.546 100.712H148.296L148.188 102.072L150.472 102.48V125.187L148.188 125.595L148.296 127.036H160.534V125.595L157.338 125.187V114.445L158.535 115.642H160.166C161.526 115.261 162.886 114.853 164.096 114.418C165.261 114.027 166.375 113.498 167.414 112.841C168.325 112.264 169.107 111.505 169.712 110.611C170.304 109.653 170.602 108.542 170.568 107.416C170.599 106.382 170.38 105.356 169.929 104.424M162.029 112.27C161.728 112.745 161.316 113.14 160.828 113.419C160.34 113.699 159.791 113.855 159.228 113.874H157.447V102.385L159.147 102.086C159.708 102.091 160.259 102.233 160.752 102.501C161.246 102.769 161.665 103.154 161.975 103.622C162.808 104.854 163.214 106.325 163.131 107.81C163.222 109.385 162.807 110.947 161.948 112.27" fill="white"/>
<path d="M214.242 122.739C213.602 122.951 212.931 123.053 212.257 123.039C211.427 123.052 210.606 122.865 209.864 122.495C209.151 122.129 208.525 121.614 208.028 120.985C207.487 120.31 207.077 119.54 206.818 118.715C206.524 117.792 206.377 116.828 206.383 115.859C206.37 114.99 206.461 114.123 206.655 113.276C206.786 112.659 207.016 112.066 207.335 111.522C207.554 111.123 207.867 110.782 208.246 110.529C208.543 110.326 208.892 110.213 209.252 110.203C209.504 110.213 209.749 110.293 209.959 110.434L210.938 115.397H216.241V110.366C215.415 109.746 214.498 109.26 213.521 108.925C212.441 108.553 211.305 108.369 210.163 108.381C208.837 108.701 207.547 109.156 206.315 109.741C205.143 110.288 204.068 111.023 203.133 111.916C202.234 112.774 201.506 113.793 200.985 114.921C200.446 116.151 200.177 117.481 200.196 118.823C200.205 119.527 200.278 120.227 200.414 120.917C199.314 121.707 198.122 122.36 196.865 122.862C196.179 123.047 195.468 123.13 194.758 123.106C193.928 123.12 193.107 122.933 192.365 122.563C191.654 122.193 191.029 121.679 190.529 121.053C189.993 120.377 189.587 119.607 189.332 118.783C189.032 117.861 188.885 116.897 188.897 115.927C188.88 115.059 188.967 114.192 189.156 113.344C189.293 112.728 189.522 112.137 189.835 111.59C190.059 111.19 190.377 110.849 190.76 110.597C191.051 110.393 191.397 110.279 191.753 110.271C192.006 110.275 192.253 110.355 192.46 110.502L193.439 115.465H198.742V110.366C197.918 109.743 197 109.257 196.022 108.925C194.942 108.552 193.806 108.368 192.664 108.381C191.338 108.703 190.049 109.158 188.816 109.741C187.646 110.291 186.571 111.026 185.634 111.916C184.735 112.771 184.01 113.791 183.499 114.921C182.954 116.149 182.685 117.481 182.711 118.823C182.694 120.068 182.93 121.303 183.404 122.454C183.844 123.513 184.502 124.467 185.335 125.255C186.184 126.047 187.183 126.661 188.272 127.063C189.461 127.497 190.718 127.714 191.984 127.702C192.759 127.403 193.466 127.09 194.091 126.778C194.702 126.473 195.296 126.137 195.873 125.771C196.444 125.404 197.056 125.01 197.586 124.602C199.136 123.419 200.781 122.114 200.781 122.114C200.814 122.232 200.86 122.346 200.917 122.454C201.357 123.513 202.015 124.467 202.848 125.255C203.697 126.047 204.695 126.661 205.785 127.063C206.973 127.499 208.231 127.715 209.497 127.702C210.272 127.403 210.979 127.09 211.604 126.778C212.214 126.473 212.809 126.137 213.385 125.771C213.956 125.404 214.5 125.01 215.017 124.602C215.579 124.176 216.119 123.722 216.635 123.242L215.928 122.073C215.404 122.393 214.848 122.657 214.269 122.862" fill="white"/>
<path d="M237.168 113.902C237.192 112.985 237.087 112.069 236.855 111.182C236.69 110.57 236.366 110.012 235.917 109.564C235.47 109.143 234.93 108.835 234.34 108.667C233.517 108.465 232.671 108.373 231.824 108.395L225.665 112.229V100.332H223.965L217.289 101.338L217.439 102.82H219.274V125.296L217.466 125.704L217.588 127.145H226.834L226.943 125.704L225.665 125.296V113.929L226.413 113.439C226.816 113.164 227.238 112.919 227.677 112.705C228.095 112.483 228.563 112.371 229.037 112.379C230.057 112.379 230.573 112.977 230.573 114.187V125.296L229.295 125.704L229.418 127.145H238.935L239.058 125.704L237.181 125.296L237.168 113.902Z" fill="white"/>
<path d="M260.39 124.752H259.03C258.886 124.362 258.772 123.962 258.69 123.555C258.609 122.997 258.573 122.433 258.582 121.869V108.694H256.556L250.396 110.053L250.505 111.508L252.191 111.345V122.454L251.552 122.835C251.237 123.044 250.905 123.226 250.559 123.378C250.255 123.512 249.927 123.581 249.594 123.582C248.37 123.582 247.759 122.902 247.759 121.516V108.748H245.773L239.383 110.108V111.549L241.082 111.386V122.127C241.058 123.073 241.15 124.018 241.354 124.942C241.525 125.589 241.89 126.168 242.401 126.601C243.633 127.476 245.14 127.877 246.644 127.729L252.354 124.045L253.252 127.58L260.472 126.22L260.39 124.752Z" fill="white"/>
<path d="M180.645 103.024L176.811 99.1759L172.977 103.024L176.811 106.858L180.645 103.024Z" fill="white"/>
<path d="M179.815 108.667H178.129L171.48 109.89L171.63 111.372L173.438 111.223V125.228L171.63 125.649L171.712 127.077H181.556L181.624 125.649L179.815 125.228V108.667Z" fill="white"/>
<path d="M87.0979 137.343H73.6777V140.347H78.5998V152H82.1622V140.347H87.0979V137.343Z" fill="white"/>
<path d="M116.276 151.986H120.205L116.752 146.548V146.262L117.16 146.099C117.644 145.782 118.071 145.387 118.424 144.93C118.999 144.081 119.289 143.072 119.254 142.047C119.313 141.383 119.221 140.714 118.986 140.09C118.75 139.466 118.377 138.904 117.894 138.444C116.519 137.555 114.888 137.149 113.257 137.288H106.812V151.946H110.388V147.078H113.203L116.276 151.986ZM110.375 140.293H113.244C115.093 140.293 115.474 141.313 115.474 142.169C115.474 143.026 115.093 144.073 113.244 144.073H110.375V140.293Z" fill="white"/>
<path d="M184.383 140.171V137.343H173.791V140.171H177.299V149.172H173.791V152H184.383V149.172H180.861V140.171H184.383Z" fill="white"/>
<path d="M209.496 142.591L213.222 152H219.327V137.343H215.765V146.616L216.553 148.914H215.683L214.758 146.752L211.046 137.343H204.941V152H208.504V142.727L207.702 140.429H208.572L209.496 142.591Z" fill="white"/>
<path d="M150.649 151.986H154.252L150.336 137.329H143.769L139.771 151.986H143.375L144 149.621H149.942L150.649 151.986ZM144.775 147.037L146.57 140.239H147.535L149.33 147.037H144.775Z" fill="white"/>
</g>
<defs>
<clipPath id="clip0_3567_74544">
<rect width="283" height="152" fill="white" transform="translate(0.5)"/>
</clipPath>
</defs>
</svg>
