<svg width="100%" height="100%" viewBox="0 0 302 141"  fill="white"  xmlns="http://www.w3.org/2000/svg">
<g clip-path="url(#clip0_50_6486)">
<path d="M279.52 83.4728V82.8103H282.879V83.4728H281.554V87.0218H280.845V83.4728H279.52Z"  />
<path d="M284.251 82.8103L285.198 85.271L286.144 82.8103H287.233V87.0218H286.57V83.6147L285.576 85.9807H284.772L283.825 83.6147V87.0218H283.163V82.8103H284.251Z"  />
<path d="M55.8857 84.8924L58.5356 84.4192L58.441 82.8577H47.652L41.5477 105.713L41.6896 103.631L34.8282 82.8577H23.2821L23.1401 84.4192L25.7427 84.8924L24.1339 110.54L21.5312 111.013L21.6732 112.622H29.1498L29.1971 111.013L26.4525 110.54L28.0614 85.3656L28.8659 88.0629L36.6737 112.717H41.0745L48.6457 85.8862L48.3618 88.4888L49.7341 110.54L47.1788 111.013L47.3207 112.622H59.9552L60.0972 111.013L57.3999 110.54L55.8857 84.8924Z"  />
<path d="M80.3961 109.83C80.2358 109.338 80.1248 108.83 80.0649 108.316C80.0139 107.702 80.0139 107.084 80.0649 106.47V97.8107C80.1043 96.7408 79.9106 95.6752 79.497 94.6877C79.1663 93.895 78.6061 93.2193 77.8883 92.7475C77.0504 92.2334 76.1165 91.8952 75.1437 91.7538C73.8129 91.5495 72.4678 91.4545 71.1216 91.4699L61.6575 95.1135V99.467H68.2348L68.85 94.0725L69.7017 93.7413H70.6008C70.8798 93.7148 71.1613 93.7521 71.4237 93.8505C71.686 93.9488 71.9224 94.1057 72.1151 94.3091C72.4749 95.0257 72.6228 95.8301 72.5411 96.6277V100.177L63.0771 103.016C62.3626 103.564 61.7937 104.279 61.4207 105.098C61.0436 105.914 60.8498 106.802 60.8529 107.701C60.8226 108.536 61.0018 109.365 61.3736 110.114C61.6989 110.803 62.1859 111.404 62.7932 111.865C63.4319 112.364 64.1525 112.748 64.9226 113.001C65.7683 113.247 66.6443 113.375 67.5252 113.379L72.825 109.83L74.1028 113.284L82.6203 111.534V109.925L80.3961 109.83ZM72.4464 108.458L71.9733 108.789L71.1687 109.215C70.8406 109.28 70.5032 109.28 70.1751 109.215C69.8982 109.203 69.6284 109.123 69.3892 108.983C69.1501 108.843 68.9487 108.646 68.8026 108.41C68.3444 107.693 68.129 106.847 68.1877 105.997C68.1858 105.309 68.2814 104.624 68.4717 103.962C68.6892 103.392 69.0281 102.875 69.4652 102.448L72.4464 101.312V108.458Z"  />
<path d="M99.0411 107.606C98.3084 107.845 97.5403 107.957 96.7698 107.937C95.8338 107.958 94.9072 107.747 94.0726 107.322C93.2686 106.904 92.5597 106.324 91.9905 105.619C91.3854 104.855 90.9209 103.99 90.6183 103.063C90.289 102.023 90.1291 100.937 90.1449 99.8456C90.1289 98.8601 90.2242 97.876 90.4288 96.9118C90.591 96.2184 90.8459 95.55 91.1861 94.9244C91.4577 94.4963 91.8114 94.1263 92.227 93.836C92.5512 93.5838 92.952 93.4502 93.3626 93.4574C93.647 93.4638 93.9248 93.5454 94.1673 93.694L95.3029 99.3251H101.265V93.5994C100.344 92.8725 99.3032 92.312 98.1894 91.9432C96.9724 91.5214 95.6917 91.3132 94.4038 91.328C92.9089 91.6968 91.4516 92.2037 90.0505 92.8423C88.7224 93.4553 87.5066 94.2871 86.4541 95.3029C85.4327 96.2682 84.6124 97.4261 84.0407 98.7099C83.4123 100.09 83.1048 101.595 83.1416 103.111C83.1138 104.505 83.3713 105.89 83.8986 107.18C84.3867 108.394 85.1479 109.479 86.1228 110.351C87.0672 111.26 88.1973 111.954 89.4353 112.385C90.7755 112.913 92.2066 113.17 93.6466 113.143L96.0126 112.102C96.6973 111.746 97.3611 111.351 98.0002 110.919C98.6597 110.537 99.292 110.11 99.8928 109.641C100.461 109.168 101.076 108.647 101.691 108.032L100.887 106.707C100.306 107.073 99.6871 107.374 99.0411 107.606Z"  />
<path d="M124.784 97.7634C124.829 96.7117 124.717 95.6591 124.452 94.6403C124.288 93.9508 123.936 93.3204 123.434 92.8192C122.933 92.318 122.303 91.9656 121.613 91.8011C120.689 91.5476 119.732 91.4359 118.774 91.4699L111.818 95.8233V82.3844H109.878L102.307 83.5201V85.1763H104.436V110.54L102.401 111.013V112.622H112.859V111.013L111.439 110.54V97.7162L112.291 97.1483L113.711 96.3438C114.178 96.0971 114.697 95.9672 115.225 95.9653C116.361 95.9653 116.929 96.6751 116.929 98.0001V110.54L115.509 111.013V112.622H126.298V111.013L124.169 110.54L124.784 97.7634Z"  />
<path d="M149.579 110.019C149.579 109.546 149.295 109.12 149.201 108.647C149.137 108.018 149.137 107.384 149.201 106.754V91.8958H147.024L140.068 93.3627V95.0189H142.008V107.606L141.251 108.032L140.162 108.647C139.816 108.789 139.448 108.869 139.074 108.884C137.654 108.884 136.992 108.079 136.992 106.565V92.369H134.721L127.48 93.8359V95.4921H129.421V107.606C129.391 108.67 129.487 109.734 129.705 110.777C129.908 111.509 130.319 112.166 130.888 112.669C132.267 113.636 133.941 114.088 135.62 113.947L142.055 109.783L143.096 113.758L151.235 112.291V110.682L149.579 110.019Z"  />
<path d="M176.882 87.1163C176.421 86.178 175.739 85.3659 174.895 84.7503C174.049 84.1079 173.084 83.6413 172.055 83.3781C170.933 83.0519 169.769 82.8925 168.601 82.9048H152.465V84.4664L155.02 84.9396V110.54L152.465 111.013V112.622H166.377V111.013L162.733 110.54V98.4258L164.105 99.7508H165.951C167.513 99.3249 168.979 98.8518 170.399 98.3785C171.732 97.9424 173.004 97.3381 174.185 96.5804C175.213 95.9457 176.086 95.0887 176.74 94.0724C177.427 93.0016 177.774 91.7478 177.734 90.4761C177.717 89.3049 177.425 88.1541 176.882 87.1163ZM167.938 95.9652C167.595 96.4988 167.127 96.9412 166.575 97.2543C166.022 97.5675 165.402 97.7422 164.768 97.7634H162.828V84.7976L164.768 84.4664C165.407 84.4707 166.035 84.6328 166.596 84.9382C167.158 85.2436 167.635 85.683 167.986 86.2172C168.912 87.6151 169.36 89.2753 169.263 90.9493C169.364 92.7193 168.9 94.4756 167.938 95.9652Z"  />
<path d="M227.042 107.606C226.326 107.845 225.573 107.957 224.818 107.937C223.882 107.958 222.955 107.747 222.121 107.322C221.309 106.916 220.597 106.334 220.039 105.619C219.417 104.866 218.95 103.998 218.666 103.063C218.321 102.026 218.145 100.939 218.146 99.8457C218.144 98.8582 218.254 97.8738 218.477 96.9118C218.617 96.2119 218.873 95.5403 219.234 94.9244C219.506 94.4963 219.86 94.1263 220.275 93.836C220.599 93.5838 221 93.4502 221.411 93.4574C221.694 93.4699 221.97 93.5512 222.215 93.694L223.304 99.3251H229.313V93.5994C228.386 92.8817 227.347 92.3222 226.238 91.9432C225.005 91.5169 223.708 91.3087 222.405 91.328C220.912 91.7042 219.455 92.2109 218.051 92.8423C216.73 93.4671 215.516 94.2976 214.455 95.3029C213.463 96.2934 212.647 97.4455 212.042 98.7099C211.435 100.097 211.129 101.597 211.142 103.111C211.148 103.905 211.228 104.697 211.379 105.477C210.15 106.365 208.814 107.096 207.404 107.653C206.62 107.876 205.805 107.972 204.991 107.937C204.055 107.958 203.128 107.747 202.294 107.322C201.49 106.904 200.781 106.324 200.211 105.619C199.606 104.855 199.142 103.99 198.839 103.063C198.533 102.018 198.374 100.935 198.366 99.8457C198.35 98.8601 198.445 97.876 198.65 96.9118C198.826 96.2157 199.097 95.547 199.454 94.9244C199.699 94.4759 200.058 94.1002 200.495 93.836C200.807 93.5938 201.189 93.4608 201.584 93.4574C201.868 93.4638 202.146 93.5454 202.388 93.694L203.524 99.3251H209.486V93.5994C208.565 92.8725 207.524 92.312 206.41 91.9432C205.194 91.5176 203.913 91.3094 202.625 91.328C201.132 91.7042 199.675 92.2109 198.271 92.8423C196.95 93.4671 195.736 94.2976 194.675 95.3029C193.654 96.2682 192.833 97.4261 192.262 98.7099C191.633 100.09 191.326 101.595 191.363 103.111C191.327 104.51 191.601 105.9 192.167 107.18C192.638 108.391 193.383 109.476 194.344 110.351C195.288 111.26 196.418 111.954 197.656 112.385C198.997 112.913 200.428 113.17 201.868 113.143L204.234 112.102L206.269 110.919C206.928 110.537 207.56 110.11 208.161 109.641L211.805 106.802C211.778 106.926 211.778 107.056 211.805 107.18C212.276 108.391 213.021 109.476 213.982 110.351C214.933 111.251 216.061 111.944 217.294 112.385C218.636 112.908 220.066 113.165 221.506 113.143C222.405 112.811 223.162 112.433 223.872 112.102C224.572 111.746 225.251 111.351 225.906 110.919C226.558 110.548 227.175 110.12 227.752 109.641C228.401 109.145 229.018 108.608 229.597 108.032L228.793 106.707C228.241 107.064 227.654 107.365 227.042 107.606Z"  />
<path d="M252.973 97.7634C252.995 96.7126 252.883 95.6633 252.642 94.6403C252.435 93.9457 252.061 93.3121 251.554 92.7948C251.053 92.3099 250.432 91.967 249.756 91.8011C248.832 91.5424 247.874 91.4306 246.916 91.4699L239.96 95.8233V82.3844H238.067L230.496 83.5201V85.1763H232.578V110.54L230.544 111.013V112.622H241.001V111.013L239.534 110.54V97.7162L240.386 97.1483L241.806 96.3438C242.274 96.1022 242.793 95.9726 243.32 95.9653C244.455 95.9653 245.071 96.6751 245.071 98.0001V110.54L243.604 111.013V112.622H254.393V111.013L252.263 110.54L252.973 97.7634Z"  />
<path d="M279.236 110.019H277.674C277.504 109.575 277.378 109.116 277.296 108.647C277.233 108.018 277.233 107.384 277.296 106.754V91.8958H274.788L267.784 93.3627V95.0189H269.677V107.606L268.967 108.032C268.61 108.273 268.229 108.479 267.832 108.647C267.489 108.798 267.118 108.879 266.743 108.884C265.371 108.884 264.661 108.079 264.661 106.565V92.369H262.437L255.197 93.8359V95.4921H257.09V107.606C257.072 108.672 257.183 109.737 257.421 110.777C257.624 111.509 258.035 112.166 258.604 112.669C259.978 113.647 261.657 114.101 263.336 113.947L269.819 109.783L270.813 113.758L278.999 112.291L279.236 110.019Z"  />
<path d="M184.858 81.3074L180.51 85.6587L184.861 90.007L189.209 85.6557L184.858 81.3074Z"  />
<path d="M188.145 91.8483H186.205L178.728 93.2206L178.87 94.8768L180.905 94.7348V110.54L178.87 111.013L178.965 112.622H190.085L190.18 111.013L188.145 110.54V91.8483Z"  />
<path d="M83.2835 124.215H68.0938V127.575H73.6775V140.73H77.6997V127.575H83.2835V124.215Z"  />
<path d="M116.266 140.73H120.714L116.786 134.626V134.295H117.26C117.808 133.942 118.289 133.493 118.679 132.97C119.341 132.013 119.674 130.867 119.626 129.704C119.703 128.958 119.601 128.204 119.33 127.505C119.058 126.806 118.624 126.181 118.064 125.682C116.533 124.654 114.695 124.186 112.859 124.357H105.571V140.73H109.594V135.099H112.764L116.266 140.73ZM109.594 127.528H112.859C114.941 127.528 115.367 128.663 115.367 129.657C115.367 130.651 114.941 131.787 112.859 131.787H109.594V127.528Z"  />
<path d="M193.302 127.386V124.215H181.33V127.386H185.305V137.56H181.33V140.73H193.302V137.56H189.327V127.386H193.302Z"  />
<path d="M221.695 130.13L225.906 140.73H232.815V124.215H228.793V134.673L229.692 137.276H228.698L227.657 134.815L223.446 124.215H216.537V140.73H220.559V130.272L219.66 127.67H220.654L221.695 130.13Z"  />
<path d="M155.068 140.73H159.138L154.737 124.168H147.307L142.859 140.73H147.024L147.733 138.033H154.453L155.068 140.73ZM148.443 135.099L150.478 127.528H151.756L153.79 135.099H148.443Z"  />
<path d="M25.6474 12.6819L26.4045 9.18018H0.757L-0.00012207 12.6819H10.8835L10.8362 12.7292L5.20509 39.3704H9.13266L14.8111 12.6819H25.6474Z"  />
<path d="M53.0931 9.18018L50.3486 21.9093H32.5089V21.862L35.2061 9.18018H31.3259L24.843 39.3704H28.8179L31.7518 25.411H49.5914V25.4583L46.6576 39.3704H50.5852L57.0207 9.18018H53.0931Z"  />
<path d="M64.9705 9.18018L58.5349 39.3704H81.2013L81.9584 35.8687H63.2196V35.7741L65.3963 25.6003H81.5325L82.2423 22.0986H66.1061L66.1535 22.0039L68.1409 12.6819H86.8797L87.5895 9.18018H64.9705Z"  />
<path d="M97.1004 12.6819V9.18018H137.039V13.2971L109.167 31.8939H116.738C122.478 31.6348 128.141 33.3002 132.827 36.6259C134.834 38.2112 136.431 40.2546 137.485 42.5847C138.539 44.9148 139.019 47.4637 138.884 50.0175C139.017 52.5962 138.532 55.1693 137.47 57.5231C136.408 59.8769 134.8 61.9434 132.78 63.551C128.151 66.9209 122.502 68.5922 116.785 68.2831C111.065 68.6199 105.407 66.946 100.791 63.551C98.7619 61.9484 97.1451 59.884 96.0751 57.53C95.0051 55.1759 94.5128 52.6002 94.6397 50.0175V48.4086H98.3778V50.0175C98.2883 52.1297 98.7056 54.2326 99.5946 56.1507C100.484 58.0688 101.819 59.7463 103.488 61.0431C107.326 63.8325 111.999 65.2341 116.738 65.018C121.5 65.2322 126.196 63.8498 130.082 61.0904C131.749 59.7939 133.08 58.1153 133.961 56.1962C134.842 54.2771 135.249 52.174 135.146 50.0648C135.255 47.9731 134.855 45.8862 133.982 43.9825C133.108 42.0789 131.787 40.4152 130.13 39.1338C126.177 36.4991 121.482 35.2051 116.738 35.4429H103.915V31.3733L131.597 12.8238L97.1004 12.6819Z"  />
<path d="M190.653 23.9912C190.585 23.5349 190.458 23.0895 190.274 22.6662C189.853 21.6711 189.363 20.7066 188.807 19.7797C188.021 18.4213 187.05 17.179 185.921 16.0887C184.544 14.8195 182.938 13.8238 181.189 13.1548C179.04 12.2828 176.74 11.8484 174.422 11.8772C171.315 11.708 168.227 12.4568 165.543 14.0303C162.859 15.6038 160.697 17.9325 159.327 20.7261C156.38 27.0075 154.985 33.9044 155.257 40.8372C155.257 40.5532 155.541 40.1274 155.825 39.6069C156.39 38.6329 157.022 37.6999 157.718 36.8149C158.741 35.4963 159.935 34.3189 161.267 33.3133C162.959 32.1173 164.827 31.1915 166.803 30.5687C170.786 29.2883 175.02 28.9939 179.141 29.711C183.262 30.4281 187.148 32.1352 190.463 34.6855C192.364 36.5293 193.875 38.7359 194.906 41.1744C195.938 43.6129 196.47 46.2338 196.47 48.8816C196.47 51.5294 195.938 54.1503 194.906 56.5888C193.875 59.0273 192.364 61.2338 190.463 63.0776C185.932 66.7523 180.202 68.6229 174.375 68.3302C171.186 68.4967 168.001 67.9308 165.064 66.6759C162.128 65.4209 159.518 63.5101 157.434 61.0902C153.184 55.7231 151.016 49.0011 151.33 42.1621V38.9444C151.052 31.1957 153.078 23.5387 157.15 16.9405C158.995 14.1324 161.542 11.8559 164.539 10.3368C167.535 8.81766 170.877 8.10888 174.233 8.28087C177.051 8.23074 179.85 8.74565 182.466 9.79515C184.646 10.5822 186.643 11.806 188.334 13.3915C189.742 14.6921 190.953 16.1904 191.93 17.8396C193.235 19.6359 194.11 21.7083 194.486 23.8965L190.653 23.9912ZM187.861 60.5696C189.475 59.0807 190.764 57.2735 191.645 55.2619C192.527 53.2502 192.982 51.0778 192.982 48.8816C192.982 46.6853 192.527 44.513 191.645 42.5013C190.764 40.4897 189.475 38.6824 187.861 37.1935C184.126 34.2042 179.439 32.6589 174.659 32.84C170.062 32.7907 165.616 34.481 162.213 37.5721C160.564 38.9936 159.246 40.7605 158.355 42.7476C157.463 44.7346 157.02 46.8934 157.055 49.0709C157.002 51.235 157.429 53.3841 158.304 55.364C159.179 57.3438 160.482 59.1054 162.119 60.5224C165.525 63.6696 170.023 65.3669 174.659 65.2544C179.485 65.3645 184.183 63.6973 187.861 60.5696Z"  />
<path d="M235.087 68.4721C231.479 68.6093 227.889 67.9021 224.603 66.4069C221.317 64.9118 218.425 62.6699 216.159 59.8599C211.634 53.6284 209.197 46.1249 209.197 38.4239C209.197 30.7229 211.634 23.2194 216.159 16.9879C218.509 14.2726 221.415 12.0948 224.681 10.6021C227.947 9.10938 231.496 8.33679 235.087 8.33679C238.678 8.33679 242.227 9.10938 245.493 10.6021C248.759 12.0948 251.665 14.2726 254.015 16.9879C258.539 23.2194 260.976 30.7229 260.976 38.4239C260.976 46.1249 258.539 53.6284 254.015 59.8599C251.756 62.6785 248.865 64.9264 245.578 66.4224C242.29 67.9184 238.696 68.6205 235.087 68.4721ZM235.087 11.688C231.98 11.5607 228.888 12.1822 226.072 13.4998C223.255 14.8174 220.797 16.7927 218.903 19.2592C214.84 24.7164 212.739 31.3863 212.941 38.1873C212.712 44.9919 214.816 51.6703 218.903 57.1153C220.875 59.4965 223.347 61.4133 226.145 62.729C228.942 64.0447 231.995 64.7269 235.087 64.7269C238.178 64.7269 241.231 64.0447 244.029 62.729C246.826 61.4133 249.299 59.4965 251.27 57.1153C255.362 51.6747 257.451 44.9893 257.185 38.1873C257.424 31.3888 255.337 24.7122 251.27 19.2592C249.357 16.8274 246.89 14.8884 244.074 13.6043C241.259 12.3201 238.177 11.728 235.087 11.8773V11.688Z"  />
<path d="M270.907 15.1425C270.856 13.1461 271.211 11.1599 271.951 9.3051C272.691 7.45027 273.801 5.7655 275.214 4.35344C276.671 2.89205 278.416 1.75022 280.339 1.00068C282.262 0.251137 284.319 -0.0896605 286.381 -9.55537e-06C288.448 -0.076271 290.51 0.270557 292.438 1.01916C294.367 1.76777 296.122 2.90236 297.596 4.35344C299.76 6.49923 301.226 9.24795 301.802 12.2402C302.379 15.2325 302.039 18.3291 300.828 21.1252C299.616 23.9214 297.589 26.287 295.012 27.9127C292.434 29.5384 289.426 30.3487 286.381 30.2376C284.357 30.3286 282.336 30.0034 280.442 29.2819C278.549 28.5605 276.824 27.4582 275.373 26.0433C273.923 24.6284 272.778 22.9309 272.01 21.0559C271.242 19.1809 270.867 17.1683 270.907 15.1425ZM298.211 15.1425C298.27 12.0662 297.114 9.09068 294.994 6.86147C292.68 4.61533 289.582 3.35896 286.358 3.35896C283.133 3.35896 280.035 4.61533 277.722 6.86147C275.65 9.12176 274.501 12.0764 274.501 15.1425C274.501 18.2085 275.65 21.1632 277.722 23.4235C280.035 25.6697 283.133 26.926 286.358 26.926C289.582 26.926 292.68 25.6697 294.994 23.4235C296.086 22.3388 296.954 21.0488 297.547 19.6276C298.14 18.2065 298.446 16.6823 298.448 15.1425H298.211Z"  />
</g>
<defs>
<clipPath id="clip0_50_6486">
<rect width="302" height="141"   />
</clipPath>
</defs>
</svg>
