<svg width="100%" height="100%" viewBox="0 0 180 149.93" fill="white" ><defs><style>.visovisocls-1,.visovisocls-2{fill:#ffffff}.visovisocls-1{fill-rule:evenodd}</style></defs><g id="Capa_2" data-name="Capa 2"><g id="g5406"><path id="path5408" d="m77 37.13-3.72 3.71c.12.11.23.24.35.35l3.51-3.92-.14-.14m.82.73-3.49 3.93.51.42L78 38.06a2.2 2.2 0 0 1-.23-.2m26.69-3 4.15 3.14a23.47 23.47 0 0 0 4.47-10.35l-5.18-.74a18.41 18.41 0 0 1-3.41 7.9m-3.4 3.48 3.13 4.15.54-.42-3.42-3.94a1.73 1.73 0 0 0-.25.21m.94-.8 3.41 3.93a5.16 5.16 0 0 0 .54-.5l-3.68-3.68a3.2 3.2 0 0 1-.27.25m-25.95-1.3-4 3.45.51.53 3.72-3.71c-.08-.1-.17-.18-.25-.27m26.89.4 3.68 3.69c.11-.13.24-.23.35-.36l-3.9-3.48-.13.15m.75-.82 3.88 3.45q.23-.24.45-.51l-4.12-3.19-.21.25m4.44-11 5.2.38v-.76h-5.22ZM108 26l5.17.72.09-.67-5.22-.38V26m-3.85-13.75 4.19-3.15c-.13-.19-.28-.37-.42-.55L104 12l.2.25M88.1 5.36 87.81.07l-.7.06.66 5.26h.33m13.55 4.3 3.5-3.94c-.19-.14-.35-.3-.54-.44l-3.22 4.17a1.83 1.83 0 0 0 .26.21m2.24-4.95A23.5 23.5 0 0 0 93.41.29l-.73 5.23a18.32 18.32 0 0 1 8 3.36ZM90.91 0h-.75v5.29h.39Zm-1.69 5.29V0h-.52l.3 5.31a1.65 1.65 0 0 1 .21 0m3.3-5.15-.69-.07-.4 5.28h.35Zm15.6 22.21 5.23-.28v-.7l-5.2.66v.32m-32.86 12.9-4.2 3.18c.14.17.28.35.43.52l4-3.45a2.73 2.73 0 0 1-.2-.25M108 21.13l5.2-.65a23.65 23.65 0 0 0-4.25-10.62l-4.2 3.14a18.4 18.4 0 0 1 3.24 8.1m-5.52-10.71 3.74-3.72c-.12-.13-.26-.24-.39-.37l-3.49 3.94a.66.66 0 0 1 .14.15m.92.92 4-3.43c-.16-.2-.34-.37-.52-.57l-3.73 3.72.28.28m4.78 12.15h5.23V23l-5.23.32a.6.6 0 0 0 0 .19m-36.92.79h-5.29v.5l5.29-.29a.58.58 0 0 1 0-.18m0-1.3L66 22.6v.74h5.29a2.42 2.42 0 0 1 0-.38m0 2.39-5.29.33c0 .21 0 .44.07.67l5.24-.66v-.32m0-3.61L66.1 21q0 .33-.06.69l5.28.38v-.32m.12 4.84-5.26.65a23.57 23.57 0 0 0 4.31 10.47l4.21-3.18a18.16 18.16 0 0 1-3.26-7.94M75.5 12l-4-3.53c-.15.18-.29.35-.42.53l4.18 3.27a1.94 1.94 0 0 1 .24-.27m-.76 1-4.2-3.3a23.52 23.52 0 0 0-4.31 10.41l5.24.74a18.57 18.57 0 0 1 3.27-7.91m3.35-3.53L74.9 5.17c-.19.14-.36.29-.53.42l3.47 4 .25-.2m-.94.81-3.48-4c-.18.16-.37.34-.54.51l3.75 3.76.27-.26m9.72-4.71L86.2.24a23.64 23.64 0 0 0-10.58 4.37l3.19 4.23a18.46 18.46 0 0 1 8.06-3.34m-10.63 5.61-3.75-3.74-.36.38 4 3.51s.08-.08.13-.15" class="visocls-1"/></g><g id="g5410"><path id="path5412" d="M74.33 32.45a17.52 17.52 0 0 0 14.75 8.91v-8.85h-3.5v.31H88v.79h-3.15v1.34h.72v.35h-.72v.11h.73v.37h-.76v.11h.79v.34H84v-1.96h-.23v2h-2.71v-2h-.25v1.9h-1.56v-.29H80v-.13h-.75v-.37H80v-.14h-.72v-.3H80v-1.39h-3.17v-.79h2.44v-.3Z" class="visocls-1"/></g><g id="g5414"><path id="path5416" d="M79.27 32.46h-2.44v-.87h2.44v-.25h-2.43v-.88h2.44v-.32h-2.44v-.84h2.23v-.59h-.57V28h-.73v-.68h-.74v-.62h3.15l.54 2.08h1v-.67h-.88v-1.36h.91v-.49h1.76v2.49h.67l.83-2h2.82v.62h-.74v.67h-.79v.69h-.57v.59h2.29v.79h-2.46v.33h2.45v.85h-2.42v.31H88v.83h-2.4 3.5v-8.18l-17.08-.06a17.59 17.59 0 0 0 2.27 8.19Z" class="visocls-1"/></g><g id="g5418"><path id="path5420" d="M77.57 16.12a4.67 4.67 0 0 1 .6 1.15 1.17 1.17 0 0 1 .8-.36 1.08 1.08 0 0 1 .65.25A19.86 19.86 0 0 1 80.91 13a9.72 9.72 0 0 1 1.4-2.27c.55-.63 1.08-1.13 1.62-1.15 1 0 1.78 1.08 2.41 2.3a14.11 14.11 0 0 1 1.2 3.42 60.35 60.35 0 0 1 .46 6.58v.21H74.14v-.5a10 10 0 0 1 1-4.66c.55-.93 1.05-1.36 1.42-1.42a1.49 1.49 0 0 1 1 .66m-5.51 7.2 17.09.07.07-17.12a17.56 17.56 0 0 0-17.15 17m9.14-1.8h6.11a47.54 47.54 0 0 0-.44-5.87h.19-.19a11.84 11.84 0 0 0-1.1-3.16c-.55-1.13-1.31-2-2-2-.24 0-.78.37-1.26 1a8.84 8.84 0 0 0-1.16 2.07 19.73 19.73 0 0 0-1.2 4.14c.41.62.72 1.3 1 3.81m-5.64-4.28a9.43 9.43 0 0 0-.76 4.26h5.78v.08c-.17-2.21-.52-3.15-.9-3.7a.75.75 0 0 0-.6-.37.82.82 0 0 0-.61.35c.11.42.19.89.28 1.47a.19.19 0 0 1-.15.22c-.11 0-.26 0-.28-.13a8.38 8.38 0 0 0-.37-1.68 3.42 3.42 0 0 0-.56-1.11c-.37-.48-1-1-1.82.59m26.05 4.45h-.87v-3h-.37v3h-.84v-3h-4.5v3h-.82v-2.99h-.4v3H93v-3h-.56v-3.23H93v-3.08h-1.32v-.68H93v-.23h-1.32v-.72h1.42V9.2h.77v1.53h.37V9.21h.84v6.24h5.75v-2.18h.85ZM90.15 6.27l-.06 17.13 17.06.05a17.56 17.56 0 0 0-17-17.18" class="visocls-1"/></g><g id="g5422"><path id="path5424" d="M90.24 24.38h6.55v2.18h-6.55Z" class="visocls-2"/></g><g id="g5426"><path id="path5428" d="M90.22 27.29h2.67v4.45H90.2Z" class="visocls-2"/></g><g id="g5430"><path id="path5432" d="M96.79 27.31h-3v7.58h7.11v-6.52h-4.12Z" class="visocls-2"/></g><g id="g5434"><path id="path5436" d="M101.73 28.41h4.53a13.51 13.51 0 0 1-1.15 3.1 24.28 24.28 0 0 1-2.34 3.33h-1.06Z" class="visocls-2"/></g><g id="g5438"><path id="path5440" d="m95.31 35.77.13 4.28a13.87 13.87 0 0 0 3.79-1.8c2.45-1.65 2.7-2.45 2.7-2.45Z" class="visocls-2"/></g><g id="g5442"><path id="path5444" d="M92.92 32.6h-2.7v8.61a12.52 12.52 0 0 0 1.9-.19 25.76 25.76 0 0 0 2.5-.65l-.12-4.6h-1.59Z" class="visocls-2"/></g><g id="g5446"><path id="path5448" d="M106.92 25.88c0-.48.08-1.44.08-1.44h-9.38v3.12h8.92s.29-1.18.39-1.67" class="visocls-2"/></g><g id="g5450"><path id="path5452" d="m79.73 41.22-.45.68.24.18a.4.4 0 0 0 .62-.1c.15-.22.12-.42-.16-.61Zm18.74.25.55-.41 1.34 1.86 1-.71.27.37-1.55 1.12Zm-.33 3.22L97 42.21l.63-.31 1.17 2.49Zm-1.84.7-.3-.52-.88.24v.61l-.7.18.15-2.9.82-.23L97 45.2Zm-3.68.79a.58.58 0 0 1-.12-.29l-.08-.53c0-.2-.16-.32-.43-.28h-.37l.12 1.16-.68.07-.29-2.74 1.23-.1c.57-.06.93.15 1 .61a.63.63 0 0 1-.5.73c.47 0 .57.21.65.79 0 .27 0 .44.19.47Zm-2.94-.63c0 .71-.56.88-1.12.86s-1.1-.19-1.07-.93l.08-1.9h.68l-.07 1.92c0 .26.07.47.4.48s.4-.19.41-.47l.07-1.9h.69Zm-3.23-1.39a.62.62 0 0 1-.7.53c.45.15.48.38.37.93-.05.29-.06.44.06.52l-.74-.14a.44.44 0 0 1 0-.3l.1-.52c0-.22-.06-.36-.33-.42l-.36-.08-.25 1.14-.67-.14.53-2.68 1.25.27c.56.12.84.42.74.88m-3-1-1.13-.47-.25.61 1.07.43-.18.42-1.06-.44-.28.68 1.19.49-.19.42-1.82-.74 1-2.55 1.77.73Zm-4.12-.72-.3-.21-.61.91-.57-.38 1.51-2.27 1 .67a.8.8 0 0 1 .33 1.21c-.31.46-.82.44-1.37.07m21-3.6a18.57 18.57 0 0 1-10.71 3.38 18.25 18.25 0 0 1-10.87-3.61l-3.23 4.16a23.72 23.72 0 0 0 27.95.23Zm-8.53 5h-.33l.09.78h.3c.32 0 .49-.18.45-.48s-.2-.35-.51-.32m-6.46-.28-.31-.07-.17.78.28.05c.34.07.54 0 .6-.29s-.07-.4-.4-.47m9.74-.25v1.27l.65-.17-.65-1.1Z" class="visocls-2"/></g><path d="M45.2 71a.44.44 0 0 1-.32-.13.45.45 0 0 1-.14-.33V58a.48.48 0 0 1 .14-.35.44.44 0 0 1 .32-.13h5.18A6.77 6.77 0 0 1 53 58a3.74 3.74 0 0 1 1.74 1.43 4.9 4.9 0 0 1 0 4.77A3.74 3.74 0 0 1 53 65.56a6.78 6.78 0 0 1-2.62.46H47.5v4.52a.48.48 0 0 1-.12.33.45.45 0 0 1-.38.13Zm2.26-7.12h2.82a2.53 2.53 0 0 0 1.72-.53 2 2 0 0 0 .6-1.58 2.17 2.17 0 0 0-.6-1.55 2.34 2.34 0 0 0-1.76-.59h-2.78ZM57.93 71a.44.44 0 0 1-.33-.13.45.45 0 0 1-.14-.33V58a.48.48 0 0 1 .14-.35.44.44 0 0 1 .33-.13h8.49a.48.48 0 0 1 .35.13.48.48 0 0 1 .14.35v1.28a.45.45 0 0 1-.14.32.48.48 0 0 1-.35.14h-6.35v3.42H66a.53.53 0 0 1 .35.12.45.45 0 0 1 .13.34v1.2a.42.42 0 0 1-.13.33.49.49 0 0 1-.35.13h-5.93v3.53h6.51a.46.46 0 0 1 .34.14.47.47 0 0 1 .14.35v1.27a.46.46 0 0 1-.48.46ZM69.94 71a.44.44 0 0 1-.33-.13.45.45 0 0 1-.14-.33V58a.48.48 0 0 1 .14-.35.44.44 0 0 1 .33-.13h5a5.74 5.74 0 0 1 3.68 1.08A3.77 3.77 0 0 1 80 61.72a3.86 3.86 0 0 1-.71 2.37 4 4 0 0 1-1.88 1.37l2.82 4.93a.42.42 0 0 1 .06.21.41.41 0 0 1-.13.29.43.43 0 0 1-.28.11H78.1a.66.66 0 0 1-.5-.17 2.06 2.06 0 0 1-.27-.35l-2.49-4.57h-2.68v4.63a.49.49 0 0 1-.13.33.44.44 0 0 1-.34.13Zm2.22-7.28h2.72a2.52 2.52 0 0 0 1.76-.53 1.93 1.93 0 0 0 .57-1.49 2 2 0 0 0-.56-1.52 2.45 2.45 0 0 0-1.77-.55h-2.72ZM87.85 71.2a6.87 6.87 0 0 1-2.91-.57A4.13 4.13 0 0 1 83 68.87a6.11 6.11 0 0 1-.68-3V58a.48.48 0 0 1 .14-.35.44.44 0 0 1 .32-.13h1.76a.45.45 0 0 1 .34.13.51.51 0 0 1 .12.35v7.86a3.21 3.21 0 0 0 .76 2.34 3.14 3.14 0 0 0 4.12 0 3.25 3.25 0 0 0 .74-2.34V58a.48.48 0 0 1 .14-.35.46.46 0 0 1 .35-.13h1.73a.44.44 0 0 1 .34.13.52.52 0 0 1 .13.35v7.86a6.22 6.22 0 0 1-.67 3 4.08 4.08 0 0 1-1.89 1.76 6.9 6.9 0 0 1-2.9.58ZM97 71a.43.43 0 0 1-.31-.11.41.41 0 0 1-.12-.31V57.93a.45.45 0 0 1 .12-.33.43.43 0 0 1 .31-.11h4.49a5.06 5.06 0 0 1 3.24 1 3.57 3.57 0 0 1 1.21 2.94 3.71 3.71 0 0 1-.78 2.47 3.78 3.78 0 0 1-2.16 1.21l3.11 5.29a.49.49 0 0 1 .06.22.37.37 0 0 1-.12.27.4.4 0 0 1-.27.11h-.23a.62.62 0 0 1-.47-.16 2.42 2.42 0 0 1-.27-.36l-3.07-5.19h-4v5.29a.41.41 0 0 1-.12.31.49.49 0 0 1-.33.11Zm.79-6.87h3.61a3.83 3.83 0 0 0 2.5-.69 3 3 0 0 0 0-4.11 3.89 3.89 0 0 0-2.5-.68h-3.64ZM107.93 71a.4.4 0 0 1-.27-.11.36.36 0 0 1-.11-.27.89.89 0 0 1 0-.22l4.89-12.53a.79.79 0 0 1 .2-.29.62.62 0 0 1 .36-.09h.66a.58.58 0 0 1 .35.09.81.81 0 0 1 .21.29l4.88 12.53a.6.6 0 0 1 0 .22.37.37 0 0 1-.12.27.37.37 0 0 1-.27.11h-.38a.37.37 0 0 1-.29-.1.7.7 0 0 1-.14-.19l-1.2-3.09h-6.83l-1.2 3.09a.37.37 0 0 1-.12.19.4.4 0 0 1-.3.1Zm2.47-4.53h5.91l-3-7.61ZM121.87 71a.38.38 0 0 1-.42-.42V57.91a.38.38 0 0 1 .42-.42h.37a.38.38 0 0 1 .42.42v12.67a.38.38 0 0 1-.42.42ZM126.72 71a.45.45 0 0 1-.31-.11.41.41 0 0 1-.12-.31V57.91a.41.41 0 0 1 .12-.31.45.45 0 0 1 .31-.11h.36a.43.43 0 0 1 .31.11.41.41 0 0 1 .12.31v11.93h6.66a.45.45 0 0 1 .33.12.44.44 0 0 1 .11.33v.29a.41.41 0 0 1-.11.31.49.49 0 0 1-.33.11ZM45.85 149.76v-.55l1.13-.08.18-6.5-1.16-.08V142h2.39l1 2.23.65 1.48c.16.4.3.72.4 1s.18.48.26.69l.28-.74c.11-.26.24-.6.41-1l.63-1.47c.24-.58.56-1.3.94-2.16h2.34v.55l-1.17.08.21 6.5 1.12.08v.55h-3.17v-.55l1.21-.08c0-.72 0-1.34-.06-1.88s0-1 0-1.41v-3.07l-.27.69c-.1.26-.24.6-.41 1s-.39.95-.66 1.58l-1 2.41h-.61l-.78-1.78-.71-1.34c-.16-.38-.3-.7-.42-1l-.29-.68-.21-.51c-.06-.14-.11-.28-.16-.41v6.32l1.22.08v.55ZM55.84 149.76v-.55l.86-.1 2.69-7.11h.91l2.7 7.11.85.1v.55h-3v-.55l1.28-.1-.75-2H58.3l-.76 2 1.3.1v.55Zm5.28-3.32-.57-1.52-.35-1c-.08-.25-.16-.46-.21-.62l-.15-.45q-.06.21-.15.45c0 .16-.13.37-.22.62l-.37 1-.57 1.51ZM69.42 149.58a3.86 3.86 0 0 1-1.69.35 3.34 3.34 0 0 1-1.32-.26 2.93 2.93 0 0 1-1.06-.75 3.69 3.69 0 0 1-.71-1.21 4.71 4.71 0 0 1-.25-1.6 6 6 0 0 1 .25-1.82 3.55 3.55 0 0 1 .74-1.34 3.18 3.18 0 0 1 1.19-.84 4.14 4.14 0 0 1 1.59-.28 9 9 0 0 1 1.26.08c.36.06.66.12.92.18a1.2 1.2 0 0 1 0 .23V144.04h-.6l-.16-1.32a5.06 5.06 0 0 0-.65-.12 7 7 0 0 0-.87 0 3.1 3.1 0 0 0-1.1.19 2.58 2.58 0 0 0-.92.62 3.14 3.14 0 0 0-.63 1.08 4.54 4.54 0 0 0-.25 1.61 4.05 4.05 0 0 0 .2 1.31 3 3 0 0 0 .57 1 2.52 2.52 0 0 0 .84.61 2.61 2.61 0 0 0 1.06.21 3.23 3.23 0 0 0 1.29-.25 4.07 4.07 0 0 0 1.16-.76l.38.53a5 5 0 0 1-1.24.83ZM71.52 149.76v-.55l1.2-.1v-6.47l-1.2-.09V142h3.14v.55l-1.15.09v2.73h4.1v-2.73l-1.16-.09V142h3.14v.55l-1.2.09v6.47l1.2.1v.55h-3.14v-.55l1.16-.1v-3h-4.1v3l1.15.1v.55ZM87.12 146.58a8.8 8.8 0 0 1-.07 1.28 2.57 2.57 0 0 1-.29.86 2 2 0 0 1-.92.86 3.44 3.44 0 0 1-1.61.33 4 4 0 0 1-1.62-.31 1.85 1.85 0 0 1-1-1 3 3 0 0 1-.21-.91v-5.12l-1.07-.08V142h3.07v.56l-1.22.07v3.82a10.24 10.24 0 0 0 0 1 2.42 2.42 0 0 0 .13.69 1.5 1.5 0 0 0 .65.72 2.51 2.51 0 0 0 1.28.27 1.88 1.88 0 0 0 1.85-.87 4.42 4.42 0 0 0 .25-1.79v-3.88l-1.17-.08V142h3v.57l-1.1.06ZM91.56 149.76v-.55l1.19-.1v-6.47l-1.19-.09V142h3.82a4.2 4.2 0 0 1 .88.13 1.92 1.92 0 0 1 1 .66 2.07 2.07 0 0 1 .35 1.26 2.22 2.22 0 0 1-.42 1.42 2.18 2.18 0 0 1-1.13.75 4.68 4.68 0 0 1-.86.14H93.48v2.68l1.41.1v.55Zm2.79-4a7 7 0 0 0 .77 0 3.28 3.28 0 0 0 .7-.12 1.59 1.59 0 0 0 .72-.5 1.51 1.51 0 0 0 .29-1 1.34 1.34 0 0 0-.2-.74 1.26 1.26 0 0 0-.62-.47 3.8 3.8 0 0 0-.65-.14 6.93 6.93 0 0 0-.82 0h-1v3ZM98.76 149.76v-.55l1.19-.1v-6.47l-1.19-.09V142H102v.55l-1.2.09v6.47l1.2.1v.55ZM108.09 149.58a3.86 3.86 0 0 1-1.69.35 3.34 3.34 0 0 1-1.32-.26 2.93 2.93 0 0 1-1.06-.75 3.5 3.5 0 0 1-.7-1.21 4.71 4.71 0 0 1-.26-1.6 6 6 0 0 1 .25-1.82 3.69 3.69 0 0 1 .74-1.34 3.26 3.26 0 0 1 1.19-.84 4.21 4.21 0 0 1 1.59-.28 9.15 9.15 0 0 1 1.27.08l.92.18V144h-.59l-.16-1.32a5.4 5.4 0 0 0-.65-.12 7.23 7.23 0 0 0-.88 0 3.14 3.14 0 0 0-1.1.19 2.58 2.58 0 0 0-.92.62 3.14 3.14 0 0 0-.63 1.08 4.79 4.79 0 0 0-.24 1.61 3.8 3.8 0 0 0 .2 1.31 2.81 2.81 0 0 0 .56 1 2.52 2.52 0 0 0 .84.61 2.64 2.64 0 0 0 1.06.21 3.27 3.27 0 0 0 1.3-.25 4.36 4.36 0 0 0 1.16-.76l.37.53a5 5 0 0 1-1.25.87ZM115.34 149.58a3.83 3.83 0 0 1-1.69.35 3.41 3.41 0 0 1-1.32-.26 2.9 2.9 0 0 1-1-.75 3.52 3.52 0 0 1-.71-1.21 4.71 4.71 0 0 1-.26-1.6 6.3 6.3 0 0 1 .25-1.82 3.69 3.69 0 0 1 .74-1.34 3.35 3.35 0 0 1 1.19-.84 4.23 4.23 0 0 1 1.6-.28 9 9 0 0 1 1.26.08l.92.18v.23a3.26 3.26 0 0 1 0 .37v1.35h-.6l-.16-1.32a5.06 5.06 0 0 0-.65-.12 7.1 7.1 0 0 0-.88 0 3 3 0 0 0-1.09.19 2.5 2.5 0 0 0-.92.62 3 3 0 0 0-.64 1.08 4.79 4.79 0 0 0-.24 1.61 4.05 4.05 0 0 0 .2 1.31 2.81 2.81 0 0 0 .56 1 2.56 2.56 0 0 0 .85.61 2.59 2.59 0 0 0 1 .21 3.27 3.27 0 0 0 1.3-.25 4.21 4.21 0 0 0 1.16-.76l.38.53a5.06 5.06 0 0 1-1.25.83ZM117.45 149.76v-.55l1.19-.1v-6.47l-1.19-.09V142h3.13v.55l-1.14.09v2.73h4.09v-2.73l-1.16-.09V142h3.15v.55l-1.21.09v6.47l1.21.1v.55h-3.15v-.55l1.16-.1v-3h-4.09v3l1.14.1v.55ZM133.05 146.58a8.59 8.59 0 0 1-.08 1.28 2.56 2.56 0 0 1-.28.86 2.14 2.14 0 0 1-.92.86 3.48 3.48 0 0 1-1.62.33 4 4 0 0 1-1.61-.31 1.85 1.85 0 0 1-1-1 2.49 2.49 0 0 1-.21-.91v-5.12l-1.07-.08V142h3.06v.56l-1.21.07v4.82a2.39 2.39 0 0 0 .14.69 1.48 1.48 0 0 0 .64.72 2.58 2.58 0 0 0 1.29.27 1.86 1.86 0 0 0 1.84-.87 4.38 4.38 0 0 0 .26-1.79v-3.88l-1.17-.08V142h3v.57l-1.1.06ZM15.8 123.36a11.51 11.51 0 0 1-.44 3.3 7 7 0 0 1-1.29 2.47 5.49 5.49 0 0 1-2 1.53 6.8 6.8 0 0 1-2.72.53 7 7 0 0 1-2.7-.5 5.62 5.62 0 0 1-2-1.44A6.42 6.42 0 0 1 3.36 127a9.84 9.84 0 0 1-.42-3 8.39 8.39 0 0 1 1.71-5.69 6.14 6.14 0 0 1 4.89-2 5.92 5.92 0 0 1 4.66 1.78 7.58 7.58 0 0 1 1.6 5.27Zm-1.56.33a11.06 11.06 0 0 0-.24-2.37 5.34 5.34 0 0 0-.8-1.9 3.72 3.72 0 0 0-1.48-1.26 5.22 5.22 0 0 0-2.31-.45 4.43 4.43 0 0 0-3.65 1.57 6.78 6.78 0 0 0-1.28 4.41 9.26 9.26 0 0 0 .36 2.75 5.5 5.5 0 0 0 1 1.91 3.92 3.92 0 0 0 1.56 1.12 5.3 5.3 0 0 0 2 .35 4.33 4.33 0 0 0 3.52-1.58 7 7 0 0 0 1.32-4.55ZM20.35 129.87l2.19-.17v-11.85l-2.19-.16v-1h5.19c.62 0 1.22 0 1.82.06a9.23 9.23 0 0 1 1.56.23 3.53 3.53 0 0 1 1.84 1 2.83 2.83 0 0 1 .64 2 3.45 3.45 0 0 1-.71 2.24 3.78 3.78 0 0 1-2.23 1.19 4.13 4.13 0 0 1 2.6 1 3.13 3.13 0 0 1 .93 2.4 3.63 3.63 0 0 1-.92 2.63 4.28 4.28 0 0 1-2.46 1.23 14.3 14.3 0 0 1-2.25.22h-6.01Zm4.48-7h1.26l1.17-.08a3.36 3.36 0 0 0 1.86-.72 2.15 2.15 0 0 0 .75-1.78 2 2 0 0 0-1.6-2.08 6.13 6.13 0 0 0-1.1-.18c-.46 0-.92-.05-1.38-.05H24v4.93Zm-.84 6.7H26.92a8.14 8.14 0 0 0 1.46-.21 3 3 0 0 0 1.55-.9 2.61 2.61 0 0 0 .5-1.72 2.35 2.35 0 0 0-.73-1.74 3.65 3.65 0 0 0-2.44-.77H24ZM37.85 126.78l.33 2.54a8.41 8.41 0 0 0 1.59.4 10.76 10.76 0 0 0 1.52.13 3.89 3.89 0 0 0 2.49-.7 2.2 2.2 0 0 0 .85-1.8 3 3 0 0 0-.1-.83 1.74 1.74 0 0 0-.41-.7 3.89 3.89 0 0 0-.83-.62 13.18 13.18 0 0 0-1.35-.61l-1.78-.65a4.59 4.59 0 0 1-2.16-1.41 3.61 3.61 0 0 1-.66-2.24 3.93 3.93 0 0 1 .3-1.55 3.12 3.12 0 0 1 .9-1.24 4.3 4.3 0 0 1 1.53-.82 7.2 7.2 0 0 1 2.21-.3 15 15 0 0 1 1.94.12 13.69 13.69 0 0 1 1.71.32 12.38 12.38 0 0 1 .09 1.32v2.32H45l-.33-2.46a7.87 7.87 0 0 0-1.36-.23c-.49 0-.92-.06-1.28-.06a4.19 4.19 0 0 0-1.52.23 2.69 2.69 0 0 0-1 .58 2 2 0 0 0-.53.76 2.39 2.39 0 0 0-.15.8 2.77 2.77 0 0 0 .08.73 1.69 1.69 0 0 0 .31.63 2.83 2.83 0 0 0 .67.58 5.81 5.81 0 0 0 1.12.56l2 .78a9.56 9.56 0 0 1 1.5.73 4.29 4.29 0 0 1 1 .82 2.57 2.57 0 0 1 .56 1 4.18 4.18 0 0 1 .17 1.22 4.05 4.05 0 0 1-.33 1.65 3.5 3.5 0 0 1-.95 1.3 4.64 4.64 0 0 1-1.58.83 7.57 7.57 0 0 1-2.18.29 13.5 13.5 0 0 1-2.39-.2 10.16 10.16 0 0 1-1.88-.51c-.05-.49-.09-1-.1-1.65s0-1.29 0-2.05ZM50.49 130.87v-1l2.18-.17v-11.85l-2.18-.16v-1h10.19c0 .12 0 .31.07.56s0 .54 0 .85v2.12h-1l-.27-2.22h-5.36v4.85h5.4v1.32h-5.4v5.4h6l.32-2.45h1v2.49c0 .63-.05 1-.08 1.26ZM65.86 130.87v-1l2.19-.17v-11.85l-2.19-.16v-1h5.59c.63 0 1.21 0 1.73.06a6.52 6.52 0 0 1 1.46.27 3.33 3.33 0 0 1 1.75 1.2 3.63 3.63 0 0 1 .61 2.16 4 4 0 0 1-.27 1.53 3.59 3.59 0 0 1-1.73 1.92 5.47 5.47 0 0 1-1.29.45 2.86 2.86 0 0 1 .9 1c.17.25.37.57.61 1s.5.87.8 1.46a6.74 6.74 0 0 0 .58 1 3.25 3.25 0 0 0 .59.63 2.09 2.09 0 0 0 .7.35 2.88 2.88 0 0 0 .88.12 3.19 3.19 0 0 0 .59-.06v1.21a3.41 3.41 0 0 1-.6.1h-.6a2.93 2.93 0 0 1-2-.6 4.93 4.93 0 0 1-1.2-1.52L74 127c-.25-.47-.49-.88-.71-1.25a4.12 4.12 0 0 0-.62-.82 2 2 0 0 0-.6-.4H69.5v5.15l2.33.17v1Zm5.7-7.58a10.07 10.07 0 0 0 1.49-.1 3.41 3.41 0 0 0 1.19-.4 2.24 2.24 0 0 0 .89-.89 2.76 2.76 0 0 0 .31-1.34 2.24 2.24 0 0 0-1.44-2.31 4.39 4.39 0 0 0-1.14-.24c-.45 0-1-.05-1.51-.05H69.5v5.33ZM87.56 130.87l-4.83-13-1.58-.16v-1h5.51v1l-2.31.16 1.47 4c.4 1.12.74 2.06 1 2.83l.69 1.89.42 1.22c.1.32.19.58.26.77s.13.39.19.57c0-.15.12-.33.19-.52l.27-.78c.11-.32.26-.73.44-1.23s.42-1.14.72-1.92l1-2.85c.4-1.11.89-2.44 1.47-4l-2.36-.16v-1h5.49v1l-1.58.16-4.91 13ZM97.64 130.87v-1l1.57-.17 4.94-13h1.66l4.87 13 1.56.17v1h-5.49v-1l2.36-.17-1.39-3.57h-5.56l-1.41 3.57 2.39.17v1Zm9.66-6.06c-.42-1.14-.76-2.07-1-2.79s-.48-1.31-.64-1.78l-.39-1.14c-.1-.28-.19-.56-.27-.83-.08.26-.18.53-.27.82s-.24.68-.41 1.15l-.68 1.79c-.27.73-.61 1.66-1 2.78ZM117.55 130.87v-1l2.23-.17V118h-4l-.38 2.52h-1v-3.18c0-.22 0-.44.07-.63h11.91a9.1 9.1 0 0 1 .1 1.43v2.41h-.94l-.38-2.52h-3.96v11.7l2.23.17v1ZM144 123.36a11.51 11.51 0 0 1-.44 3.3 6.81 6.81 0 0 1-1.28 2.47 5.45 5.45 0 0 1-2.05 1.53 6.73 6.73 0 0 1-2.72.53 7 7 0 0 1-2.7-.5 5.49 5.49 0 0 1-2-1.44 6.27 6.27 0 0 1-1.24-2.26 9.84 9.84 0 0 1-.42-3 8.39 8.39 0 0 1 1.71-5.69 6.12 6.12 0 0 1 4.88-2 5.91 5.91 0 0 1 4.66 1.78 7.53 7.53 0 0 1 1.6 5.28Zm-1.55.33a10.45 10.45 0 0 0-.25-2.37 5.33 5.33 0 0 0-.79-1.9 3.79 3.79 0 0 0-1.48-1.26 5.28 5.28 0 0 0-2.31-.45 4.45 4.45 0 0 0-3.66 1.57 6.83 6.83 0 0 0-1.28 4.41 8.93 8.93 0 0 0 .37 2.75 5.19 5.19 0 0 0 1 1.91 3.89 3.89 0 0 0 1.55 1.12 5.35 5.35 0 0 0 2 .35 4.3 4.3 0 0 0 3.51-1.58 6.93 6.93 0 0 0 1.33-4.55ZM148.55 130.87v-1l2.18-.17v-11.85l-2.18-.16v-1h5.58q.94 0 1.74.06a6.63 6.63 0 0 1 1.46.27 3.34 3.34 0 0 1 1.74 1.2 3.56 3.56 0 0 1 .61 2.16 4.23 4.23 0 0 1-.26 1.53 3.67 3.67 0 0 1-.71 1.14 3.54 3.54 0 0 1-1 .79 5.47 5.47 0 0 1-1.29.45 2.86 2.86 0 0 1 .9 1c.17.25.38.57.61 1s.51.87.8 1.46a7.81 7.81 0 0 0 .58 1 3.63 3.63 0 0 0 .6.63 2 2 0 0 0 .69.35 2.93 2.93 0 0 0 .88.12 3.19 3.19 0 0 0 .59-.06V131a3.41 3.41 0 0 1-.6.1h-.59a3 3 0 0 1-2-.6 5.06 5.06 0 0 1-1.19-1.52c-.42-.76-.76-1.37-1-1.84s-.49-.88-.72-1.25a4.12 4.12 0 0 0-.62-.82 2 2 0 0 0-.59-.4h-2.61v5.15l2.33.17v1Zm5.69-7.58a10 10 0 0 0 1.49-.1 3.54 3.54 0 0 0 1.2-.4 2.22 2.22 0 0 0 .88-.89 2.76 2.76 0 0 0 .31-1.34 2.23 2.23 0 0 0-1.49-2.31 4.39 4.39 0 0 0-1.14-.24c-.44 0-.94-.05-1.5-.05h-1.81v5.33ZM167.55 130.87v-1l2.27-.17v-4.5l-4.82-7.35-1.55-.16v-1h5.57v1l-2.23.16 1.57 2.44 1 1.57c.28.42.5.78.68 1.07s.34.57.51.87c.17-.3.34-.58.51-.86s.4-.63.68-1l1-1.59c.41-.64.94-1.45 1.6-2.45l-2.29-.16v-1h5.53v1l-1.58.16-4.83 7.35v4.5l2.27.17v1ZM9.43 106.14 2.32 87 0 86.72v-1.49h8.1v1.49L4.7 87q1.3 3.4 2.16 5.85L8.38 97c.41 1.14.75 2.06 1 2.79s.47 1.32.62 1.79.29.86.39 1.14.2.57.28.84c.08-.23.17-.49.28-.77l.4-1.15c.16-.47.38-1.08.65-1.81L13.05 97c.43-1.15.95-2.55 1.55-4.19s1.31-3.59 2.16-5.86l-3.46-.24v-1.48h8.07v1.49l-2.32.28-7.24 19.18ZM22.48 106.14v-1.49l3.22-.25V87l-3.22-.24v-1.53h8.6v1.49l-3.22.28v17.4l3.22.25v1.49ZM35.13 100.11l.49 3.74a12.51 12.51 0 0 0 2.34.58 14.2 14.2 0 0 0 2.24.19 5.66 5.66 0 0 0 3.66-1 3.26 3.26 0 0 0 1.26-2.66 4.56 4.56 0 0 0-.12-1.24 2.45 2.45 0 0 0-.6-1 5.16 5.16 0 0 0-1.22-.91 16 16 0 0 0-2-.9l-2.63-1a6.76 6.76 0 0 1-3.2-2.09 5.27 5.27 0 0 1-1-3.29 6 6 0 0 1 .44-2.29 4.74 4.74 0 0 1 1.33-1.82 6.28 6.28 0 0 1 2.25-1.21 10.75 10.75 0 0 1 3.25-.43 23.52 23.52 0 0 1 2.86.17 18.18 18.18 0 0 1 2.52.48 17.82 17.82 0 0 1 .13 1.93v3.42h-1.49l-.46-3.62a11.08 11.08 0 0 0-2-.34q-1.08-.09-1.89-.09a6.26 6.26 0 0 0-2.23.34 4.21 4.21 0 0 0-1.43.85 3 3 0 0 0-.78 1.13 3.42 3.42 0 0 0-.23 1.17 4.1 4.1 0 0 0 .13 1.08 2.39 2.39 0 0 0 .46.93 4.18 4.18 0 0 0 1 .85 9.49 9.49 0 0 0 1.66.82l2.87 1.14a15.71 15.71 0 0 1 2.21 1.09 6.4 6.4 0 0 1 1.49 1.2 4.07 4.07 0 0 1 .82 1.46 6.19 6.19 0 0 1 .25 1.79A6.07 6.07 0 0 1 47 103a5.09 5.09 0 0 1-1.41 1.9 6.49 6.49 0 0 1-2.32 1.23 11.16 11.16 0 0 1-3.22.43 20.1 20.1 0 0 1-3.51-.29 15.12 15.12 0 0 1-2.76-.76 24.15 24.15 0 0 1-.16-2.43v-3ZM54.7 106.14v-1.49l3.3-.25V87.18h-5.86l-.56 3.71h-1.45V86.16c0-.33.05-.64.09-.93h17.62a11.69 11.69 0 0 1 .16 2.1v3.56h-1.36l-.56-3.71h-6v17.22l3.28.25v1.49ZM67.88 106.14v-1.49l2.31-.25 7.27-19.17h2.44l7.18 19.17 2.29.25v1.49H81.3v-1.49l3.46-.25-2-5.25h-8.2l-2.07 5.25 3.53.25v1.49ZM82.1 97.2c-.62-1.67-1.12-3-1.52-4.1s-.7-1.94-.94-2.63-.43-1.24-.57-1.67-.28-.83-.4-1.22c-.13.37-.26.77-.41 1.21s-.34 1-.6 1.68l-1 2.65-1.52 4.08ZM90.48 104.65l3.22-.25V87l-3.22-.24v-1.53h7.08a37.23 37.23 0 0 1 3.93.19 13.73 13.73 0 0 1 2.9.55 9.48 9.48 0 0 1 2.32 1.15 6.84 6.84 0 0 1 1.81 1.79 8.29 8.29 0 0 1 1.18 2.58 13.25 13.25 0 0 1 .41 3.54 17.62 17.62 0 0 1-.34 3.58 9.74 9.74 0 0 1-1.08 3 7.82 7.82 0 0 1-1.93 2.28 9 9 0 0 1-2.89 1.51 14.93 14.93 0 0 1-3.51.65c-1.23.08-2.41.13-3.54.13h-6.34Zm7.24-.43a20.74 20.74 0 0 0 2.87-.2 19.89 19.89 0 0 0 2.26-.45 6.12 6.12 0 0 0 3.85-3 11.8 11.8 0 0 0 1.13-5.41A9.45 9.45 0 0 0 107 91a6.16 6.16 0 0 0-2.56-2.72 8.33 8.33 0 0 0-2.6-.8 21.21 21.21 0 0 0-3.62-.28h-2.39v17ZM132.87 95.06a16.66 16.66 0 0 1-.65 4.88 10.24 10.24 0 0 1-1.88 3.63 8.12 8.12 0 0 1-3 2.26 10.89 10.89 0 0 1-8 0 8.12 8.12 0 0 1-3-2.12 9.24 9.24 0 0 1-1.82-3.33A14.5 14.5 0 0 1 114 96q0-5.51 2.52-8.38a9.07 9.07 0 0 1 7.19-2.87q4.52 0 6.86 2.61t2.3 7.7Zm-2.28.5a15.92 15.92 0 0 0-.36-3.49 7.79 7.79 0 0 0-1.18-2.8 5.5 5.5 0 0 0-2.18-1.86 7.75 7.75 0 0 0-3.4-.66 6.53 6.53 0 0 0-5.38 2.32 10 10 0 0 0-1.88 6.49 13.42 13.42 0 0 0 .54 4 7.91 7.91 0 0 0 1.5 2.81 5.71 5.71 0 0 0 2.29 1.64 7.88 7.88 0 0 0 2.93.53 6.37 6.37 0 0 0 5.18-2.34q1.93-2.27 1.94-6.64ZM135.84 106.14v-1.49l3-.22.5-17.5-3.19-.21v-1.49h6.43c1.08 2.41 2 4.42 2.66 6s1.28 2.92 1.74 4 .81 1.94 1.08 2.62.5 1.3.71 1.85c.23-.62.48-1.28.76-2s.64-1.61 1.09-2.69l1.69-4q1-2.34 2.55-5.81h6.31v1.49l-3.16.21.56 17.5 3 .22v1.49h-8.44v-1.49l3.25-.22c-.06-1.91-.11-3.59-.14-5s-.06-2.71-.1-3.8 0-2-.07-2.83 0-1.5-.06-2.13 0-1.21 0-1.73v-1.6l-.74 1.87c-.27.69-.63 1.6-1.1 2.73s-1.06 2.54-1.79 4.25-1.66 3.87-2.8 6.49h-1.64l-2.1-4.79q-.9-2-1.56-3.57l-1.13-2.6c-.31-.71-.57-1.33-.79-1.84s-.4-1-.55-1.36l-.45-1.11v3.52c0 .64 0 1.35-.05 2.13s0 1.7-.06 2.76 0 2.28-.08 3.69-.06 3.07-.1 5l3.27.22v1.49ZM163.8 106.14v-1.49l3.21-.25V87l-3.21-.24v-1.53h15a7 7 0 0 1 .11.84c0 .37 0 .78.06 1.25s0 1 0 1.5v1.64h-1.55l-.42-3.28h-7.88v7.14h7.94v2h-7.94v8H178l.46-3.62H180c0 1.53 0 2.75-.06 3.68s-.08 1.55-.13 1.86Z" class="visocls-2"/></g></svg>
