<svg width="100%" height="100%" viewBox="0 0 180 123.93" fill="white"  ><defs><style>.visviscls-1,.visviscls-2{fill:#ffffff}.visviscls-1{fill-rule:evenodd}</style></defs><g id="Capa_2" data-name="Capa 2"><g id="g5406"><path id="path5408" d="m77 37.13-3.72 3.71c.12.11.23.24.35.35l3.51-3.92-.14-.14m.82.73-3.49 3.93.51.42L78 38.06a2.2 2.2 0 0 1-.23-.2m26.69-3 4.15 3.14a23.47 23.47 0 0 0 4.47-10.35l-5.18-.74a18.41 18.41 0 0 1-3.41 7.9m-3.4 3.48 3.13 4.15.54-.42-3.42-3.94a1.73 1.73 0 0 0-.25.21m.94-.8 3.41 3.93a5.16 5.16 0 0 0 .54-.5l-3.68-3.68a3.2 3.2 0 0 1-.27.25m-25.95-1.3-4 3.45.51.53 3.72-3.71c-.08-.1-.17-.18-.25-.27m26.89.4 3.68 3.69c.11-.13.24-.23.35-.36l-3.9-3.48-.13.15m.75-.82 3.88 3.45q.23-.24.45-.51l-4.12-3.19-.21.25m4.44-11 5.2.38v-.76h-5.22ZM108 26l5.17.72.09-.67-5.22-.38V26m-3.85-13.75 4.19-3.15c-.13-.19-.28-.37-.42-.55L104 12l.2.25M88.1 5.36 87.81.07l-.7.06.66 5.26h.33m13.55 4.3 3.5-3.94c-.19-.14-.35-.3-.54-.44l-3.22 4.17a1.83 1.83 0 0 0 .26.21m2.24-4.95A23.5 23.5 0 0 0 93.41.29l-.73 5.23a18.32 18.32 0 0 1 8 3.36ZM90.91 0h-.75v5.29h.39Zm-1.69 5.29V0h-.52l.3 5.31a1.65 1.65 0 0 1 .21 0m3.3-5.15-.69-.07-.4 5.28h.35Zm15.6 22.21 5.23-.28v-.7l-5.2.66v.32m-32.86 12.9-4.2 3.18c.14.17.28.35.43.52l4-3.45a2.73 2.73 0 0 1-.2-.25M108 21.13l5.2-.65a23.65 23.65 0 0 0-4.25-10.62l-4.2 3.14a18.4 18.4 0 0 1 3.24 8.1m-5.52-10.71 3.74-3.72c-.12-.13-.26-.24-.39-.37l-3.49 3.94a.66.66 0 0 1 .14.15m.92.92 4-3.43c-.16-.2-.34-.37-.52-.57l-3.73 3.72.28.28m4.78 12.15h5.23V23l-5.23.32a.6.6 0 0 0 0 .19m-36.92.79h-5.29v.5l5.29-.29a.58.58 0 0 1 0-.18m0-1.3L66 22.6v.74h5.29a2.42 2.42 0 0 1 0-.38m0 2.39-5.29.33c0 .21 0 .44.07.67l5.24-.66v-.32m0-3.61L66.1 21q0 .33-.06.69l5.28.38v-.32m.12 4.84-5.26.65a23.57 23.57 0 0 0 4.31 10.47l4.21-3.18a18.16 18.16 0 0 1-3.26-7.94M75.5 12l-4-3.53c-.15.18-.29.35-.42.53l4.18 3.27a1.94 1.94 0 0 1 .24-.27m-.76 1-4.2-3.3a23.52 23.52 0 0 0-4.31 10.41l5.24.74a18.57 18.57 0 0 1 3.27-7.91m3.35-3.53L74.9 5.17c-.19.14-.36.29-.53.42l3.47 4 .25-.2m-.94.81-3.48-4c-.18.16-.37.34-.54.51l3.75 3.76.27-.26m9.72-4.71L86.2.24a23.64 23.64 0 0 0-10.58 4.37l3.19 4.23a18.46 18.46 0 0 1 8.06-3.34m-10.63 5.61-3.75-3.74-.36.38 4 3.51s.08-.08.13-.15" class="viscls-1"/></g><g id="g5410"><path id="path5412" d="M74.33 32.45a17.52 17.52 0 0 0 14.75 8.91v-8.85h-3.5v.31H88v.79h-3.15v1.34h.72v.35h-.72v.11h.73v.37h-.76v.11h.79v.34H84v-1.96h-.23v2h-2.71v-2h-.25v1.9h-1.56v-.29H80v-.13h-.75v-.37H80v-.14h-.72v-.3H80v-1.39h-3.17v-.79h2.44v-.3Z" class="viscls-1"/></g><g id="g5414"><path id="path5416" d="M79.27 32.46h-2.44v-.87h2.44v-.25h-2.43v-.88h2.44v-.32h-2.44v-.84h2.23v-.59h-.57V28h-.73v-.68h-.74v-.62h3.15l.54 2.08h1v-.67h-.88v-1.36h.91v-.49h1.76v2.49h.67l.83-2h2.82v.62h-.74v.67h-.79v.69h-.57v.59h2.29v.79h-2.46v.33h2.45v.85h-2.42v.31H88v.83h-2.4 3.5v-8.18l-17.08-.06a17.59 17.59 0 0 0 2.27 8.19Z" class="viscls-1"/></g><g id="g5418"><path id="path5420" d="M77.57 16.12a4.67 4.67 0 0 1 .6 1.15 1.17 1.17 0 0 1 .8-.36 1.08 1.08 0 0 1 .65.25A19.86 19.86 0 0 1 80.91 13a9.72 9.72 0 0 1 1.4-2.27c.55-.63 1.08-1.13 1.62-1.15 1 0 1.78 1.08 2.41 2.3a14.11 14.11 0 0 1 1.2 3.42 60.35 60.35 0 0 1 .46 6.58v.21H74.14v-.5a10 10 0 0 1 1-4.66c.55-.93 1.05-1.36 1.42-1.42a1.49 1.49 0 0 1 1 .66m-5.51 7.2 17.09.07.07-17.12a17.56 17.56 0 0 0-17.15 17m9.14-1.8h6.11a47.54 47.54 0 0 0-.44-5.87h.19-.19a11.84 11.84 0 0 0-1.1-3.16c-.55-1.13-1.31-2-2-2-.24 0-.78.37-1.26 1a8.84 8.84 0 0 0-1.16 2.07 19.73 19.73 0 0 0-1.2 4.14c.41.62.72 1.3 1 3.81m-5.64-4.28a9.43 9.43 0 0 0-.76 4.26h5.78v.08c-.17-2.21-.52-3.15-.9-3.7a.75.75 0 0 0-.6-.37.82.82 0 0 0-.61.35c.11.42.19.89.28 1.47a.19.19 0 0 1-.15.22c-.11 0-.26 0-.28-.13a8.38 8.38 0 0 0-.37-1.68 3.42 3.42 0 0 0-.56-1.11c-.37-.48-1-1-1.82.59m26.05 4.45h-.87v-3h-.37v3h-.84v-3h-4.5v3h-.82v-2.99h-.4v3H93v-3h-.56v-3.23H93v-3.08h-1.32v-.68H93v-.23h-1.32v-.72h1.42V9.2h.77v1.53h.37V9.21h.84v6.24h5.75v-2.18h.85ZM90.15 6.27l-.06 17.13 17.06.05a17.56 17.56 0 0 0-17-17.18" class="viscls-1"/></g><g id="g5422"><path id="path5424" d="M90.24 24.38h6.55v2.18h-6.55Z" class="viscls-2"/></g><g id="g5426"><path id="path5428" d="M90.22 27.29h2.67v4.45H90.2Z" class="viscls-2"/></g><g id="g5430"><path id="path5432" d="M96.79 27.31h-3v7.58h7.11v-6.52h-4.12Z" class="viscls-2"/></g><g id="g5434"><path id="path5436" d="M101.73 28.41h4.53a13.51 13.51 0 0 1-1.15 3.1 24.28 24.28 0 0 1-2.34 3.33h-1.06Z" class="viscls-2"/></g><g id="g5438"><path id="path5440" d="m95.31 35.77.13 4.28a13.87 13.87 0 0 0 3.79-1.8c2.45-1.65 2.7-2.45 2.7-2.45Z" class="viscls-2"/></g><g id="g5442"><path id="path5444" d="M92.92 32.6h-2.7v8.61a12.52 12.52 0 0 0 1.9-.19 25.76 25.76 0 0 0 2.5-.65l-.12-4.6h-1.59Z" class="viscls-2"/></g><g id="g5446"><path id="path5448" d="M106.92 25.88c0-.48.08-1.44.08-1.44h-9.38v3.12h8.92s.29-1.18.39-1.67" class="viscls-2"/></g><g id="g5450"><path id="path5452" d="m79.73 41.22-.45.68.24.18a.4.4 0 0 0 .62-.1c.15-.22.12-.42-.16-.61Zm18.74.25.55-.41 1.34 1.86 1-.71.27.37-1.55 1.12Zm-.33 3.22L97 42.21l.63-.31 1.17 2.49Zm-1.84.7-.3-.52-.88.24v.61l-.7.18.15-2.9.82-.23L97 45.2Zm-3.68.79a.58.58 0 0 1-.12-.29l-.08-.53c0-.2-.16-.32-.43-.28h-.37l.12 1.16-.68.07-.29-2.74 1.23-.1c.57-.06.93.15 1 .61a.63.63 0 0 1-.5.73c.47 0 .57.21.65.79 0 .27 0 .44.19.47Zm-2.94-.63c0 .71-.56.88-1.12.86s-1.1-.19-1.07-.93l.08-1.9h.68l-.07 1.92c0 .26.07.47.4.48s.4-.19.41-.47l.07-1.9h.69Zm-3.23-1.39a.62.62 0 0 1-.7.53c.45.15.48.38.37.93-.05.29-.06.44.06.52l-.74-.14a.44.44 0 0 1 0-.3l.1-.52c0-.22-.06-.36-.33-.42l-.36-.08-.25 1.14-.67-.14.53-2.68 1.25.27c.56.12.84.42.74.88m-3-1-1.13-.47-.25.61 1.07.43-.18.42-1.06-.44-.28.68 1.19.49-.19.42-1.82-.74 1-2.55 1.77.73Zm-4.12-.72-.3-.21-.61.91-.57-.38 1.51-2.27 1 .67a.8.8 0 0 1 .33 1.21c-.31.46-.82.44-1.37.07m21-3.6a18.57 18.57 0 0 1-10.71 3.38 18.25 18.25 0 0 1-10.87-3.61l-3.23 4.16a23.72 23.72 0 0 0 27.95.23Zm-8.53 5h-.33l.09.78h.3c.32 0 .49-.18.45-.48s-.2-.35-.51-.32m-6.46-.28-.31-.07-.17.78.28.05c.34.07.54 0 .6-.29s-.07-.4-.4-.47m9.74-.25v1.27l.65-.17-.65-1.1Z" class="viscls-2"/></g><path d="M45.2 71a.44.44 0 0 1-.32-.13.45.45 0 0 1-.14-.33V58a.48.48 0 0 1 .14-.35.44.44 0 0 1 .32-.13h5.18A6.77 6.77 0 0 1 53 58a3.74 3.74 0 0 1 1.74 1.43 4.9 4.9 0 0 1 0 4.77A3.74 3.74 0 0 1 53 65.56a6.78 6.78 0 0 1-2.62.46H47.5v4.52a.48.48 0 0 1-.12.33.45.45 0 0 1-.38.13Zm2.26-7.12h2.82a2.53 2.53 0 0 0 1.72-.53 2 2 0 0 0 .6-1.58 2.17 2.17 0 0 0-.6-1.55 2.34 2.34 0 0 0-1.76-.59h-2.78ZM57.93 71a.44.44 0 0 1-.33-.13.45.45 0 0 1-.14-.33V58a.48.48 0 0 1 .14-.35.44.44 0 0 1 .33-.13h8.49a.48.48 0 0 1 .35.13.48.48 0 0 1 .14.35v1.28a.45.45 0 0 1-.14.32.48.48 0 0 1-.35.14h-6.35v3.42H66a.53.53 0 0 1 .35.12.45.45 0 0 1 .13.34v1.2a.42.42 0 0 1-.13.33.49.49 0 0 1-.35.13h-5.93v3.53h6.51a.46.46 0 0 1 .34.14.47.47 0 0 1 .14.35v1.27a.46.46 0 0 1-.48.46ZM69.94 71a.44.44 0 0 1-.33-.13.45.45 0 0 1-.14-.33V58a.48.48 0 0 1 .14-.35.44.44 0 0 1 .33-.13h5a5.74 5.74 0 0 1 3.68 1.08A3.77 3.77 0 0 1 80 61.72a3.86 3.86 0 0 1-.71 2.37 4 4 0 0 1-1.88 1.37l2.82 4.93a.42.42 0 0 1 .06.21.41.41 0 0 1-.13.29.43.43 0 0 1-.28.11H78.1a.66.66 0 0 1-.5-.17 2.06 2.06 0 0 1-.27-.35l-2.49-4.57h-2.68v4.63a.49.49 0 0 1-.13.33.44.44 0 0 1-.34.13Zm2.22-7.28h2.72a2.52 2.52 0 0 0 1.76-.53 1.93 1.93 0 0 0 .57-1.49 2 2 0 0 0-.56-1.52 2.45 2.45 0 0 0-1.77-.55h-2.72ZM87.85 71.2a6.87 6.87 0 0 1-2.91-.57A4.13 4.13 0 0 1 83 68.87a6.11 6.11 0 0 1-.68-3V58a.48.48 0 0 1 .14-.35.44.44 0 0 1 .32-.13h1.76a.45.45 0 0 1 .34.13.51.51 0 0 1 .12.35v7.86a3.21 3.21 0 0 0 .76 2.34 3.14 3.14 0 0 0 4.12 0 3.25 3.25 0 0 0 .74-2.34V58a.48.48 0 0 1 .14-.35.46.46 0 0 1 .35-.13h1.73a.44.44 0 0 1 .34.13.52.52 0 0 1 .13.35v7.86a6.22 6.22 0 0 1-.67 3 4.08 4.08 0 0 1-1.89 1.76 6.9 6.9 0 0 1-2.9.58ZM97 71a.43.43 0 0 1-.31-.11.41.41 0 0 1-.12-.31V57.93a.45.45 0 0 1 .12-.33.43.43 0 0 1 .31-.11h4.49a5.06 5.06 0 0 1 3.24 1 3.57 3.57 0 0 1 1.21 2.94 3.71 3.71 0 0 1-.78 2.47 3.78 3.78 0 0 1-2.16 1.21l3.11 5.29a.49.49 0 0 1 .06.22.37.37 0 0 1-.12.27.4.4 0 0 1-.27.11h-.23a.62.62 0 0 1-.47-.16 2.42 2.42 0 0 1-.27-.36l-3.07-5.19h-4v5.29a.41.41 0 0 1-.12.31.49.49 0 0 1-.33.11Zm.79-6.87h3.61a3.83 3.83 0 0 0 2.5-.69 3 3 0 0 0 0-4.11 3.89 3.89 0 0 0-2.5-.68h-3.64ZM107.93 71a.4.4 0 0 1-.27-.11.36.36 0 0 1-.11-.27.89.89 0 0 1 0-.22l4.89-12.53a.79.79 0 0 1 .2-.29.62.62 0 0 1 .36-.09h.66a.58.58 0 0 1 .35.09.81.81 0 0 1 .21.29l4.88 12.53a.6.6 0 0 1 0 .22.37.37 0 0 1-.12.27.37.37 0 0 1-.27.11h-.38a.37.37 0 0 1-.29-.1.7.7 0 0 1-.14-.19l-1.2-3.09h-6.83l-1.2 3.09a.37.37 0 0 1-.12.19.4.4 0 0 1-.3.1Zm2.47-4.53h5.91l-3-7.61ZM121.87 71a.38.38 0 0 1-.42-.42V57.91a.38.38 0 0 1 .42-.42h.37a.38.38 0 0 1 .42.42v12.67a.38.38 0 0 1-.42.42ZM126.72 71a.45.45 0 0 1-.31-.11.41.41 0 0 1-.12-.31V57.91a.41.41 0 0 1 .12-.31.45.45 0 0 1 .31-.11h.36a.43.43 0 0 1 .31.11.41.41 0 0 1 .12.31v11.93h6.66a.45.45 0 0 1 .33.12.44.44 0 0 1 .11.33v.29a.41.41 0 0 1-.11.31.49.49 0 0 1-.33.11ZM45.53 123.76v-.55l1.12-.08.19-6.5-1.18-.08V116H48c.4.89.73 1.64 1 2.23s.47 1.09.64 1.48.31.72.4 1l.27.69c.08-.23.18-.48.28-.74s.24-.6.41-1 .37-.89.62-1.47.57-1.3 1-2.16h2.34v.55l-1.17.08.21 6.5 1.12.08v.55H52v-.55l1.2-.08c0-.72 0-1.34-.05-1.88s0-1 0-1.41v-3.02l-.27.69c-.1.26-.24.6-.41 1s-.39 1-.67 1.58-.61 1.44-1 2.41H50l-.78-1.78c-.23-.5-.42-1-.58-1.32s-.31-.7-.42-1-.21-.49-.29-.68l-.21-.51c-.06-.14-.11-.28-.17-.41v6.32l1.21.08v.55ZM55.51 123.76v-.55l.86-.1 2.7-7.11H60l2.66 7.11.85.1v.55h-3v-.55l1.29-.1-.76-2H58l-.77 2 1.31.1v.55Zm5.28-3.32c-.23-.62-.41-1.13-.56-1.52l-.35-1c-.09-.25-.16-.46-.21-.62s-.1-.3-.15-.45q-.08.21-.15.45c0 .16-.13.37-.22.62l-.37 1-.57 1.51ZM69.1 123.58a3.91 3.91 0 0 1-1.7.35 3.41 3.41 0 0 1-1.32-.26 3 3 0 0 1-1-.75 3.52 3.52 0 0 1-.71-1.21 4.71 4.71 0 0 1-.26-1.6 6 6 0 0 1 .26-1.82 3.42 3.42 0 0 1 .74-1.34 3.22 3.22 0 0 1 1.18-.84 4.23 4.23 0 0 1 1.6-.28 9 9 0 0 1 1.26.08l.92.18a1.29 1.29 0 0 1 0 .23 3.26 3.26 0 0 1 0 .37v1.35h-.6l-.16-1.32a5.06 5.06 0 0 0-.65-.12 7.1 7.1 0 0 0-.88 0 3.09 3.09 0 0 0-1.09.19 2.5 2.5 0 0 0-.92.62 3.16 3.16 0 0 0-.64 1.08 4.79 4.79 0 0 0-.24 1.61 4.05 4.05 0 0 0 .2 1.31 3 3 0 0 0 .56 1 2.66 2.66 0 0 0 .85.61 2.59 2.59 0 0 0 1 .21 3.27 3.27 0 0 0 1.3-.25 4.21 4.21 0 0 0 1.16-.76l.38.53a5.18 5.18 0 0 1-1.24.83ZM71.2 123.76v-.55l1.2-.1v-6.47l-1.2-.09V116h3.13v.55l-1.14.09v2.73h4.09v-2.73l-1.16-.09V116h3.15v.55l-1.21.09v6.47l1.21.1v.55h-3.15v-.55l1.16-.1v-3h-4.09v3l1.14.1v.55ZM86.8 120.58a8.59 8.59 0 0 1-.08 1.28 2.56 2.56 0 0 1-.28.86 2.14 2.14 0 0 1-.92.86 3.47 3.47 0 0 1-1.61.33 4 4 0 0 1-1.62-.31 1.85 1.85 0 0 1-1-1 2.71 2.71 0 0 1-.21-.91v-5.12l-1.08-.02V116h3v.56l-1.21.07v4.82a2.78 2.78 0 0 0 .14.69 1.48 1.48 0 0 0 .64.72 2.58 2.58 0 0 0 1.29.27 1.88 1.88 0 0 0 1.85-.87 4.61 4.61 0 0 0 .25-1.79v-3.88l-1.17-.08V116h3v.57l-1.1.06ZM91.24 123.76v-.55l1.19-.1v-6.47l-1.19-.09V116h3.82a4.2 4.2 0 0 1 .88.13 1.86 1.86 0 0 1 1 .66 2 2 0 0 1 .35 1.26 2.28 2.28 0 0 1-.41 1.42 2.18 2.18 0 0 1-1.13.75 4.68 4.68 0 0 1-.86.14h-1.73v2.68l1.41.1v.55Zm2.79-4a7 7 0 0 0 .77 0 3.39 3.39 0 0 0 .7-.12 1.59 1.59 0 0 0 .72-.5 1.51 1.51 0 0 0 .29-1 1.27 1.27 0 0 0-.21-.74 1.19 1.19 0 0 0-.61-.47 4 4 0 0 0-.65-.14 7 7 0 0 0-.82 0h-1v3ZM98.43 123.76v-.55l1.2-.1v-6.47l-1.2-.09V116h3.19v.55l-1.19.09v6.47l1.19.1v.55ZM107.77 123.58a3.86 3.86 0 0 1-1.69.35 3.34 3.34 0 0 1-1.32-.26 2.93 2.93 0 0 1-1.06-.75 3.69 3.69 0 0 1-.71-1.21 4.71 4.71 0 0 1-.25-1.6 6 6 0 0 1 .25-1.82 3.55 3.55 0 0 1 .74-1.34 3.18 3.18 0 0 1 1.19-.84 4.18 4.18 0 0 1 1.59-.28 9 9 0 0 1 1.26.08c.36.06.66.12.92.18a1.2 1.2 0 0 1 0 .23V118.04h-.6l-.16-1.32a4.75 4.75 0 0 0-.65-.12 7 7 0 0 0-.87 0 3.1 3.1 0 0 0-1.1.19 2.58 2.58 0 0 0-.92.62 3.14 3.14 0 0 0-.63 1.08 4.54 4.54 0 0 0-.25 1.61 3.79 3.79 0 0 0 .21 1.31 2.81 2.81 0 0 0 .56 1 2.52 2.52 0 0 0 .84.61 2.61 2.61 0 0 0 1.06.21 3.23 3.23 0 0 0 1.29-.25 4.07 4.07 0 0 0 1.16-.76l.38.53a5 5 0 0 1-1.24.83ZM115 123.58a3.86 3.86 0 0 1-1.69.35 3.34 3.34 0 0 1-1.32-.26 2.93 2.93 0 0 1-1.06-.75 3.67 3.67 0 0 1-.7-1.21 4.71 4.71 0 0 1-.26-1.6 6 6 0 0 1 .25-1.82A3.69 3.69 0 0 1 111 117a3.26 3.26 0 0 1 1.19-.84 4.23 4.23 0 0 1 1.6-.28 9.1 9.1 0 0 1 1.26.08l.92.18V118h-.59l-.16-1.32a5.4 5.4 0 0 0-.65-.12 7.23 7.23 0 0 0-.88 0 3.14 3.14 0 0 0-1.1.19 2.54 2.54 0 0 0-.91.62 3 3 0 0 0-.64 1.08 4.79 4.79 0 0 0-.24 1.61 3.8 3.8 0 0 0 .2 1.31 2.81 2.81 0 0 0 .56 1 2.52 2.52 0 0 0 .84.61 2.67 2.67 0 0 0 1.06.21 3.27 3.27 0 0 0 1.3-.25 4.36 4.36 0 0 0 1.16-.76l.37.53a5 5 0 0 1-1.29.87ZM117.13 123.76v-.55l1.19-.1v-6.47l-1.19-.09V116h3.13v.55l-1.15.09v2.73h4.1v-2.73l-1.16-.09V116h3.15v.55l-1.21.09v6.47l1.21.1v.55h-3.15v-.55l1.16-.1v-3h-4.1v3l1.15.1v.55ZM132.72 120.58a8.8 8.8 0 0 1-.07 1.28 2.56 2.56 0 0 1-.28.86 2.11 2.11 0 0 1-.93.86 3.41 3.41 0 0 1-1.61.33 4 4 0 0 1-1.62-.31 1.83 1.83 0 0 1-1-1 2.7 2.7 0 0 1-.22-.91v-5.12l-1.06-.08V116H129v.56l-1.22.07v4.82a2.39 2.39 0 0 0 .14.69 1.44 1.44 0 0 0 .64.72 2.51 2.51 0 0 0 1.28.27 1.88 1.88 0 0 0 1.85-.87 4.42 4.42 0 0 0 .25-1.79v-3.88l-1.17-.08V116h3v.57l-1.1.06ZM12.69 105.67l-6.8-18.32-2.21-.24V85.7h7.74v1.41l-3.25.24C9 89.54 9.66 91.41 10.23 93s1.06 2.89 1.45 4 .72 2 1 2.66.45 1.26.59 1.72.27.81.37 1.09.19.54.27.8l.27-.74c.09-.28.22-.64.38-1.09s.36-1 .62-1.73l1-2.71c.42-1.1.91-2.43 1.48-4s1.26-3.43 2.07-5.6l-3.31-.24V85.7h7.71v1.41l-2.21.24L15 105.67ZM25.16 105.67v-1.42l3.07-.23V87.35l-3.07-.24V85.7h8.21v1.41l-3.07.24V104l3.07.23v1.42ZM37.24 99.91l.48 3.57a11.39 11.39 0 0 0 2.23.57 15.33 15.33 0 0 0 2.14.17 5.43 5.43 0 0 0 3.5-1 3.12 3.12 0 0 0 1.2-2.54 4.15 4.15 0 0 0-.15-1.17 2.38 2.38 0 0 0-.58-1 4.93 4.93 0 0 0-1.16-.87 15.58 15.58 0 0 0-1.9-.85l-2.51-.92a6.57 6.57 0 0 1-3.06-2 5.08 5.08 0 0 1-.93-3.15 5.62 5.62 0 0 1 .42-2.19 4.5 4.5 0 0 1 1.27-1.74 6 6 0 0 1 2.16-1.15 10.11 10.11 0 0 1 3.1-.42 23.59 23.59 0 0 1 2.73.16 20.23 20.23 0 0 1 2.41.46 14.91 14.91 0 0 1 .12 1.85v3.26h-1.42l-.44-3.45a11.3 11.3 0 0 0-1.92-.33c-.69-.06-1.3-.09-1.81-.09a5.94 5.94 0 0 0-2.12.33 4.23 4.23 0 0 0-1.38.81 3 3 0 0 0-.74 1.08 3.13 3.13 0 0 0-.22 1.12 4.24 4.24 0 0 0 .12 1 2.43 2.43 0 0 0 .44.88 4 4 0 0 0 .93.82 9.68 9.68 0 0 0 1.58.78l2.75 1.09a14.32 14.32 0 0 1 2.11 1A5.83 5.83 0 0 1 48 97.28a3.72 3.72 0 0 1 .79 1.39 6 6 0 0 1 .23 1.71 5.78 5.78 0 0 1-.46 2.34 4.79 4.79 0 0 1-1.34 1.81A6.16 6.16 0 0 1 45 105.7a10.19 10.19 0 0 1-3.07.41 18.22 18.22 0 0 1-3.35-.28 14.18 14.18 0 0 1-2.65-.72c-.08-.69-.13-1.46-.15-2.32s0-1.82 0-2.88ZM56 105.67v-1.42l3.13-.23V87.56h-5.64L53 91.1h-1.43v-4.54c0-.32.05-.61.09-.88h16.85a13.51 13.51 0 0 1 .14 2v3.4h-1.3l-.53-3.54h-5.73V104l3.13.23v1.42ZM68.54 105.67v-1.42l2.21-.23 7-18.32H80l6.89 18.3 2.18.23v1.42h-7.71v-1.42l3.31-.23-2-5h-7.78l-2 5 3.37.23v1.42Zm13.59-8.54c-.59-1.59-1.08-2.9-1.45-3.91s-.68-1.86-.9-2.52l-.55-1.59c-.14-.4-.26-.79-.38-1.17l-.39 1.15c-.13.42-.33 1-.57 1.61s-.56 1.51-1 2.53-.87 2.33-1.46 3.9ZM90.14 104.25l3.07-.23V87.35l-3.07-.24V85.7h6.76a36.67 36.67 0 0 1 3.75.17 13.33 13.33 0 0 1 2.78.53 9.58 9.58 0 0 1 2.22 1.1 6.69 6.69 0 0 1 1.73 1.71 8.14 8.14 0 0 1 1.12 2.47 12.54 12.54 0 0 1 .4 3.38 16.82 16.82 0 0 1-.33 3.42 9.51 9.51 0 0 1-1 2.83 7.4 7.4 0 0 1-1.85 2.17 8.41 8.41 0 0 1-2.76 1.45 14.08 14.08 0 0 1-3.35.62c-1.18.08-2.3.12-3.39.12h-6Zm6.91-.41a19 19 0 0 0 2.75-.19 17.42 17.42 0 0 0 2.16-.43 5.81 5.81 0 0 0 3.67-2.9 11.2 11.2 0 0 0 1.08-5.17 8.94 8.94 0 0 0-.8-4 5.85 5.85 0 0 0-2.45-2.6 8.26 8.26 0 0 0-2.48-.77 21.57 21.57 0 0 0-3.46-.26h-2.27v16.28ZM130.65 95.09a16.23 16.23 0 0 1-.62 4.66 9.86 9.86 0 0 1-1.81 3.47 7.71 7.71 0 0 1-2.88 2.16 10.44 10.44 0 0 1-7.62 0 7.65 7.65 0 0 1-2.82-2 8.83 8.83 0 0 1-1.75-3.18 14 14 0 0 1-.59-4.19c0-3.51.81-6.18 2.41-8a8.67 8.67 0 0 1 6.87-2.75c2.88 0 5.06.83 6.56 2.5s2.25 4.1 2.25 7.33Zm-2.19.48a15.17 15.17 0 0 0-.34-3.34 7.63 7.63 0 0 0-1.12-2.68 5.24 5.24 0 0 0-2.09-1.77 7.41 7.41 0 0 0-3.25-.64 6.25 6.25 0 0 0-5.14 2.22 9.61 9.61 0 0 0-1.8 6.21 12.72 12.72 0 0 0 .52 3.87 7.57 7.57 0 0 0 1.43 2.69 5.55 5.55 0 0 0 2.19 1.56 7.42 7.42 0 0 0 2.8.5 6.08 6.08 0 0 0 5-2.23 9.77 9.77 0 0 0 1.8-6.39ZM133.48 105.67v-1.42l2.9-.2.47-16.73-3-.21V85.7H140c1 2.3 1.88 4.22 2.55 5.74s1.22 2.8 1.65 3.81.78 1.85 1 2.5.49 1.24.68 1.77c.22-.59.46-1.22.73-1.9s.61-1.54 1-2.57 1-2.3 1.61-3.8 1.45-3.35 2.44-5.55h6v1.41l-3 .21.53 16.73 2.9.2v1.42h-8.07v-1.42l3.1-.2c-.06-1.84-.1-3.44-.13-4.82s-.06-2.59-.09-3.64-.05-1.94-.07-2.7 0-1.44-.06-2 0-1.15-.05-1.65 0-1 0-1.52c-.22.53-.45 1.12-.71 1.78s-.61 1.53-1 2.6-1 2.43-1.71 4.07-1.59 3.7-2.68 6.2H145l-2-4.58-1.49-3.41c-.43-1-.79-1.8-1.08-2.48s-.55-1.27-.76-1.76l-.53-1.3-.43-1.07v5.37c0 .71 0 1.63-.05 2.63s0 2.18-.08 3.53-.06 2.93-.1 4.75l3.13.2v1.42ZM160.2 105.67v-1.42l3.07-.23V87.35l-3.07-.24V85.7h14.33a6.32 6.32 0 0 1 .1.79q0 .54.06 1.2v3h-1.47l-.42-3.13h-7.53v6.82h7.59v1.86h-7.59v7.6h8.45l.44-3.46h1.48c0 1.46 0 2.63-.06 3.52s-.08 1.48-.12 1.77Z" class="viscls-2"/></g></svg>
