<svg width="300" height="100" viewBox="0 0 212 64" fill="none" aria-label="Logotipo de IncaRail" role="img">
<path d="M106.348 41.949C105.187 38.3708 99.6109 15.4472 99.2043 14.5454C98.2737 13.5303 97.0995 12.7704 95.7933 12.3376C94.4871 11.9048 93.0921 11.8137 91.7408 12.0727C91.6335 12.161 91.5614 12.2848 91.5375 12.4218C91.8101 14.0304 91.6702 15.6821 91.1309 17.2217C88.6334 24.2617 82.7961 40.7563 82.4186 41.6581C82.0411 42.5599 80.2986 48.2035 76.378 48.029C70.2794 47.6508 65.4586 41.3672 65.5167 32.0872C65.5167 23.5054 69.0597 16.4363 73.3578 14.6327C77.046 12.9454 78.0334 14.6327 78.0334 14.6327C76.6394 17.1636 80.618 20.4508 83.6093 18.0072C84.1705 17.5037 84.5299 16.813 84.6207 16.0638C84.7115 15.3147 84.5275 14.5579 84.103 13.9345C83.6773 13.3668 83.1415 12.8911 82.5276 12.5361C81.9138 12.1812 81.2346 11.9543 80.5309 11.869C77.3919 11.3778 74.1805 11.6675 71.1797 12.7126C64.8778 14.8945 57.7337 20.4799 58.5178 33.3672C59.5923 44.3054 66.1265 48.4654 70.8312 49.8909C73.1224 50.5871 75.5562 50.6673 77.8882 50.1236C79.2696 49.8424 80.5521 49.2001 81.6054 48.2617C82.4957 47.4271 83.2329 46.4425 83.7835 45.3526C85.6712 41.629 87.9654 35.6363 88.6334 33.8617C88.6964 33.7139 88.8018 33.588 88.9362 33.5C89.0705 33.412 89.2279 33.3658 89.3885 33.3672C90.8115 33.3672 94.732 33.3672 97.0263 33.5999C97.421 33.5825 97.8119 33.684 98.1484 33.8914C98.485 34.0989 98.7516 34.4027 98.9139 34.7636C99.1172 35.4326 99.8142 38.1381 100.366 40.349C100.836 42.3403 101.477 44.287 102.283 46.1672C102.708 47.27 103.497 48.194 104.519 48.7854C105.504 49.3497 106.609 49.6689 107.742 49.7163C108.991 49.7163 109.688 49.3381 109.979 48.8727C108.212 46.9032 106.965 44.5235 106.348 41.949ZM89.9402 31.4472C89.6208 31.4472 89.3885 31.4472 89.4756 30.9818C89.5627 30.5163 93.6285 16.7854 93.8317 16.0581C94.035 15.3308 95.0515 16.0581 95.4 16.9017C95.6295 17.3571 95.777 17.8495 95.8356 18.3563L98.0717 30.3127C98.0717 30.8945 98.0717 31.2436 97.6942 31.2436L89.9402 31.4472Z" fill="#053220"/>
<path d="M187.083 13.5855L187.373 16.3491C187.907 21.9276 188.033 27.5377 187.751 33.1346C187.518 37.9928 187.489 45.3237 187.17 46.1673C187.17 46.4582 186.008 47.8837 186.008 47.8837C186.008 47.8837 186.27 48.8728 186.821 48.8728L201.836 49.1346C202.781 46.7768 203.34 44.2817 203.491 41.7455C203.287 41.5117 203.052 41.3063 202.794 41.1346C201.841 43.273 200.386 45.1492 198.554 46.6037C197.319 47.2057 195.941 47.4476 194.575 47.3019C192.978 47.3019 192.659 47.3019 192.601 46.4292C192.281 41.6583 192.775 22.9528 192.978 19.3455C193.152 16.7855 193.327 13.9055 193.356 12.9164C191.427 12.673 189.476 12.673 187.547 12.9164C187.083 13.0328 187.083 13.5855 187.083 13.5855Z" fill="#053220"/>
<path d="M55.4686 48.7564C55.2073 48.4655 54.6555 48.3492 54.7136 46.6619C54.7136 46.0801 53.9004 27.2001 53.8133 25.6583C53.581 16.7855 54.336 15.6801 54.5103 15.1564C54.7083 14.5714 54.9612 14.0065 55.2653 13.4692C55.2653 13.2946 54.7716 12.8582 54.5684 12.9164C52.1102 13.3048 49.6211 13.4607 47.1338 13.3819C46.7273 13.3819 46.4949 13.9637 46.4949 13.9637C46.8094 14.2474 47.0744 14.5817 47.279 14.9528L32.0325 40.9891C32.0325 40.9891 32.0325 40.9892 32.0325 40.8437C32.0325 36.0146 31.684 29.6146 31.5678 25.9783C31.5678 25.9783 31.3355 15.2437 31.5678 14.6328C31.5864 14.3325 31.5864 14.0313 31.5678 13.731C31.5678 13.731 31.2193 13.0328 30.6675 12.9746H29.0412C27.832 12.9107 26.6203 12.9107 25.4111 12.9746C25.2575 13.028 25.1163 13.1122 24.9965 13.2223C24.8766 13.3324 24.7805 13.4659 24.7141 13.6146C25.1788 13.8764 25.4692 14.3419 25.5853 16.0873L26.3985 31.3601C26.5727 39.0982 26.3985 46.2546 26.2242 46.7201C26.0245 47.3044 25.7717 47.8692 25.4692 48.4073C25.4692 48.4073 25.7015 48.8437 26.1952 48.9601C27.1583 49.0803 28.129 49.1289 29.0993 49.1055C29.7807 49.1072 30.461 49.0488 31.1322 48.931L32.2358 47.4473L47.6856 20.6255C47.73 20.5301 47.8074 20.4539 47.9035 20.4111C47.9996 20.3684 48.1079 20.3618 48.2084 20.3928C48.2869 20.431 48.3546 20.4883 48.4053 20.5594C48.456 20.6305 48.4881 20.7133 48.4988 20.8001C48.8182 26.2983 49.2538 35.8691 49.2829 36.8582C49.2829 43.4328 49.2829 49.0473 49.2829 49.0473H51.6062C52.9711 49.0473 53.8423 49.2219 54.5103 49.3091C54.5652 49.3332 54.6246 49.3456 54.6845 49.3456C54.7445 49.3456 54.8038 49.3332 54.8588 49.3091C55.1001 49.172 55.3084 48.9833 55.4686 48.7564Z" fill="#053220"/>
<path d="M18.0055 45.6144C17.4933 41.9046 17.3087 38.1567 17.4538 34.4144C17.4538 30.9235 17.4538 26.4435 17.4538 22.778C17.4943 20.6379 17.6494 18.5015 17.9184 16.378C17.9184 15.1562 20.3288 14.0217 20.3288 14.0217C20.3288 14.0217 19.8642 12.9162 19.2834 12.9744L14.2302 13.3817L9.93212 13.1198C9.32226 13.1198 8.74144 14.0217 8.74144 14.0217C8.74144 14.0217 11.3551 15.2725 11.3551 16.4944C11.6798 18.6127 11.8545 20.7513 11.8779 22.8944C11.8779 26.5889 11.8779 30.9234 11.8779 34.5307C12.0364 38.274 11.842 42.024 11.2971 45.7307C11.2971 46.9526 8.7124 48.1453 8.7124 48.1453C8.7124 48.1453 9.26418 49.1053 9.87404 49.0471L14.2302 48.6689L19.2543 49.0762C19.8642 49.0762 20.2998 48.0289 20.2998 48.0289C20.2998 48.0289 18.0055 46.8362 18.0055 45.6144Z" fill="#053220"/>
<path d="M179.59 45.6144C179.078 41.9045 178.883 38.1575 179.009 34.4144C179.009 30.9235 179.009 26.4435 179.184 22.778C179.222 20.6387 179.367 18.5027 179.619 16.378C179.619 15.1562 182.03 14.0217 182.03 14.0217C182.03 14.0217 181.594 12.9162 180.984 12.9744L175.96 13.3817L171.604 13.0035C171.023 13.0035 170.442 13.9053 170.442 13.9053C170.442 13.9053 173.027 15.1562 173.027 16.378C173.352 18.4963 173.526 20.635 173.55 22.778C173.55 26.4726 173.55 30.8071 173.55 34.4144C173.695 38.1567 173.51 41.9046 172.998 45.6144C172.998 46.8362 170.384 48.0289 170.384 48.0289C170.384 48.0289 170.965 48.9889 171.575 48.9308L175.902 48.5526L180.955 48.9598C181.536 48.9598 182.001 47.9126 182.001 47.9126C182.001 47.9126 179.59 46.8362 179.59 45.6144Z" fill="#053220"/>
<path d="M142.272 47.6218C141.721 47.8254 141.227 48.4364 140.414 48.3782C138.761 47.9627 137.334 46.9195 136.435 45.4691C134.682 42.8613 133.321 40.0088 132.398 37.0036C132.224 36.3346 132.166 36.0436 133.386 35.7236C140.065 33.8327 142.679 30.2836 142.679 24.4073C142.73 22.2879 142.152 20.2011 141.021 18.4098C139.889 16.6185 138.253 15.203 136.319 14.3418C131.15 11.4328 122.67 12.5382 120.056 13.0036C118.579 13.2234 117.122 13.5639 115.7 14.0218C115.467 14.3709 115.032 15.1273 115.032 15.1273C115.285 15.2196 115.528 15.3366 115.758 15.4764C117.268 16.0873 117.036 18.7637 117.036 19.7528L116.455 44.5964C116.479 45.0033 116.479 45.4113 116.455 45.8182C116.223 47.3018 114.044 48.2618 114.044 48.2618C114.044 48.2618 114.567 49.2218 115.09 49.1637L119.01 48.7855L123.57 49.1927C124.122 49.1927 124.499 48.1455 124.499 48.1455C124.499 48.1455 122.495 47.0691 122.35 45.8182C122.113 44.1499 121.967 42.4698 121.915 40.7855C121.915 39.4182 121.915 38.2255 121.915 37.8764C121.915 37.5273 121.915 37.1491 122.931 37.1491C125.545 37.1491 126.503 39.6218 129.436 43.8982C130.812 46.2605 132.825 48.1863 135.244 49.4545C137.345 50.3001 139.646 50.5125 141.866 50.0655C142.592 49.8328 143.695 49.3964 143.724 48.5527C143.753 47.7091 143.027 47.36 142.272 47.6218ZM125.138 35.0546C122.67 34.6764 122.234 33.3382 122.234 32.6109C122.234 31.8837 122.553 14.6036 122.553 14.4582C123.261 14.079 124.046 13.8699 124.848 13.8473C126.292 13.6731 127.756 13.792 129.153 14.1969C130.55 14.6017 131.851 15.2842 132.979 16.2037C136.755 19.1128 137.161 24.9309 135.883 29.7309C134.606 34.5309 127.607 35.4037 125.138 35.0546Z" fill="#053220"/>
<path d="M166.203 42.0653C165.041 37.0617 162.34 24.2035 161.643 20.4507C160.627 15.2725 160.046 14.6326 159.262 13.6144C158.626 12.8027 157.736 12.2288 156.735 11.9853C155.719 11.7234 153.831 11.9853 153.628 12.3344C153.425 12.6835 153.628 12.7126 153.395 13.0035C152.263 16.5235 148.865 26.6762 147.761 30.0798C147.152 32.0289 145.467 37.3525 143.957 41.7162C143.371 43.4937 142.653 45.2246 141.808 46.8944C141.636 47.1966 141.402 47.4591 141.122 47.6646C140.842 47.8701 140.521 48.0141 140.182 48.0871C138.846 48.3489 137.278 46.6035 137.278 46.6035C137.278 46.6035 135.1 48.2617 134.374 48.8435C135.359 49.5101 136.47 49.9676 137.639 50.1877C138.808 50.4079 140.009 50.386 141.169 50.1234C144.48 49.4253 145.235 45.7307 146.164 43.1707C147.355 39.8544 148.836 35.1998 149.068 34.0362C149.1 33.9469 149.159 33.8703 149.238 33.8179C149.316 33.7654 149.41 33.7399 149.504 33.7453L158.71 34.0944C158.869 34.0919 159.023 34.1463 159.146 34.2476C159.268 34.3488 159.35 34.4905 159.378 34.6471C159.378 35.4907 159.785 37.1198 160.133 38.8362C161.295 45.1198 162.137 47.5635 163.473 48.9598C165.825 51.4326 171.052 51.2871 171.14 50.3562C171.227 49.4253 170.21 49.978 168.961 48.4944C167.484 46.6373 166.531 44.4171 166.203 42.0653ZM158.042 31.5053C157.2 31.5053 151.798 31.6798 150.927 31.6798C150.056 31.6798 150.549 31.1853 150.549 31.1853L154.615 18.0944C154.75 17.6564 154.956 17.2437 155.225 16.8726C155.515 16.6107 155.893 16.5526 156.125 16.8726C156.503 17.7162 158.216 26.4144 158.71 29.2944C159 31.2435 159 31.5053 158.042 31.5053Z" fill="#053220"/>
</svg>
