<svg width="300" height="100" viewBox="0 0 212 64" fill="none" aria-label="Logotipo de PeriRail" role="img"><defs><style>.cls-1,.cls-2{fill:#263264}.cls-1{fill-rule:evenodd}</style></defs><g id="Capa_2" data-name="Capa 2"><g id="g5406"><path id="path5408" d="M17.07 42.21 14.23 45l.27.26 2.67-3-.1-.1m.62.56-2.66 3 .39.32 2.45-3.16a.9.9 0 0 1-.18-.15M38 40.46l3.13 2.43A17.81 17.81 0 0 0 44.56 35l-4-.57a14 14 0 0 1-2.59 6m-2.6 2.65 2.39 3.16.41-.32-2.61-3-.19.16m.72-.61 2.6 3a3.69 3.69 0 0 0 .41-.38l-2.8-2.8-.21.19m-19.76-1-3 2.62.38.41 2.84-2.83-.19-.2m20.48.3 2.8 2.81c.09-.09.18-.17.27-.27L37 41.7l-.09.11m.57-.62 3 2.63a4.24 4.24 0 0 0 .33-.39L37.59 41a1.35 1.35 0 0 0-.16.19m3.38-8.37 4 .29v-.58h-4Zm-.09 1 3.94.54c0-.17 0-.33.07-.51l-4-.29a2.3 2.3 0 0 0 0 .26M37.79 23.3 41 20.89l-.32-.42-3 2.64a1 1 0 0 1 .15.19M25.53 18l-.22-4h-.53l.5 4h.25m10.32 3.28 2.67-3-.41-.28-2.45 3.18a1.6 1.6 0 0 0 .19.16m1.71-3.77a17.91 17.91 0 0 0-8-3.37l-.56 4a14 14 0 0 1 6.07 2.56Zm-9.89-3.58h-.57v4h.3Zm-1.28 4v-4H26l.23 4a.78.78 0 0 1 .16 0m2.5-3.91-.52-.08-.3 4h.26ZM40.77 31l4-.21a4.84 4.84 0 0 1 0-.53l-4 .49a2.09 2.09 0 0 1 0 .25m-25 9.82-3.2 2.42.33.4 3-2.63-.15-.19M40.68 30l4-.5a17.9 17.9 0 0 0-3.24-8.09l-3.18 2.42A14 14 0 0 1 40.68 30m-4.2-8.16L39.33 19l-.3-.28-2.66 3a.38.38 0 0 1 .11.11m.7.7 3-2.62a5.25 5.25 0 0 0-.4-.42L37 22.36l.21.21m3.64 9.25h4v-.42l-4 .24a.38.38 0 0 0 0 .15m-28.12.6h-4v.39l4-.23a.61.61 0 0 1 0-.14m0-1-4-.29a5.52 5.52 0 0 0 0 .57h4a2.91 2.91 0 0 1 0-.3m0 1.82-4 .24v.51l4-.5v-.25m0-2.75-4-.57v.53l4 .29a2.11 2.11 0 0 1 0-.25m.09 3.69-4 .5a17.92 17.92 0 0 0 3.29 8l3.2-2.42a13.81 13.81 0 0 1-2.48-6.05M15.94 23l-3-2.68c-.12.13-.22.26-.33.4l3.19 2.49a1.66 1.66 0 0 1 .16-.21m-.58.75-3.2-2.47A17.67 17.67 0 0 0 8.9 29.2l4 .57a14.05 14.05 0 0 1 2.49-6m2.55-2.69-2.43-3.23-.4.32 2.64 3.06.19-.15m-.72.61-2.65-3.05-.4.39L17 21.91l.2-.2m7.4-3.59-.5-4a18.11 18.11 0 0 0-8.1 3.32l2.43 3.22a14.14 14.14 0 0 1 6.13-2.54M16.5 22.4l-2.86-2.86c-.08.1-.18.19-.27.29l3 2.68.1-.11" class="cls-1"/></g><g id="g5410"><path id="path5412" d="M15 38.64a13.34 13.34 0 0 0 11.24 6.79v-6.74h-2.67v.23h1.85v.61h-2.36v1h.55v.27h-.55v.08h.56v.28H23v.09h.61v.25H22.4V40h-.18v1.49h-2.05V40H20v1.45h-1.21v-.22h.58v-.1h-.57v-.28h.57v-.11h-.56v-.23h.56v-1H17v-.61h1.86v-.22Z" class="cls-1"/></g><g id="g5414"><path id="path5416" d="M18.81 38.66H17V38h1.86v-.2H17v-.66h1.86v-.24H17v-.61h1.7v-.44h-.44v-.51h-.56v-.52h-.56v-.49h2.41l.4 1.58h.78v-.51H20v-1h.7v-.37h1.33v1.9h.51l.63-1.51h2.14v.46h-.51v.52h-.6v.52h-.43v.45h1.73v.6h-1.88v.25h1.88v.64h-1.88V38h1.86v.62h-1.84 2.67v-6.23h-13A13.47 13.47 0 0 0 15 38.65Z" class="cls-1"/></g><g id="g5418"><path id="path5420" d="M17.51 26.21a3 3 0 0 1 .46.88.78.78 0 0 1 1.11-.09 14.35 14.35 0 0 1 1-3.18 7.18 7.18 0 0 1 1.06-1.73c.42-.48.83-.86 1.24-.88.77 0 1.36.83 1.84 1.75a10.62 10.62 0 0 1 .91 2.61 45.71 45.71 0 0 1 .35 5v.16H14.9v-.38a7.53 7.53 0 0 1 .76-3.56c.41-.7.79-1 1.08-1.07a1.1 1.1 0 0 1 .74.5m-4.19 5.48 13 .06.05-13a13.37 13.37 0 0 0-13.06 13m7-1.37h4.65a37.43 37.43 0 0 0-.33-4.47h.14-.14a9.36 9.36 0 0 0-.84-2.4c-.42-.86-1-1.52-1.5-1.52-.18 0-.59.28-1 .74a6.75 6.75 0 0 0-.88 1.58 15 15 0 0 0-.92 3.15 6 6 0 0 1 .79 2.9M16 27.06a7.22 7.22 0 0 0-.58 3.25h4.41v.06a5.7 5.7 0 0 0-.69-2.82.56.56 0 0 0-.45-.28.63.63 0 0 0-.47.27c.08.32.14.68.21 1.12a.13.13 0 0 1-.11.16.16.16 0 0 1-.21-.09 6.75 6.75 0 0 0-.28-1.28 2.48 2.48 0 0 0-.43-.84c-.28-.37-.74-.8-1.39.44m19.84 3.39h-.66v-2.28h-.28v2.26h-.64v-2.27h-3.43v2.28h-.63v-2.25h-.31v2.27h-.65v-2.3h-.43v-2.46h.43v-2.35h-1v-.52h1v-.18h-1v-.54h1.08v-1.16h.59v1.17h.29V21h.64v4.7h4.35V24h.65ZM27.1 18.71l-.05 13h13a13.37 13.37 0 0 0-12.95-13" class="cls-1"/></g><g id="g5422"><path id="path5424" d="M27.16 32.5h5v1.66h-5Z" class="cls-2"/></g><g id="g5426"><path id="path5428" d="M27.15 34.71h2v3.39h-2Z" class="cls-2"/></g><g id="g5430"><path id="path5432" d="M32.15 34.73h-2.31v5.77h5.42v-5h-3.12Z" class="cls-2"/></g><g id="g5434"><path id="path5436" d="M35.91 35.57h3.45a10 10 0 0 1-.87 2.43 19 19 0 0 1-1.78 2.54h-.81Z" class="cls-2"/></g><g id="g5438"><path id="path5440" d="m31 41.18.11 3.26A11 11 0 0 0 34 43.07c1.86-1.26 2.06-1.87 2.06-1.87Z" class="cls-2"/></g><g id="g5442"><path id="path5444" d="M29.2 38.76h-2.05v6.56a10.64 10.64 0 0 0 1.44-.14c.66-.11 1.91-.5 1.91-.5l-.1-3.5h-1.21Z" class="cls-2"/></g><g id="g5446"><path id="path5448" d="M39.87 33.64c0-.36.06-1.1.06-1.1h-7.15v2.37h6.79s.22-.89.3-1.27" class="cls-2"/></g><g id="g5450"><path id="path5452" d="m19.16 45.32-.35.52.19.16a.31.31 0 0 0 .47-.07.3.3 0 0 0-.12-.47Zm14.27.2.42-.32 1 1.42.76-.54.2.28-1.18.85ZM33.18 48l-.89-1.89.48-.24.89 1.9Zm-1.4.53-.23-.4-.67.19v.46l-.53.14.11-2.2.63-.17 1.22 1.84ZM29 49.1a.39.39 0 0 1-.08-.22l-.06-.4c0-.16-.13-.24-.33-.22h-.29l.09.88h-.52l-.22-2.08 1-.1c.44 0 .71.11.75.46a.48.48 0 0 1-.38.56c.36 0 .43.16.49.6 0 .21 0 .34.15.36Zm-2.23-.48c0 .54-.43.67-.85.66s-.84-.15-.82-.71l.06-1.45h.52l-.06 1.46c0 .2.06.36.31.37s.31-.15.31-.36l.05-1.45h.53Zm-2.46-1.06a.47.47 0 0 1-.53.41c.34.11.36.28.28.7-.05.22-.05.34 0 .4l-.55-.07a.31.31 0 0 1 0-.23l.08-.39c0-.17 0-.28-.26-.32L23 48l-.18.86-.51-.1.43-2.05.95.21c.43.08.64.31.57.66M22 46.81l-.86-.36-.19.46.81.34-.13.32-.81-.34-.22.52.91.37-.14.32-1.37-.57.8-1.93 1.35.55Zm-3.14-.55-.23-.16-.46.7-.43-.3 1.15-1.73.77.52a.61.61 0 0 1 .24.92c-.23.35-.62.33-1 0m16-2.74a14.06 14.06 0 0 1-16.44-.17L16 46.52a18.09 18.09 0 0 0 21.29.17Zm-6.49 3.84h-.25l.07.59h.22c.25 0 .37-.13.35-.36s-.16-.26-.39-.25m-4.92-.21h-.24l-.13.59h.21c.27.05.41 0 .46-.22s-.05-.3-.3-.36m7.37-.09v1l.5-.13-.5-.84Z" class="cls-2"/></g><path d="M55.74 41.2a.62.62 0 0 1-.45-.19.58.58 0 0 1-.19-.45V23.27a.65.65 0 0 1 .19-.48.61.61 0 0 1 .45-.18h7.11a9.27 9.27 0 0 1 3.61.65 5.11 5.11 0 0 1 2.39 2 5.9 5.9 0 0 1 .85 3.28 5.81 5.81 0 0 1-.85 3.28 5.11 5.11 0 0 1-2.39 1.93 9.46 9.46 0 0 1-3.61.64h-4v6.21a.63.63 0 0 1-.64.64Zm3.1-9.8h3.88a3.45 3.45 0 0 0 2.36-.73 2.75 2.75 0 0 0 .83-2.17 3 3 0 0 0-.77-2.13 3.21 3.21 0 0 0-2.42-.81h-3.88ZM73.24 41.2a.66.66 0 0 1-.46-.19.61.61 0 0 1-.18-.45V23.27a.68.68 0 0 1 .18-.48.65.65 0 0 1 .46-.18h11.68a.62.62 0 0 1 .66.66V25a.64.64 0 0 1-.18.45.68.68 0 0 1-.48.18h-8.74v4.7h8.16a.68.68 0 0 1 .47.17.61.61 0 0 1 .19.5v1.65a.58.58 0 0 1-.19.46.63.63 0 0 1-.47.17h-8.16v4.86h8.95a.62.62 0 0 1 .48.19.66.66 0 0 1 .19.48v1.75a.62.62 0 0 1-.19.45.66.66 0 0 1-.48.19ZM89.75 41.2a.65.65 0 0 1-.64-.64V23.27a.69.69 0 0 1 .19-.48.61.61 0 0 1 .45-.18h6.88a7.85 7.85 0 0 1 5.07 1.49 5.2 5.2 0 0 1 1.86 4.32 5.31 5.31 0 0 1-1 3.27 5.46 5.46 0 0 1-2.56 1.89l3.88 6.77a.67.67 0 0 1 .08.29.54.54 0 0 1-.17.4.61.61 0 0 1-.39.16H101a.93.93 0 0 1-.69-.24 2.21 2.21 0 0 1-.37-.48l-3.44-6.29h-3.69v6.37a.63.63 0 0 1-.64.64Zm3.06-10h3.74a3.53 3.53 0 0 0 2.45-.74 2.67 2.67 0 0 0 .79-2.06 2.78 2.78 0 0 0-.79-2.09 3.4 3.4 0 0 0-2.43-.75h-3.76ZM114.39 41.46a9.56 9.56 0 0 1-4-.78 5.71 5.71 0 0 1-2.63-2.42 8.37 8.37 0 0 1-.92-4.18V23.27a.68.68 0 0 1 .18-.48.63.63 0 0 1 .45-.18h2.42a.6.6 0 0 1 .46.18.68.68 0 0 1 .18.48v10.81a4.44 4.44 0 0 0 1 3.23 3.81 3.81 0 0 0 2.84 1 3.75 3.75 0 0 0 2.83-1 4.49 4.49 0 0 0 1-3.23V23.27a.69.69 0 0 1 .19-.48.65.65 0 0 1 .48-.18h2.39a.6.6 0 0 1 .46.18.67.67 0 0 1 .17.48v10.81a8.49 8.49 0 0 1-.91 4.18 5.64 5.64 0 0 1-2.6 2.42 9.56 9.56 0 0 1-3.99.78ZM126.93 41.2a.55.55 0 0 1-.59-.59V23.22a.61.61 0 0 1 .16-.45.57.57 0 0 1 .43-.16h6.18a6.9 6.9 0 0 1 4.45 1.33 4.84 4.84 0 0 1 1.66 4 5.12 5.12 0 0 1-1.06 3.4 5.31 5.31 0 0 1-2.95 1.73l4.28 7.27a.75.75 0 0 1 .08.29.55.55 0 0 1-.54.54h-.31a.83.83 0 0 1-.64-.23 2.52 2.52 0 0 1-.37-.49l-4.22-7.14H128v7.27a.61.61 0 0 1-.15.43.66.66 0 0 1-.46.16Zm1.07-9.46h5a5.27 5.27 0 0 0 3.44-.94 3.49 3.49 0 0 0 1.11-2.8 3.5 3.5 0 0 0-1.13-2.83 5.33 5.33 0 0 0-3.42-.97h-5ZM142 41.2a.52.52 0 0 1-.37-.16.51.51 0 0 1-.16-.38.84.84 0 0 1 .05-.29l6.72-17.23a.87.87 0 0 1 .28-.4.77.77 0 0 1 .49-.13h.9a.77.77 0 0 1 .49.13.87.87 0 0 1 .28.4l6.72 17.23a1.18 1.18 0 0 1 .05.29.51.51 0 0 1-.16.38.52.52 0 0 1-.37.16h-.53a.51.51 0 0 1-.4-.15 1 1 0 0 1-.18-.25l-1.65-4.25h-9.4l-1.65 4.25a.52.52 0 0 1-.17.25.54.54 0 0 1-.41.15Zm3.4-6.24h8.12l-4.06-10.47ZM161.18 41.2a.55.55 0 0 1-.58-.59V23.19a.55.55 0 0 1 .16-.42.54.54 0 0 1 .42-.16h.5a.57.57 0 0 1 .43.16.55.55 0 0 1 .16.42v17.42a.57.57 0 0 1-.16.43.61.61 0 0 1-.43.16ZM167.84 41.2a.61.61 0 0 1-.42-.16.57.57 0 0 1-.16-.43V23.19a.55.55 0 0 1 .16-.42.57.57 0 0 1 .42-.16h.51a.54.54 0 0 1 .42.16.55.55 0 0 1 .16.42V39.6h9.16a.66.66 0 0 1 .46.16.64.64 0 0 1 .15.45v.4a.61.61 0 0 1-.15.43.66.66 0 0 1-.46.16Z" class="cls-2"/></g></svg>
