<svg width="1246" height="705" viewBox="0 0 1246 705" fill="none" xmlns="http://www.w3.org/2000/svg">
<path d="M74.1765 -70H1V-2.08333M74.1765 -70V-2.08333M74.1765 -70H147.353M74.1765 -2.08333H1M74.1765 -2.08333H147.353M74.1765 -2.08333V65.8333M1 -2.08333V65.8333M147.353 -70V-2.08333M147.353 -70H220.529M147.353 -2.08333H220.529M147.353 -2.08333V65.8333M220.529 -70V-2.08333M220.529 -70H293.706M220.529 -2.08333H293.706M220.529 -2.08333V65.8333M293.706 -70V-2.08333M293.706 -70H366.882M293.706 -2.08333H366.882M293.706 -2.08333V65.8333M366.882 -70V-2.08333M366.882 -70H440.059M366.882 -2.08333H440.059M366.882 -2.08333V65.8333M440.059 -70V-2.08333M440.059 -70H513.235M440.059 -2.08333H513.235M440.059 -2.08333V65.8333M513.235 -70V-2.08333M513.235 -70H586.412M513.235 -2.08333H586.412M513.235 -2.08333V65.8333M586.412 -70V-2.08333M586.412 -70H659.588M586.412 -2.08333H659.588M586.412 -2.08333V65.8333M659.588 -70V-2.08333M659.588 -70H732.765M659.588 -2.08333H732.765M659.588 -2.08333V65.8333M732.765 -70V-2.08333M732.765 -70H805.941M732.765 -2.08333H805.941M732.765 -2.08333V65.8333M805.941 -70V-2.08333M805.941 -70H879.118M805.941 -2.08333H879.118M805.941 -2.08333V65.8333M879.118 -70V-2.08333M879.118 -70H952.294M879.118 -2.08333H952.294M879.118 -2.08333V65.8333M952.294 -70V-2.08333M952.294 -70H1025.47M952.294 -2.08333H1025.47M952.294 -2.08333V65.8333M1025.47 -70V-2.08333M1025.47 -70H1098.65M1025.47 -2.08333H1098.65M1025.47 -2.08333V65.8333M1098.65 -70V-2.08333M1098.65 -70H1171.82M1098.65 -2.08333H1171.82M1098.65 -2.08333V65.8333M1171.82 -70V-2.08333M1171.82 -70H1245V-2.08333M1171.82 -2.08333H1245M1171.82 -2.08333V65.8333M1245 -2.08333V65.8333M74.1765 65.8333H1M74.1765 65.8333H147.353M74.1765 65.8333V133.75M1 65.8333V133.75M147.353 65.8333H220.529M147.353 65.8333V133.75M220.529 65.8333H293.706M220.529 65.8333V133.75M293.706 65.8333H366.882M293.706 65.8333V133.75M366.882 65.8333H440.059M366.882 65.8333V133.75M440.059 65.8333H513.235M440.059 65.8333V133.75M513.235 65.8333H586.412M513.235 65.8333V133.75M586.412 65.8333H659.588M586.412 65.8333V133.75M659.588 65.8333H732.765M659.588 65.8333V133.75M732.765 65.8333H805.941M732.765 65.8333V133.75M805.941 65.8333H879.118M805.941 65.8333V133.75M879.118 65.8333H952.294M879.118 65.8333V133.75M952.294 65.8333H1025.47M952.294 65.8333V133.75M1025.47 65.8333H1098.65M1025.47 65.8333V133.75M1098.65 65.8333H1171.82M1098.65 65.8333V133.75M1171.82 65.8333H1245M1171.82 65.8333V133.75M1245 65.8333V133.75M74.1765 133.75H1M74.1765 133.75H147.353M74.1765 133.75V201.667M1 133.75V201.667M147.353 133.75H220.529M147.353 133.75V201.667M220.529 133.75H293.706M220.529 133.75V201.667M293.706 133.75H366.882M293.706 133.75V201.667M366.882 133.75H440.059M366.882 133.75V201.667M440.059 133.75H513.235M440.059 133.75V201.667M513.235 133.75H586.412M513.235 133.75V201.667M586.412 133.75H659.588M586.412 133.75V201.667M659.588 133.75H732.765M659.588 133.75V201.667M732.765 133.75H805.941M732.765 133.75V201.667M805.941 133.75H879.118M805.941 133.75V201.667M879.118 133.75H952.294M879.118 133.75V201.667M952.294 133.75H1025.47M952.294 133.75V201.667M1025.47 133.75H1098.65M1025.47 133.75V201.667M1098.65 133.75H1171.82M1098.65 133.75V201.667M1171.82 133.75H1245M1171.82 133.75V201.667M1245 133.75V201.667M74.1765 201.667H1M74.1765 201.667H147.353M74.1765 201.667V269.583M1 201.667V269.583M147.353 201.667H220.529M147.353 201.667V269.583M220.529 201.667H293.706M220.529 201.667V269.583M293.706 201.667H366.882M293.706 201.667V269.583M366.882 201.667H440.059M366.882 201.667V269.583M440.059 201.667H513.235M440.059 201.667V269.583M513.235 201.667H586.412M513.235 201.667V269.583M586.412 201.667H659.588M586.412 201.667V269.583M659.588 201.667H732.765M659.588 201.667V269.583M732.765 201.667H805.941M732.765 201.667V269.583M805.941 201.667H879.118M805.941 201.667V269.583M879.118 201.667H952.294M879.118 201.667V269.583M952.294 201.667H1025.47M952.294 201.667V269.583M1025.47 201.667H1098.65M1025.47 201.667V269.583M1098.65 201.667H1171.82M1098.65 201.667V269.583M1171.82 201.667H1245M1171.82 201.667V269.583M1245 201.667V269.583M74.1765 269.583H1M74.1765 269.583H147.353M74.1765 269.583V337.5M1 269.583V337.5M147.353 269.583H220.529M147.353 269.583V337.5M220.529 269.583H293.706M220.529 269.583V337.5M293.706 269.583H366.882M293.706 269.583V337.5M366.882 269.583H440.059M366.882 269.583V337.5M440.059 269.583H513.235M440.059 269.583V337.5M513.235 269.583H586.412M513.235 269.583V337.5M586.412 269.583H659.588M586.412 269.583V337.5M659.588 269.583H732.765M659.588 269.583V337.5M732.765 269.583H805.941M732.765 269.583V337.5M805.941 269.583H879.118M805.941 269.583V337.5M879.118 269.583H952.294M879.118 269.583V337.5M952.294 269.583H1025.47M952.294 269.583V337.5M1025.47 269.583H1098.65M1025.47 269.583V337.5M1098.65 269.583H1171.82M1098.65 269.583V337.5M1171.82 269.583H1245M1171.82 269.583V337.5M1245 269.583V337.5M74.1765 337.5H1M74.1765 337.5H147.353M74.1765 337.5V405.417M1 337.5V405.417M147.353 337.5H220.529M147.353 337.5V405.417M220.529 337.5H293.706M220.529 337.5V405.417M293.706 337.5H366.882M293.706 337.5V405.417M366.882 337.5H440.059M366.882 337.5V405.417M440.059 337.5H513.235M440.059 337.5V405.417M513.235 337.5H586.412M513.235 337.5V405.417M586.412 337.5H659.588M586.412 337.5V405.417M659.588 337.5H732.765M659.588 337.5V405.417M732.765 337.5H805.941M732.765 337.5V405.417M805.941 337.5H879.118M805.941 337.5V405.417M879.118 337.5H952.294M879.118 337.5V405.417M952.294 337.5H1025.47M952.294 337.5V405.417M1025.47 337.5H1098.65M1025.47 337.5V405.417M1098.65 337.5H1171.82M1098.65 337.5V405.417M1171.82 337.5H1245M1171.82 337.5V405.417M1245 337.5V405.417M74.1765 405.417H1M74.1765 405.417H147.353M74.1765 405.417V473.333M1 405.417V473.333M147.353 405.417H220.529M147.353 405.417V473.333M220.529 405.417H293.706M220.529 405.417V473.333M293.706 405.417H366.882M293.706 405.417V473.333M366.882 405.417H440.059M366.882 405.417V473.333M440.059 405.417H513.235M440.059 405.417V473.333M513.235 405.417H586.412M513.235 405.417V473.333M586.412 405.417H659.588M586.412 405.417V473.333M659.588 405.417H732.765M659.588 405.417V473.333M732.765 405.417H805.941M732.765 405.417V473.333M805.941 405.417H879.118M805.941 405.417V473.333M879.118 405.417H952.294M879.118 405.417V473.333M952.294 405.417H1025.47M952.294 405.417V473.333M1025.47 405.417H1098.65M1025.47 405.417V473.333M1098.65 405.417H1171.82M1098.65 405.417V473.333M1171.82 405.417H1245M1171.82 405.417V473.333M1245 405.417V473.333M74.1765 473.333H1M74.1765 473.333H147.353M74.1765 473.333V541.25M1 473.333V541.25M147.353 473.333H220.529M147.353 473.333V541.25M220.529 473.333H293.706M220.529 473.333V541.25M293.706 473.333H366.882M293.706 473.333V541.25M366.882 473.333H440.059M366.882 473.333V541.25M440.059 473.333H513.235M440.059 473.333V541.25M513.235 473.333H586.412M513.235 473.333V541.25M586.412 473.333H659.588M586.412 473.333V541.25M659.588 473.333H732.765M659.588 473.333V541.25M732.765 473.333H805.941M732.765 473.333V541.25M805.941 473.333H879.118M805.941 473.333V541.25M879.118 473.333H952.294M879.118 473.333V541.25M952.294 473.333H1025.47M952.294 473.333V541.25M1025.47 473.333H1098.65M1025.47 473.333V541.25M1098.65 473.333H1171.82M1098.65 473.333V541.25M1171.82 473.333H1245M1171.82 473.333V541.25M1245 473.333V541.25M74.1765 541.25H1M74.1765 541.25H147.353M74.1765 541.25V609.167M1 541.25V609.167M147.353 541.25H220.529M147.353 541.25V609.167M220.529 541.25H293.706M220.529 541.25V609.167M293.706 541.25H366.882M293.706 541.25V609.167M366.882 541.25H440.059M366.882 541.25V609.167M440.059 541.25H513.235M440.059 541.25V609.167M513.235 541.25H586.412M513.235 541.25V609.167M586.412 541.25H659.588M586.412 541.25V609.167M659.588 541.25H732.765M659.588 541.25V609.167M732.765 541.25H805.941M732.765 541.25V609.167M805.941 541.25H879.118M805.941 541.25V609.167M879.118 541.25H952.294M879.118 541.25V609.167M952.294 541.25H1025.47M952.294 541.25V609.167M1025.47 541.25H1098.65M1025.47 541.25V609.167M1098.65 541.25H1171.82M1098.65 541.25V609.167M1171.82 541.25H1245M1171.82 541.25V609.167M1245 541.25V609.167M74.1765 609.167H1M74.1765 609.167H147.353M74.1765 609.167V677.083M1 609.167V677.083M147.353 609.167H220.529M147.353 609.167V677.083M220.529 609.167H293.706M220.529 609.167V677.083M293.706 609.167H366.882M293.706 609.167V677.083M366.882 609.167H440.059M366.882 609.167V677.083M440.059 609.167H513.235M440.059 609.167V677.083M513.235 609.167H586.412M513.235 609.167V677.083M586.412 609.167H659.588M586.412 609.167V677.083M659.588 609.167H732.765M659.588 609.167V677.083M732.765 609.167H805.941M732.765 609.167V677.083M805.941 609.167H879.118M805.941 609.167V677.083M879.118 609.167H952.294M879.118 609.167V677.083M952.294 609.167H1025.47M952.294 609.167V677.083M1025.47 609.167H1098.65M1025.47 609.167V677.083M1098.65 609.167H1171.82M1098.65 609.167V677.083M1171.82 609.167H1245M1171.82 609.167V677.083M1245 609.167V677.083M74.1765 677.083H1M74.1765 677.083H147.353M74.1765 677.083V745M1 677.083V745H74.1765M147.353 677.083H220.529M147.353 677.083V745M220.529 677.083H293.706M220.529 677.083V745M293.706 677.083H366.882M293.706 677.083V745M366.882 677.083H440.059M366.882 677.083V745M440.059 677.083H513.235M440.059 677.083V745M513.235 677.083H586.412M513.235 677.083V745M586.412 677.083H659.588M586.412 677.083V745M659.588 677.083H732.765M659.588 677.083V745M732.765 677.083H805.941M732.765 677.083V745M805.941 677.083H879.118M805.941 677.083V745M879.118 677.083H952.294M879.118 677.083V745M952.294 677.083H1025.47M952.294 677.083V745M1025.47 677.083H1098.65M1025.47 677.083V745M1098.65 677.083H1171.82M1098.65 677.083V745M1171.82 677.083H1245M1171.82 677.083V745M1245 677.083V745H1171.82M74.1765 745H147.353M147.353 745H220.529M220.529 745H293.706M293.706 745H366.882M366.882 745H440.059M440.059 745H513.235M513.235 745H586.412M586.412 745H659.588M659.588 745H732.765M732.765 745H805.941M805.941 745H879.118M879.118 745H952.294M952.294 745H1025.47M1025.47 745H1098.65M1098.65 745H1171.82" stroke="url(#paint0_radial_8826_49769)" stroke-opacity="0.5" stroke-width="0.874304"/>
<defs>
<radialGradient id="paint0_radial_8826_49769" cx="0" cy="0" r="1" gradientUnits="userSpaceOnUse" gradientTransform="translate(623 359.268) rotate(90) scale(384.861 622.938)">
<stop/>
<stop offset="1" stop-opacity="0"/>
</radialGradient>
</defs>
</svg>
