
<svg fill="white" id="mapi1" data-name="mapi 1 " viewBox="0 0 203.14 148.57" aria-label="Logotipo de Machupicchu Travel"><defs/><path d="M11.59 108a18 18 0 0 1-5 5.6 12.07 12.07 0 0 0-3.53 3.4.48.48 0 0 1-.84 0 2.14 2.14 0 0 1-.18-.63c-.18-3.24-.31-6.47-.44-9.71a2.58 2.58 0 0 1 .12-1.37c1.3-2.12 1.56-4.53 2.16-6.86.49-1.86 1.35-3.62 1.92-5.46.74-2.37 1.36-4.78 2-7.18a23.69 23.69 0 0 1 3.8-7.2 63.21 63.21 0 0 1 11-12.22 4.88 4.88 0 0 1 7.35 1 8.33 8.33 0 0 1 .78 1.27A3.7 3.7 0 0 0 34 71.12c1.89.2 1.7 2 2.15 3.35a3.3 3.3 0 0 0 .74 1.47A42.5 42.5 0 0 1 46.17 87c1 1.75 1.52 1.76 3.1.53a9 9 0 0 0 3.42-4.89 5.07 5.07 0 0 1 .45-1.11c1.16-2.15 2.63-2.56 4.68-1.24a18.73 18.73 0 0 1 2.33 1.76c.68.61 1.11.52 1.54-.25s.92-1.53 1.4-2.29a7.16 7.16 0 0 1 3.77-3.2c3.61-1.18 5.54-3.75 6.61-7.27A126.6 126.6 0 0 1 81 50.26c1.43-2.92 2.35-6.09 3.6-9.11.61-1.46 1.5-2.81 2.2-4.24s1.28-3.18 2.15-4.64A75 75 0 0 1 93.77 25c2.43-3.16 5-6.19 7.64-9.17a40.28 40.28 0 0 1 3.6-3.16 27 27 0 0 1 2.32-2.11 5.74 5.74 0 0 1 2.55-1.17c5.62-.38 9.55 2.4 12.22 7.08 2.29 4 4.41 8.15 6.54 12.27a3.29 3.29 0 0 0 3.25 2.17A2.22 2.22 0 0 1 134 32.3a14.14 14.14 0 0 0 3.77 4.83c1.9 1.76 3.18 4.21 4.79 6.26a48 48 0 0 1 3.16 4.6 2.74 2.74 0 0 0 3.13 1.4 9.77 9.77 0 0 1 10 3.52 11 11 0 0 0 9.42 3.92c5.43-.47 10.66.72 15.77 2.49 1.23.43 1.14 1.73 1.37 2.67 1.3 5.25 2.48 10.53 3.7 15.8a3.46 3.46 0 0 1 .08 1q-1.72-6.41-3.44-12.8c-.27-1-.54-2-.78-2.93a4.06 4.06 0 0 0-2.57-3 27.47 27.47 0 0 0-9.21-2c-3-.13-6.09.15-9.13.1a4.83 4.83 0 0 1-2.51-.89 10.9 10.9 0 0 1-2-2.1 12 12 0 0 0-11.15-4.39 3.41 3.41 0 0 1-3.49-1.56l-6.41-8.65a2.87 2.87 0 0 0-.5-.57 23 23 0 0 1-4.85-5.65 3.18 3.18 0 0 0-2.71-1.58c-1.55-.06-2.27-1.21-2.92-2.4-1.92-3.52-3.81-7-5.74-10.56-1.34-2.44-2.76-4.84-5.17-6.4a9.17 9.17 0 0 0-6.88-1.53 1.4 1.4 0 0 0-.9.46c-.68 1.2-1.85 1.67-3 2.28a6.33 6.33 0 0 0-1.74 1.53c-3.6 4.42-7.4 8.7-10.66 13.35a60.61 60.61 0 0 0-5.25 10.12c-1.45 3.22-2.46 6.64-3.86 9.89-1 2.38-2.4 4.62-3.6 6.93a84.31 84.31 0 0 0-5.66 14.79 9.81 9.81 0 0 1-6.66 7.06 8.35 8.35 0 0 0-4.8 4.55A4.06 4.06 0 0 1 61 85a2 2 0 0 1-2.49-1c-.61-1-1.37-2.18-2.7-2s-1.66 1.58-2 2.67c-.73 2.58-2 4.6-4.66 5.58-2 .72-2.81.53-3.93-1.23-.71-1.11-1.28-2.33-2.06-3.4a46.07 46.07 0 0 0-3-3.66C38.65 80.29 37 78.74 35.62 77a6 6 0 0 1-1-2.46c-.39-1.68-.74-2-2.43-2-1.53 0-1.94-.41-2.31-2.44a4.07 4.07 0 0 0-5.36-3.2 2.43 2.43 0 0 0-.9.51c-3.51 3.61-7.25 7-10.4 10.91-2.2 2.72-3.61 6.08-5.35 9.17a2.77 2.77 0 0 0-.16.79c-.28 1.55-.24 3.26-.91 4.62-1.56 3.18-2.09 6.67-3.31 9.92C2 106.9 2.18 111 2.23 115.19c0 .26.26.74.38.74a1.57 1.57 0 0 0 .86-.41c2.72-2.49 5.36-5.07 8.07-7.57Z" class=" mapicls-1"/><path d="M113.92 23.91a56.46 56.46 0 0 0-.7 5.9 56.05 56.05 0 0 0 .34 8.4 21.82 21.82 0 0 1-.94 9.53c-1.71 5.49-3.39 11-4.84 16.55a40.5 40.5 0 0 0-.67 6.73c-.06.62 0 1.25 0 1.87 0 .87-.45 1.25-1.29.81-1-.52-1.49-.22-1.58.91-.3 3.76-.65 7.52-1 11.27a13.37 13.37 0 0 1-.1 1.4 43.6 43.6 0 0 1-.54-11.74 8.65 8.65 0 0 1 .47-2.27A2.66 2.66 0 0 1 104 72a2.34 2.34 0 0 0 1.11-2.4c-.49-4.17.49-8.11 1.84-12 1.62-4.66 3.29-9.31 4.75-14a9.36 9.36 0 0 0 .2-4.37 24.57 24.57 0 0 1 .45-9.85c.38-1.85.83-3.69 1.25-5.54ZM83.52 138.87a2.62 2.62 0 0 1 0-.33c2-.3 1.89-1.74 1.87-3.26v-13c0-.54.39-1.3-.55-1.55a2.7 2.7 0 0 0-2.84.78c-.2.33-.41.65-.62 1l-.3-.09v-2.5h11.25v2.37c-.63.22-1 .18-1.23-.63-.28-1-1-1.15-2.76-.9-1.07.16-.76.93-.76 1.51v13.92c0 1.07 0 2 1.37 2.26.1 0 .17.21.32.43ZM109.14 138.89c-.57-3.24-1.22-6.4-1.64-9.6-.19-1.43-.79-2.64-2.21-2.82 1.78 0 3 .13 4.62.09-1.5 2.49-.33 4.85-.14 7.2.06.71.23 1.4.34 2.1h.3a3.14 3.14 0 0 0 .29-.75c.29-2.22 1-4.43.8-6.66a7.35 7.35 0 0 0-.67-1.85h4.36a1.48 1.48 0 0 1 0 .33c-1.9.23-2 1.67-2.19 3.11-.31 2.34-.66 4.66-1.06 7-.4 2.02-.53 2.07-2.8 1.85ZM106.44 138.65a2 2 0 0 1-.65.28c-1.66.1-3.33.21-5 .22-1.14 0-1.73-.67-1.79-1.84v-1.28a2.06 2.06 0 0 1 1.76-2.35c2-.64 2.08-.69 2.11-2.84a10.28 10.28 0 0 0-.07-2.42c-.11-.47-.43-1-1-1.06s-.84.54-1.07 1a4.24 4.24 0 0 0-.14 1.44h-1.43c-.16-1.09-.32-2.18.71-3a3.64 3.64 0 0 1 3.84 0 2.79 2.79 0 0 1 .78 1.78c.09 2.51 0 5 .05 7.54 0 1.95.04 2 1.9 2.53Zm-3.63-4.89c-1.93.59-2.68 1.75-2.15 3.41.14.46.6 1.15 1.14 1.13s.92-.71 1-1.12a29.62 29.62 0 0 0 .01-3.42ZM122 132.61h-3.14c-.83 0-1.1.3-1.06 1.09v3c0 .84.25 1.63 1.25 1.61s1.32-.8 1.4-1.69v-.91h1.34c.46 1.63.25 2.52-.72 3-1.34.73-3.7.55-4.45-.43a2.27 2.27 0 0 1-.42-1.27v-8.7a2.19 2.19 0 0 1 .71-1.44 4.66 4.66 0 0 1 4.31 0 2 2 0 0 1 .71 1.24c.07 1.42.07 2.89.07 4.5Zm-4.29-2.77a2.81 2.81 0 0 0 .14 1.25 1.52 1.52 0 0 0 1 .7c.53.05 1.41.36 1.48-.56a11.72 11.72 0 0 0-.2-3.18 1.41 1.41 0 0 0-1.09-.83 1.52 1.52 0 0 0-1.07.83 6.91 6.91 0 0 0-.28 1.79Z" class=" mapicls-1"/><path d="M90.67 126.69a8.5 8.5 0 0 1 1.15-.18c1.4 0 2.79-.05 4.18 0 1.72 0 2.11.41 2.12 2.12v1.22h-1.55v-1.23c0-.73-.23-1.43-1-1.42a1.29 1.29 0 0 0-1.23 1.42v7.89c0 1 0 1.89 1.35 1.93.14 0 .27.22.56.47h-5.37a1.22 1.22 0 0 1 .06-.29c1.83-.29 1.67-1.63 1.64-3v-6.49c0-1.05-.12-1.86-1.37-2-.1-.01-.21-.13-.54-.44ZM127.25 138.87h-4c2-.5 1.39-2 1.4-3.29v-9.26c0-1.16.49-2.61-1.73-2.67l.29-.31a11.92 11.92 0 0 1 2.24.06c.22 0 .45.71.45 1.09v11.81c0 1.06-.18 2.19 1.51 2.28ZM156.72 37.2a12.39 12.39 0 0 1-4.72-4.92c-.23 1.45 1.18 3.7 3.26 5.24a10.3 10.3 0 0 0 6 2c-.15 1-.68 1.41-1.57 1.15-1.51-.44-3-1-4.47-1.56a3.22 3.22 0 0 0-1.17-.24 5.1 5.1 0 0 1-4.58-2.3 9.42 9.42 0 0 1-1.18-8.57 12.42 12.42 0 0 1 3.71-5.65c1.07 1.71 2.12 3.4 3.19 5.07 1.26 2 2.43 4 2.28 6.44a25.05 25.05 0 0 1-.75 3.34ZM173.16 16.83l1.78-1-2.12 6.11-6.35-1.19 1.74-1.08-5.21-8.95c1.65 0 3.43-.1 5.19 0a3.36 3.36 0 0 1 2.57 2c.79 1.34 1.58 2.69 2.4 4.11ZM178.53 33.66c-.88 1.48-1.68 3-2.6 4.33a3.56 3.56 0 0 1-3.13 1.5H168l-.11 2-4.18-4.85 4.15-4.8c0 .37.08.56.08.74 0 1.24-.21 1.22 1.22 1.22h7.38c.62-.02 1.25-.09 1.99-.14ZM172 24.7l4.86-2.81c.15.2.29.36.4.54.84 1.45 1.69 2.89 2.51 4.35a4.35 4.35 0 0 1-.06 4.69 3.39 3.39 0 0 1-1.29 1.14c-1.16.59-1.62.41-2.27-.71-1.37-2.36-2.73-4.73-4.15-7.2ZM158.34 20.72l-5-2.86c1.14-1.91 2.16-3.82 3.39-5.6a4 4 0 0 1 3.92-1.58 2.7 2.7 0 0 1 2.13 1.45.84.84 0 0 1 0 .74c-1.4 2.6-2.89 5.13-4.44 7.85ZM44.1 115.08H32.74v-1.28c.33 0 .74-.09 1.23-.17a4 4 0 0 0 1-.25 1.63 1.63 0 0 0 .78-.67 2.23 2.23 0 0 0 .24-1.09V94.13l-7.21 20.57h-1.87c-.08-.36-.3-1.08-.65-2.16s-.64-1.94-.85-2.59L20.1 93.87v14.23a14.29 14.29 0 0 0 .25 3.11 2.88 2.88 0 0 0 .79 1.56 3.61 3.61 0 0 0 1.32.66 9.4 9.4 0 0 0 1.34.37v1.28h-9v-1.28c.25 0 .65-.11 1.21-.23a3 3 0 0 0 1.36-.6 2.47 2.47 0 0 0 .8-1.56 17.63 17.63 0 0 0 .21-3.12v-11.6a5.54 5.54 0 0 0-.24-1.76 2.48 2.48 0 0 0-.71-1.11 2.91 2.91 0 0 0-1.21-.66 7.52 7.52 0 0 0-1.26-.2v-1.29h9.67l5.17 15.43 4.35-12.52c.15-.46.29-1 .43-1.65a9.68 9.68 0 0 0 .22-1.26h9.29V93a9.3 9.3 0 0 0-1 .13 8 8 0 0 0-1 .27 1.22 1.22 0 0 0-.76.67 2.82 2.82 0 0 0-.19 1v16.57a2.44 2.44 0 0 0 .19 1 1.54 1.54 0 0 0 .76.7 3.74 3.74 0 0 0 1 .28l1 .19Z" class=" mapicls-1"/><path d="M60.47 115.08h-8.41v-.94a11.86 11.86 0 0 0 1.38-.24c.53-.13.79-.28.79-.47a1.77 1.77 0 0 0 0-.22 1.68 1.68 0 0 0-.09-.33l-1.32-3.57h-5.34c-.12.34-.26.73-.41 1.17s-.27.84-.38 1.19a5.71 5.71 0 0 0-.24 1 3.31 3.31 0 0 0 0 .43c0 .26.17.48.52.66a5.58 5.58 0 0 0 1.76.4v.94h-6.37v-.94a5.61 5.61 0 0 0 .81-.13 2.05 2.05 0 0 0 .71-.29 2.86 2.86 0 0 0 .76-.71 4 4 0 0 0 .51-1q1.27-3.42 2.53-6.84t2.8-7.55h2.18q2.13 5.85 3.34 9.25c.81 2.27 1.49 4.15 2.06 5.64a2.64 2.64 0 0 0 .36.66 2.29 2.29 0 0 0 .62.56 2.11 2.11 0 0 0 .7.29 4.52 4.52 0 0 0 .73.13Zm-8.11-7-2.23-6.23-2.21 6.23ZM67 115.56a8.16 8.16 0 0 1-3.18-.62 7.33 7.33 0 0 1-2.58-1.78 8.19 8.19 0 0 1-1.7-2.83 11.29 11.29 0 0 1 0-7.41 9 9 0 0 1 1.76-3 7.71 7.71 0 0 1 2.7-1.87 8.29 8.29 0 0 1 3.33-.67 7.19 7.19 0 0 1 2.34.35 8.76 8.76 0 0 1 1.78.79l.68-.67h.94l.1 6.29h-1a11.45 11.45 0 0 0-2-4.23 3.52 3.52 0 0 0-2.78-1.35 3.37 3.37 0 0 0-3.11 2 12.23 12.23 0 0 0-1.07 5.65 14.76 14.76 0 0 0 .37 3.51 7.54 7.54 0 0 0 .95 2.34 4 4 0 0 0 1.49 1.35 4.12 4.12 0 0 0 1.9.44 4.28 4.28 0 0 0 2.71-.93 8.3 8.3 0 0 0 2.17-2.79l.93.63a10.52 10.52 0 0 1-1.06 1.91 6.86 6.86 0 0 1-1.38 1.46 6.73 6.73 0 0 1-4.29 1.43Z" class=" mapicls-1"/><path d="M92.05 115.08h-8.34v-.94l.79-.08a2.41 2.41 0 0 0 .72-.14 1.06 1.06 0 0 0 .55-.48 1.69 1.69 0 0 0 .15-.76v-5.94h-6.59v5.8a1.65 1.65 0 0 0 .16.75 1.12 1.12 0 0 0 .54.51 3.92 3.92 0 0 0 .71.2 7.71 7.71 0 0 0 .81.14v.94h-8.34v-.94l.8-.08a3.23 3.23 0 0 0 .76-.17.91.91 0 0 0 .55-.48 1.75 1.75 0 0 0 .15-.76v-12.19a1.66 1.66 0 0 0-.14-.71 1.15 1.15 0 0 0-.56-.52A4.08 4.08 0 0 0 74 99a4.49 4.49 0 0 0-.74-.15v-1h8.34v1a4.71 4.71 0 0 0-.8.12 4.62 4.62 0 0 0-.72.18.89.89 0 0 0-.56.51 2 2 0 0 0-.14.73v5.15h6.59v-5a1.53 1.53 0 0 0-.14-.71 1.19 1.19 0 0 0-.56-.52 4.93 4.93 0 0 0-.76-.27 6.1 6.1 0 0 0-.75-.16v-1h8.34v1a6.41 6.41 0 0 0-.78.1 5.05 5.05 0 0 0-.79.2.91.91 0 0 0-.55.5 1.81 1.81 0 0 0-.14.74v12.2a1.7 1.7 0 0 0 .14.75 1.15 1.15 0 0 0 .55.51 3.45 3.45 0 0 0 .76.21 7.3 7.3 0 0 0 .81.13Z" class=" mapicls-1"/><path d="M109.65 98.8c-.21 0-.51.08-.9.16a2.36 2.36 0 0 0-1 .45 1.7 1.7 0 0 0-.58 1.09 12.36 12.36 0 0 0-.17 2.37v6.41a5.93 5.93 0 0 1-6.27 6.28 7.27 7.27 0 0 1-5.1-1.67 6 6 0 0 1-1.8-4.64v-8.81a1.61 1.61 0 0 0-.15-.73 1.41 1.41 0 0 0-.56-.55 2.71 2.71 0 0 0-.7-.25c-.27-.07-.5-.11-.67-.14v-.92h8.09v.92l-.71.09a5.27 5.27 0 0 0-.72.21.85.85 0 0 0-.56.48 2.07 2.07 0 0 0-.14.77V109a5.66 5.66 0 0 0 1 3.73 4.18 4.18 0 0 0 5.9-.12 5.77 5.77 0 0 0 1.07-3.79V103a10.35 10.35 0 0 0-.19-2.33 2.08 2.08 0 0 0-.58-1.11 2.46 2.46 0 0 0-1-.48 7.94 7.94 0 0 0-1-.27v-1h6.7Z" class=" mapicls-1"/><path d="M128.7 97.53a7.37 7.37 0 0 1-.73 3.41 6.29 6.29 0 0 1-2 2.32 9 9 0 0 1-3 1.33 16 16 0 0 1-3.83.41h-1.71v6.59a2.37 2.37 0 0 0 .2 1 1.46 1.46 0 0 0 .76.7 5.1 5.1 0 0 0 1 .28c.44.1.81.16 1.12.2v1.28h-11.46v-1.25l1.13-.14a3.41 3.41 0 0 0 1-.23 1.49 1.49 0 0 0 .77-.64 2.53 2.53 0 0 0 .18-1.06V95.22a2.55 2.55 0 0 0-.18-1 1.45 1.45 0 0 0-.77-.7 5.11 5.11 0 0 0-1.1-.35c-.45-.11-.8-.18-1-.21v-1.29h11.57c2.71 0 4.73.49 6.07 1.45a5.06 5.06 0 0 1 1.98 4.41Zm-5.76.84a6.54 6.54 0 0 0-1-3.92 4 4 0 0 0-3.39-1.27h-1.22v10.27h.67a5 5 0 0 0 3.68-1.24 5.15 5.15 0 0 0 1.26-3.84Z" class=" mapicls-1"/><path d="M136.83 115.08h-8.56v-.94l.86-.08a2.88 2.88 0 0 0 .79-.14 1.06 1.06 0 0 0 .55-.48 1.69 1.69 0 0 0 .15-.76v-12.22a1.86 1.86 0 0 0-.14-.73 1.09 1.09 0 0 0-.56-.51 5 5 0 0 0-.77-.25 8.82 8.82 0 0 0-.88-.17v-1h8.56v1l-.82.1a4.54 4.54 0 0 0-.82.19.89.89 0 0 0-.57.49 2 2 0 0 0-.14.76v12.2a1.7 1.7 0 0 0 .15.75 1.05 1.05 0 0 0 .56.51 3.63 3.63 0 0 0 .75.21 8 8 0 0 0 .89.13Z" class=" mapicls-1"/><path d="M144.69 115.56a8.23 8.23 0 0 1-3.18-.62 7.33 7.33 0 0 1-2.58-1.78 8 8 0 0 1-1.69-2.83 10.45 10.45 0 0 1-.62-3.7 10.58 10.58 0 0 1 .62-3.71 9 9 0 0 1 1.76-3 7.8 7.8 0 0 1 2.66-1.9 8.29 8.29 0 0 1 3.33-.67 7.19 7.19 0 0 1 2.34.35 8.76 8.76 0 0 1 1.78.79l.68-.67h1l.09 6.29h-1a11.61 11.61 0 0 0-2-4.23 3.52 3.52 0 0 0-2.78-1.35 3.37 3.37 0 0 0-3.11 2 12.24 12.24 0 0 0-1.06 5.65 14.8 14.8 0 0 0 .36 3.51 7.54 7.54 0 0 0 .95 2.34 4 4 0 0 0 1.49 1.35 4.15 4.15 0 0 0 1.9.44 4.26 4.26 0 0 0 2.71-.93 8.18 8.18 0 0 0 2.17-2.79l.94.63a11.18 11.18 0 0 1-1.07 1.91 6.86 6.86 0 0 1-1.38 1.46 7 7 0 0 1-1.9 1 7.21 7.21 0 0 1-2.41.46Z" class=" mapicls-1"/><path d="M159 115.56a8.14 8.14 0 0 1-3.17-.62 7.33 7.33 0 0 1-2.58-1.78 8 8 0 0 1-1.7-2.83 11.29 11.29 0 0 1 0-7.41 9 9 0 0 1 1.75-3 7.75 7.75 0 0 1 2.67-1.9 8.29 8.29 0 0 1 3.33-.67 7.27 7.27 0 0 1 2.34.35 9 9 0 0 1 1.78.79l.67-.67h.91l.1 6.29h-1a11.45 11.45 0 0 0-1.95-4.23 3.52 3.52 0 0 0-2.79-1.35 3.35 3.35 0 0 0-3.1 2 12.23 12.23 0 0 0-1.07 5.65 14.26 14.26 0 0 0 .37 3.51 7.54 7.54 0 0 0 1 2.34 3.89 3.89 0 0 0 1.49 1.35 4.12 4.12 0 0 0 1.9.44 4.3 4.3 0 0 0 2.71-.93 8.43 8.43 0 0 0 2.17-2.79l.93.63a11.16 11.16 0 0 1-1.06 1.91 6.66 6.66 0 0 1-1.39 1.46 7 7 0 0 1-1.89 1 7.27 7.27 0 0 1-2.42.46Z" class=" mapicls-1"/><path d="M184 115.08h-8.35v-.94l.8-.08a2.4 2.4 0 0 0 .71-.14 1.08 1.08 0 0 0 .56-.48 1.69 1.69 0 0 0 .15-.76v-5.94h-6.59v5.8a1.65 1.65 0 0 0 .16.75 1.12 1.12 0 0 0 .54.51 3.75 3.75 0 0 0 .7.2 8.29 8.29 0 0 0 .82.14v.94h-8.35v-.94l.8-.08a3.21 3.21 0 0 0 .77-.17 1 1 0 0 0 .55-.48 1.75 1.75 0 0 0 .15-.76v-12.19a1.66 1.66 0 0 0-.14-.71 1.19 1.19 0 0 0-.56-.52 4 4 0 0 0-.83-.28 4.3 4.3 0 0 0-.74-.15v-1h8.35v1a4.81 4.81 0 0 0-.81.12 4.75 4.75 0 0 0-.71.18.87.87 0 0 0-.56.51 1.79 1.79 0 0 0-.14.73v5.15h6.59v-5a1.66 1.66 0 0 0-.14-.71 1.17 1.17 0 0 0-.57-.52 4.75 4.75 0 0 0-.75-.27 6.19 6.19 0 0 0-.76-.16v-1H184v1a6.32 6.32 0 0 0-.79.1 4.91 4.91 0 0 0-.78.2.93.93 0 0 0-.56.5 2 2 0 0 0-.14.74v12.2a1.86 1.86 0 0 0 .14.75 1.18 1.18 0 0 0 .56.51 3.29 3.29 0 0 0 .76.21 7.3 7.3 0 0 0 .81.13Z" class=" mapicls-1"/><path d="M201.57 98.8c-.21 0-.51.08-.91.16a2.37 2.37 0 0 0-1 .45 1.7 1.7 0 0 0-.58 1.09 11.59 11.59 0 0 0-.17 2.37v6.41a5.93 5.93 0 0 1-6.27 6.28 7.24 7.24 0 0 1-5.1-1.67 6 6 0 0 1-1.81-4.64v-8.81a1.76 1.76 0 0 0-.14-.73 1.41 1.41 0 0 0-.56-.55 2.71 2.71 0 0 0-.7-.25c-.28-.07-.5-.11-.67-.14v-.92h8.09v.92l-.71.09a5.4 5.4 0 0 0-.73.21.83.83 0 0 0-.55.48 1.89 1.89 0 0 0-.14.77V109a5.6 5.6 0 0 0 1 3.73 4.18 4.18 0 0 0 5.9-.12 5.82 5.82 0 0 0 1.07-3.79V103a10.35 10.35 0 0 0-.19-2.33 2.15 2.15 0 0 0-.58-1.11 2.52 2.52 0 0 0-1-.48 7.48 7.48 0 0 0-1-.27v-1h6.7Z" class=" mapicls-1"/></svg>
